<?xml version="1.0" standalone="no"?>
<!DOCTYPE svg PUBLIC "-//W3C//DTD SVG 1.1//EN" "http://www.w3.org/Graphics/SVG/1.1/DTD/svg11.dtd" >
<svg xmlns="http://www.w3.org/2000/svg" xmlns:xlink="http://www.w3.org/1999/xlink" version="1.1">
<metadata></metadata>
<defs>
<font id="core_sans_a_35_lightitalic" horiz-adv-x="576" >
<font-face units-per-em="1000" ascent="800" descent="-200" />
<missing-glyph horiz-adv-x="300" />
<glyph unicode="&#xfb01;" horiz-adv-x="557" d="M367 730q31 0 54 -3l-11 -56q-25 3 -53 3q-50 0 -77.5 -22.5t-38.5 -77.5l-11 -56h297l-100 -518h-60l90 464h-237l-132 -676h-60l132 676h-103l10 54h103l12 60q16 81 60.5 116.5t124.5 35.5zM482 679q4 19 20 32.5t35 13.5q16 0 27 -10.5t11 -26.5q0 -22 -17 -38.5 t-38 -16.5q-17 0 -28 11t-11 28q0 4 1 7z" />
<glyph unicode="&#xfb02;" horiz-adv-x="541" d="M170 518l12 59q16 81 61 117t124 36q55 0 122 -15l3 15h60l-141 -730h-60l128 663q-63 13 -121 13q-51 0 -78.5 -24t-38.5 -80l-11 -54h140l-10 -54h-140l-132 -676h-60l132 676h-103l10 54h103z" />
<glyph unicode="&#xfb03;" horiz-adv-x="835" d="M645 730q31 0 54 -3l-11 -56q-25 3 -53 3q-50 0 -77.5 -22.5t-38.5 -77.5l-11 -56h297l-100 -518h-60l90 464h-237l-132 -676h-60l132 676h-218l-132 -676h-60l132 676h-103l10 54h103l12 60q16 81 60.5 116.5t124.5 35.5q31 0 54 -3l-11 -56q-25 3 -53 3 q-50 0 -77.5 -22.5t-38.5 -77.5l-11 -56h218l12 60q16 81 60.5 116.5t124.5 35.5zM760 679q4 19 20 32.5t35 13.5q16 0 27 -10.5t11 -26.5q0 -22 -17 -38.5t-38 -16.5q-17 0 -28 11t-11 28q0 4 1 7z" />
<glyph unicode="&#xfb04;" horiz-adv-x="819" d="M448 518l12 59q16 81 61 117t124 36q55 0 122 -15l3 15h60l-141 -730h-60l128 663q-63 13 -121 13q-51 0 -78.5 -24t-38.5 -80l-11 -54h140l-10 -54h-140l-132 -676h-60l132 676h-218l-132 -676h-60l132 676h-103l10 54h103l12 60q16 81 60.5 116.5t124.5 35.5 q31 0 54 -3l-11 -56q-25 3 -53 3q-50 0 -77.5 -22.5t-38.5 -77.5l-11 -56h218z" />
<glyph horiz-adv-x="333" />
<glyph horiz-adv-x="0" />
<glyph horiz-adv-x="0" />
<glyph unicode="&#xd;" horiz-adv-x="237" />
<glyph unicode=" "  horiz-adv-x="300" />
<glyph unicode="&#x09;" horiz-adv-x="300" />
<glyph unicode="&#xa0;" horiz-adv-x="300" />
<glyph unicode="!" horiz-adv-x="264" d="M39 38q4 21 21.5 35.5t38.5 14.5q19 0 30 -11.5t11 -29.5q0 -24 -19 -41.5t-42 -17.5q-18 0 -29.5 11t-11.5 28q0 7 1 11zM94 169l47 313l43 218h68l-43 -218l-75 -313h-40z" />
<glyph unicode="&#x22;" horiz-adv-x="454" d="M315 428l46 272h69l-10 -49l-55 -223h-50zM150 428l46 272h69l-10 -49l-56 -223h-49z" />
<glyph unicode="#" horiz-adv-x="679" d="M324 0l68 188h-190l-68 -188h-64l68 188h-114l11 55h124l79 215h-119l10 55h128l70 187h64l-70 -187h190l70 187h64l-70 -187h115l-10 -55h-124l-79 -215h119l-11 -55h-129l-68 -188h-64zM302 458l-79 -215h190l79 215h-190z" />
<glyph unicode="$" horiz-adv-x="589" d="M205 -98l18 88q-140 12 -216 110l58 42q63 -83 169 -94l57 296q-172 52 -172 159q0 87 69 147.5t175 61.5l17 88h48l-18 -91q112 -15 173 -102l-55 -39q-53 67 -129 82l-50 -258q94 -31 137.5 -69.5t43.5 -99.5q0 -100 -73 -166t-187 -69l-17 -86h-48zM459 178q3 16 3 30 q0 43 -30 71t-95 51l-56 -284q70 4 118.5 40.5t59.5 91.5zM189 537q-2 -14 -2 -20q0 -70 116 -111l49 248q-69 -1 -111 -33t-52 -84z" />
<glyph unicode="%" horiz-adv-x="878" d="M198 528q-4 -20 -4 -42q0 -81 70 -81q49 0 83.5 45.5t34.5 119.5q0 81 -70 81q-41 0 -72 -33t-42 -90zM135 528q15 79 66.5 129t121.5 50q59 0 91 -36t32 -96q0 -94 -56.5 -160t-136.5 -66q-59 0 -91 35.5t-32 95.5q0 20 5 48zM120 21l631 691l40 -33l-631 -691zM533 172 q-4 -20 -4 -42q0 -81 70 -81q49 0 83.5 45.5t34.5 119.5q0 81 -70 81q-41 0 -72 -33t-42 -90zM470 172q15 79 66.5 129t121.5 50q59 0 91 -36t32 -96q0 -94 -56.5 -160t-136.5 -66q-59 0 -91 35.5t-32 95.5q0 20 5 48z" />
<glyph unicode="&#x26;" horiz-adv-x="629" d="M464 0l-43 66q-103 -78 -213 -78q-80 0 -128 40.5t-48 103.5q0 78 51 136t142 106l-6 10q-49 77 -49 136q0 86 56.5 139t141.5 53q60 0 98 -35t38 -93q0 -69 -47.5 -123.5t-141.5 -106.5l127 -199q52 52 106 131l47 -25q-59 -93 -123 -153l70 -108h-78zM225 45 q81 0 167 66l-135 213q-79 -41 -119.5 -81t-40.5 -101q0 -43 33 -70t95 -27zM237 554q-2 -14 -2 -21q0 -52 42 -118l7 -11q156 83 156 170q0 34 -22 58t-58 24q-49 0 -82 -30t-41 -72z" />
<glyph unicode="'" horiz-adv-x="289" d="M150 428l46 272h69l-10 -49l-56 -223h-49z" />
<glyph unicode="(" horiz-adv-x="345" d="M123 310q47 248 232 440l41 -22q-107 -123 -166 -267t-59 -296q0 -144 63 -273l-50 -22q-76 132 -76 294q0 71 15 146z" />
<glyph unicode=")" horiz-adv-x="345" d="M242 310q-49 -250 -233 -440l-40 22q107 122 165.5 266t58.5 297q0 146 -62 273l49 22q76 -134 76 -295q0 -67 -14 -145z" />
<glyph unicode="*" horiz-adv-x="533" d="M244 116l5 169l-144 -88l-32 54l150 81l-150 81l32 54l144 -89l-5 170h64l-5 -170l144 89l32 -54l-150 -81l150 -81l-32 -54l-144 88l5 -169h-64z" />
<glyph unicode="+" horiz-adv-x="618" d="M286 88v215h-213v57h213v215h66v-215h213v-57h-213v-215h-66z" />
<glyph unicode="," horiz-adv-x="294" d="M96 95l65 -23l-134 -228l-48 17z" />
<glyph unicode="-" horiz-adv-x="406" d="M351 301h-280l12 62h280z" />
<glyph unicode="." horiz-adv-x="294" d="M54 38q4 21 21.5 35.5t38.5 14.5q19 0 30 -11.5t11 -29.5q0 -24 -19 -41.5t-42 -17.5q-18 0 -29.5 11t-11.5 28q0 7 1 11z" />
<glyph unicode="/" horiz-adv-x="484" d="M-68 -93l596 853l46 -31l-597 -853z" />
<glyph unicode="0" horiz-adv-x="588" d="M66 350q31 163 113.5 262.5t202.5 99.5q95 0 142 -63t47 -174q0 -61 -12 -126.5t-38.5 -130t-64 -115.5t-93.5 -83t-122 -32q-94 0 -141.5 63t-47.5 172q0 55 14 127zM132 350q-14 -70 -14 -123q0 -86 34 -132.5t101 -46.5q51 0 94.5 29t71.5 74t48 102.5t29 112.5t9 105 q0 87 -34 134t-101 47q-88 0 -149.5 -79.5t-88.5 -222.5z" />
<glyph unicode="1" horiz-adv-x="588" d="M370 623l-172 -104l-30 44l224 137h57l-136 -700h-64z" />
<glyph unicode="2" horiz-adv-x="588" d="M374 712q83 0 131 -40t48 -110q0 -134 -180 -300q-107 -100 -246 -204h342l-11 -58h-436l10 52q253 194 353 304t100 193q0 46 -32.5 74.5t-91.5 28.5q-104 0 -200 -87l-39 38q121 109 252 109z" />
<glyph unicode="3" horiz-adv-x="588" d="M375 652q-104 0 -194 -83l-39 39q114 104 246 104q83 0 130.5 -37t47.5 -100q0 -78 -53 -135.5t-122 -72.5q125 -32 125 -142q0 -102 -76 -169.5t-196 -67.5q-155 0 -223 112l55 39q61 -91 177 -91q89 0 142.5 47t53.5 122q0 58 -45 89.5t-123 31.5h-66l11 57h66 q84 0 144.5 44.5t60.5 118.5q0 43 -31 68.5t-91 25.5z" />
<glyph unicode="4" horiz-adv-x="588" d="M370 162h-351l11 55l449 483h60l-94 -480h94l-11 -58h-94l-31 -162h-64zM454 592l-348 -372h275z" />
<glyph unicode="5" horiz-adv-x="588" d="M260 48q85 0 141 57t56 134q0 59 -41 92t-109 33q-89 0 -166 -24l-8 5l69 355h378l-12 -58h-314l-45 -235q57 17 119 17q90 0 142.5 -46.5t52.5 -127.5q0 -107 -76.5 -184.5t-197.5 -77.5q-145 0 -210 106l56 42q61 -88 165 -88z" />
<glyph unicode="6" horiz-adv-x="588" d="M386 652q-168 0 -232 -276q95 71 198 71q86 0 134 -47.5t48 -127.5q0 -123 -82.5 -203.5t-196.5 -80.5q-91 0 -141 53t-50 163q0 53 14 128q74 380 319 380q121 0 179 -97l-55 -36q-44 73 -135 73zM332 387q-95 0 -193 -79q-7 -46 -7 -87q0 -92 37 -132.5t97 -40.5 q86 0 143.5 59.5t57.5 154.5q0 59 -35 92t-100 33z" />
<glyph unicode="7" horiz-adv-x="588" d="M593 642l-406 -642h-72l408 642h-381l12 58h451z" />
<glyph unicode="8" horiz-adv-x="588" d="M38 188q11 59 53.5 111.5t104.5 85.5q-65 44 -65 116q0 88 72.5 149.5t178.5 61.5q85 0 132.5 -40.5t47.5 -104.5q0 -62 -37.5 -116.5t-105.5 -91.5q104 -56 104 -144q0 -101 -83 -164t-199 -63q-95 0 -151 41.5t-56 116.5q0 22 4 42zM266 351q-2 0 -4.5 1t-4.5 2t-3 1 q-71 -37 -111.5 -89t-40.5 -108q0 -52 40.5 -82t109.5 -30q84 0 143 43t59 111q0 50 -45 82.5t-143 68.5zM323 402q26 -10 39 -16q131 76 131 168q0 45 -32 72t-91 27q-69 0 -120 -40t-51 -97q0 -35 29.5 -62t94.5 -52z" />
<glyph unicode="9" horiz-adv-x="588" d="M216 -12q-114 0 -174 74l51 41q55 -55 138 -55q73 0 138.5 66t100.5 209q-96 -70 -198 -70q-86 0 -134 47.5t-48 127.5q0 122 82 203t197 81q91 0 141 -53t50 -164q0 -52 -14 -127q-37 -193 -124 -286.5t-206 -93.5zM292 313q95 0 192 78q8 53 8 89q0 92 -37 132t-97 40 q-86 0 -144 -59.5t-58 -154.5q0 -59 35.5 -92t100.5 -33z" />
<glyph unicode=":" horiz-adv-x="294" d="M54 38q4 21 21.5 35.5t38.5 14.5q19 0 30 -11.5t11 -29.5q0 -24 -19 -41.5t-42 -17.5q-18 0 -29.5 11t-11.5 28q0 7 1 11zM140 480q4 21 21.5 35.5t38.5 14.5q19 0 30 -11.5t11 -29.5q0 -24 -19 -41.5t-42 -17.5q-18 0 -29.5 11t-11.5 28q0 7 1 11z" />
<glyph unicode=";" horiz-adv-x="294" d="M85 95l65 -23l-134 -228l-48 17zM139 480q4 21 21.5 35.5t38.5 14.5q19 0 30 -11.5t11 -29.5q0 -24 -19 -41.5t-42 -17.5q-18 0 -29.5 11t-11.5 28q0 7 1 11z" />
<glyph unicode="&#x3c;" horiz-adv-x="618" d="M118 311v42l372 234l30 -52l-328 -203l328 -203l-30 -52z" />
<glyph unicode="=" horiz-adv-x="618" d="M565 417h-492v57h492v-57zM565 190h-492v57h492v-57z" />
<glyph unicode="&#x3e;" horiz-adv-x="618" d="M520 353v-42l-372 -234l-30 52l328 203l-328 203l30 52z" />
<glyph unicode="?" horiz-adv-x="519" d="M327 654q-90 0 -175 -80l-37 36q105 102 228 102q79 0 122 -34.5t43 -95.5q0 -135 -161 -230q-51 -30 -73 -61t-32 -82l-8 -40h-64l9 43q14 64 42 106t87 76q73 43 102.5 83t29.5 91q0 40 -29.5 63t-83.5 23zM128 38q4 21 21.5 35.5t38.5 14.5q19 0 30 -11.5t11 -29.5 q0 -24 -19 -41.5t-42 -17.5q-18 0 -29.5 11t-11.5 28q0 7 1 11z" />
<glyph unicode="@" horiz-adv-x="957" d="M691 57q-85 0 -100 65q-81 -74 -170 -74q-77 0 -116 41.5t-39 115.5q0 126 67.5 207.5t174.5 81.5q83 0 134 -68l11 56h59l-58 -298q-2 -8 -2 -22q0 -55 52 -55q61 0 101 80t40 193q0 127 -78 206.5t-211 79.5q-85 0 -165 -38t-139 -102.5t-95 -154.5t-36 -188 q0 -134 77 -217.5t211 -83.5q126 0 246 79l16 -41q-128 -84 -271 -84q-158 0 -245 93.5t-87 242.5q0 141 64.5 264.5t180 199.5t252.5 76q156 0 244 -91t88 -233q0 -58 -13 -115.5t-37.5 -106.5t-65 -79t-90.5 -30zM631 367q-49 75 -127 75q-84 0 -131.5 -63t-47.5 -169 q0 -110 113 -110q81 0 155 74z" />
<glyph unicode="A" horiz-adv-x="666" d="M384 700h70l139 -700h-71l-36 191h-332l-110 -191h-71zM405 632l-220 -383h292z" />
<glyph unicode="B" horiz-adv-x="618" d="M33 0l136 700h232q94 0 143.5 -39t49.5 -105q0 -69 -39.5 -121t-100.5 -66q55 -10 84 -44t29 -87q0 -110 -79 -174t-213 -64h-242zM173 393h176q80 0 129 42t49 110q0 97 -147 97h-159zM497 196q3 16 3 32q0 107 -154 107h-184l-54 -277h169q192 0 220 138z" />
<glyph unicode="C" horiz-adv-x="680" d="M66 350q31 160 138 261t251 101q181 0 243 -141l-59 -33q-57 114 -194 114q-128 0 -225 -107.5t-97 -278.5q0 -103 55 -160.5t150 -57.5q135 0 238 114l47 -33q-117 -141 -299 -141q-121 0 -189.5 73t-68.5 195q0 47 10 94z" />
<glyph unicode="D" horiz-adv-x="673" d="M108 58h148q140 0 234.5 106.5t94.5 275.5q0 92 -56.5 147t-159.5 55h-148zM251 0h-218l136 700h218q127 0 196 -68t69 -189q0 -43 -9 -93q-32 -163 -136.5 -256.5t-255.5 -93.5z" />
<glyph unicode="E" horiz-adv-x="561" d="M33 0l136 700h426l-12 -58h-362l-48 -251h325l-12 -58h-325l-53 -275h371l-11 -58h-435z" />
<glyph unicode="F" horiz-adv-x="532" d="M33 0l136 700h426l-12 -58h-362l-51 -264h328l-11 -58h-328l-62 -320h-64z" />
<glyph unicode="G" horiz-adv-x="697" d="M66 350q31 159 138 260.5t245 101.5q181 0 246 -138l-59 -33q-29 58 -76.5 84.5t-120.5 26.5q-125 0 -220 -109.5t-95 -272.5q0 -103 57 -162.5t158 -59.5q59 0 115.5 20.5t92.5 57.5l34 176h-190l11 58h254l-50 -258q-53 -55 -127.5 -84.5t-152.5 -29.5 q-127 0 -198 75.5t-71 198.5q0 43 9 88z" />
<glyph unicode="H" horiz-adv-x="691" d="M33 0l136 700h64l-58 -298h397l58 298h64l-136 -700h-64l66 344h-397l-66 -344h-64z" />
<glyph unicode="I" horiz-adv-x="240" d="M174 700h64l-136 -700h-64z" />
<glyph unicode="J" horiz-adv-x="553" d="M213 48q71 0 121 48.5t67 135.5l91 468h64l-91 -468q-22 -115 -92.5 -179.5t-168.5 -64.5q-153 0 -199 135l58 31q40 -106 150 -106z" />
<glyph unicode="K" horiz-adv-x="604" d="M233 700l-83 -424l418 424h77l-282 -286l177 -414h-77l-151 364l-181 -184l-34 -180h-64l136 700h64z" />
<glyph unicode="L" horiz-adv-x="527" d="M33 0l136 700h64l-125 -642h360l-11 -58h-424z" />
<glyph unicode="M" horiz-adv-x="838" d="M374 138l-165 441l-112 -579h-64l136 700h64l179 -476l365 476h64l-136 -700h-64l112 579l-337 -441h-42z" />
<glyph unicode="N" horiz-adv-x="697" d="M33 0l136 700h65l286 -594l116 594h64l-136 -700h-64l-288 594l-115 -594h-64z" />
<glyph unicode="O" horiz-adv-x="708" d="M678 350q-31 -157 -133.5 -259.5t-243.5 -102.5q-118 0 -181.5 72.5t-63.5 192.5q0 123 50.5 228t139.5 168t196 63q118 0 181.5 -73t63.5 -194q0 -45 -9 -95zM132 350q-10 -53 -10 -89q0 -99 50 -156t141 -57q130 0 219 115.5t89 280.5q0 94 -50.5 151t-140.5 57 q-110 0 -191 -82.5t-107 -219.5z" />
<glyph unicode="P" horiz-adv-x="583" d="M588 486q-20 -104 -98 -159t-203 -55h-138l-52 -272h-64l136 700h202q109 0 165.5 -41t56.5 -122q0 -21 -5 -51zM522 486q4 19 4 39q0 117 -173 117h-132l-60 -312h132q198 0 229 156z" />
<glyph unicode="Q" horiz-adv-x="708" d="M678 350q-31 -156 -130 -257l90 -123l-53 -42l-89 122q-89 -62 -195 -62q-118 0 -181.5 72.5t-63.5 192.5q0 123 50.5 228t139.5 168t196 63q118 0 181.5 -73t63.5 -194q0 -45 -9 -95zM366 230l53 42l94 -131q108 118 108 303q0 94 -50.5 151t-140.5 57 q-110 0 -191 -82.5t-107 -219.5q-10 -53 -10 -89q0 -99 50 -156t141 -57q81 0 149 48z" />
<glyph unicode="R" horiz-adv-x="613" d="M597 500q-30 -149 -196 -189l141 -311h-74l-137 302q-23 -1 -71 -1h-105l-58 -301h-64l136 700h217q104 0 159.5 -41t55.5 -116q0 -23 -4 -43zM531 500q3 16 3 32q0 110 -166 110h-147l-55 -283h147q190 0 218 141z" />
<glyph unicode="S" horiz-adv-x="589" d="M268 48q87 0 140.5 45.5t53.5 114.5q0 47 -39 77t-129 57q-93 28 -134 66t-41 92q0 92 69 152t179 60q141 0 216 -105l-55 -39q-67 84 -172 84q-78 0 -123 -37t-45 -95q0 -79 140 -120q105 -32 153.5 -71.5t48.5 -105.5q0 -102 -75 -168.5t-195 -66.5q-162 0 -253 112 l59 42q77 -94 202 -94z" />
<glyph unicode="T" horiz-adv-x="549" d="M193 0l124 642h-225l12 58h513l-12 -58h-224l-124 -642h-64z" />
<glyph unicode="U" horiz-adv-x="708" d="M313 48q101 0 165 57.5t86 169.5l83 425h64l-84 -429q-28 -139 -116 -211t-210 -72q-104 0 -164 52.5t-60 153.5q0 32 8 77l84 429h64l-83 -425q-7 -35 -7 -70q0 -157 170 -157z" />
<glyph unicode="V" horiz-adv-x="666" d="M296 68l362 632h71l-411 -700h-70l-139 700h71z" />
<glyph unicode="W" horiz-adv-x="988" d="M254 75l287 625h78l43 -625l319 625h70l-360 -700h-85l-42 619l-282 -619h-85l-88 700h70z" />
<glyph unicode="X" horiz-adv-x="590" d="M447 0l-143 308l-261 -308h-75l310 364l-154 336h74l128 -279l238 279h74l-286 -336l170 -364h-75z" />
<glyph unicode="Y" horiz-adv-x="590" d="M213 0l54 278l-163 422h72l136 -354l274 354h72l-327 -422l-54 -278h-64z" />
<glyph unicode="Z" horiz-adv-x="560" d="M-7 55l520 587h-387l12 58h465l-11 -55l-520 -587h416l-11 -58h-494z" />
<glyph unicode="[" horiz-adv-x="398" d="M47 -130l171 880h251l-10 -52h-188l-151 -776h188l-10 -52h-251z" />
<glyph unicode="\" horiz-adv-x="484" d="M91 729l58 31l265 -853l-58 -31z" />
<glyph unicode="]" horiz-adv-x="398" d="M370 750l-171 -880h-250l9 52h188l151 776h-188l10 52h251z" />
<glyph unicode="^" horiz-adv-x="618" d="M289 700h60l197 -302l-50 -33l-177 263l-177 -263l-50 33z" />
<glyph unicode="_" horiz-adv-x="493" d="M-81 -162l10 51h492l-10 -51h-492z" />
<glyph unicode="`" horiz-adv-x="395" d="M190 699l56 40l109 -147l-42 -31z" />
<glyph unicode="a" d="M393 0l11 60q-93 -72 -187 -72q-87 0 -132.5 48.5t-45.5 137.5q0 159 82 257.5t202 98.5q94 0 159 -72l11 60h60l-100 -518h-60zM110 259q-8 -43 -8 -75q0 -140 137 -140q43 0 92 22t85 56l53 274q-23 34 -63 56t-83 22q-86 0 -139.5 -55.5t-73.5 -159.5z" />
<glyph unicode="b" d="M94 60l-11 -60h-60l141 730h60l-52 -272q93 72 187 72q87 0 132.5 -49t45.5 -138q0 -159 -81.5 -257t-202.5 -98q-94 0 -159 72zM466 259q8 43 8 74q0 141 -137 141q-43 0 -92 -22t-86 -56l-53 -274q24 -34 64.5 -56t82.5 -22q171 0 213 215z" />
<glyph unicode="c" horiz-adv-x="534" d="M43 259q23 120 105.5 195.5t191.5 75.5q141 0 189 -115l-53 -29q-44 88 -143 88q-96 0 -165 -77t-69 -198q0 -73 40 -114t110 -41q100 0 177 88l43 -29q-93 -115 -235 -115q-92 0 -145 55.5t-53 147.5q0 34 7 68z" />
<glyph unicode="d" d="M393 0l11 60q-93 -72 -187 -72q-87 0 -132.5 48.5t-45.5 137.5q0 159 82 257.5t202 98.5q94 0 159 -72l52 272h60l-141 -730h-60zM110 259q-8 -43 -8 -75q0 -140 137 -140q43 0 92 22t85 56l53 274q-23 34 -63 56t-83 22q-86 0 -139.5 -55.5t-73.5 -159.5z" />
<glyph unicode="e" horiz-adv-x="548" d="M256 44q93 0 167 74l40 -33q-94 -97 -216 -97q-100 0 -155.5 56.5t-55.5 151.5q0 136 92.5 235t233.5 99q81 0 128.5 -36.5t47.5 -95.5q0 -89 -70.5 -138.5t-180.5 -49.5t-181 48l-2 -6q-5 -28 -5 -50q0 -70 41 -114t116 -44zM348 476q-80 0 -139.5 -46t-88.5 -124 q79 -42 173 -42q83 0 132 33.5t49 89.5q0 40 -33 64.5t-93 24.5z" />
<glyph unicode="f" horiz-adv-x="347" d="M367 730q31 0 54 -3l-11 -56q-25 3 -53 3q-50 0 -77.5 -22.5t-38.5 -77.5l-11 -56h140l-10 -54h-140l-132 -676h-60l132 676h-103l10 54h103l12 60q16 81 60.5 116.5t124.5 35.5z" />
<glyph unicode="g" d="M553 518l-99 -508q-22 -113 -89.5 -173.5t-170.5 -60.5q-136 0 -197 104l54 33q51 -83 150 -83q74 0 125 45t67 127l11 58q-93 -72 -187 -72q-87 0 -132.5 48.5t-45.5 137.5q0 159 82 257.5t202 98.5q94 0 159 -72l11 60h60zM110 259q-8 -43 -8 -75q0 -140 137 -140 q43 0 92 22t85 56l53 274q-23 34 -63 56t-83 22q-86 0 -139.5 -55.5t-73.5 -159.5z" />
<glyph unicode="h" horiz-adv-x="575" d="M377 530q72 0 111 -35t39 -102q0 -29 -5 -53l-66 -340h-60l63 325q5 30 5 49q0 100 -111 100q-48 0 -103 -26.5t-93 -63.5l-74 -384h-60l141 730h60l-55 -283q103 83 208 83z" />
<glyph unicode="i" horiz-adv-x="220" d="M30 0l100 518h60l-100 -518h-60zM145 679q4 19 20 32.5t35 13.5q16 0 27 -10.5t11 -26.5q0 -22 -17 -38.5t-38 -16.5q-17 0 -28 11t-11 28q0 4 1 7z" />
<glyph unicode="j" horiz-adv-x="220" d="M16 -69l114 587h60l-115 -592q-16 -81 -61 -115.5t-121 -34.5q-17 0 -37 2l11 56q22 -2 40 -2q47 0 73 22.5t36 76.5zM145 679q4 19 20 32.5t35 13.5q16 0 27 -10.5t11 -26.5q0 -22 -17 -38.5t-38 -16.5q-17 0 -28 11t-11 28q0 4 1 7z" />
<glyph unicode="k" horiz-adv-x="505" d="M378 0l-128 269l-141 -131l-26 -138h-60l141 730h60l-99 -512l316 300h77l-221 -206l151 -312h-70z" />
<glyph unicode="l" horiz-adv-x="220" d="M30 0l141 730h60l-141 -730h-60z" />
<glyph unicode="m" horiz-adv-x="874" d="M358 530q100 0 126 -82q102 82 207 82q136 0 136 -127q0 -28 -6 -61l-66 -342h-60l63 326q6 33 6 59q0 45 -22 67t-74 22q-40 0 -89.5 -21.5t-87.5 -55.5q0 -22 -5 -50l-67 -347h-60l64 331q6 30 6 54q0 45 -22.5 67t-71.5 22q-41 0 -91 -22.5t-85 -58.5l-76 -393h-60 l100 518h60l-12 -62q90 74 187 74z" />
<glyph unicode="n" horiz-adv-x="575" d="M377 530q72 0 111 -35t39 -102q0 -29 -5 -53l-66 -340h-60l63 325q5 30 5 49q0 100 -111 100q-48 0 -103 -26.5t-93 -63.5l-74 -384h-60l100 518h60l-14 -71q103 83 208 83z" />
<glyph unicode="o" d="M471 259q6 31 6 59q0 73 -39 114.5t-108 41.5q-95 0 -163 -77.5t-68 -197.5q0 -72 39 -113.5t108 -41.5q83 0 144.5 58.5t80.5 156.5zM533 259q-23 -119 -106 -195t-192 -76q-93 0 -146 55.5t-53 148.5q0 141 90.5 239.5t214.5 98.5q92 0 145 -56t53 -149q0 -31 -6 -66z " />
<glyph unicode="p" d="M183 518l-11 -60q93 72 187 72q87 0 132.5 -49t45.5 -138q0 -159 -81.5 -257t-202.5 -98q-94 0 -159 72l-53 -272h-60l142 730h60zM466 259q8 43 8 74q0 141 -137 141q-43 0 -92 -22t-86 -56l-53 -274q24 -34 64.5 -56t82.5 -22q171 0 213 215z" />
<glyph unicode="q" d="M482 458l11 60h60l-142 -730h-60l53 272q-93 -72 -187 -72q-87 0 -132.5 48.5t-45.5 137.5q0 159 82 257.5t202 98.5q94 0 159 -72zM110 259q-8 -43 -8 -75q0 -140 137 -140q43 0 92 22t85 56l53 274q-23 34 -63 56t-83 22q-86 0 -139.5 -55.5t-73.5 -159.5z" />
<glyph unicode="r" horiz-adv-x="355" d="M336 474q-48 0 -97 -25t-82 -65l-74 -384h-60l100 518h60l-13 -70q80 82 186 82q11 0 33 -2l-11 -56q-18 2 -42 2z" />
<glyph unicode="s" horiz-adv-x="489" d="M210 44q68 0 110 30t42 78q0 34 -31 56t-97 40q-82 22 -117 49.5t-35 71.5q0 71 56 116t149 45q110 0 171 -72l-50 -40q-50 56 -132 56q-56 0 -93.5 -24.5t-37.5 -65.5q0 -27 28 -44.5t99 -38.5q80 -24 116.5 -55t36.5 -78q0 -81 -61.5 -130.5t-162.5 -49.5 q-135 0 -205 91l52 42q60 -77 162 -77z" />
<glyph unicode="t" horiz-adv-x="347" d="M225 -12q-133 0 -133 105q0 19 5 47l63 324h-103l10 54h103l30 155h60l-30 -155h140l-10 -54h-140l-63 -320q-4 -17 -4 -35q0 -65 79 -65q19 0 45 2l-10 -56q-24 -2 -42 -2z" />
<glyph unicode="u" horiz-adv-x="570" d="M243 44q72 0 123 44t68 129l58 301h60l-59 -306q-22 -111 -91.5 -167.5t-169.5 -56.5q-85 0 -132.5 40.5t-47.5 120.5q0 31 7 63l59 306h60l-58 -301q-5 -22 -5 -50q0 -61 34 -92t94 -31z" />
<glyph unicode="v" horiz-adv-x="516" d="M482 518h66l-306 -518h-68l-106 518h66l87 -451z" />
<glyph unicode="w" horiz-adv-x="778" d="M189 76l220 442h60l48 -442l225 442h68l-276 -518h-62l-49 436l-217 -436h-62l-76 518h68z" />
<glyph unicode="x" horiz-adv-x="486" d="M351 0l-115 223l-201 -223h-71l246 272l-127 246h70l102 -198l178 198h70l-223 -246l142 -272h-71z" />
<glyph unicode="y" horiz-adv-x="506" d="M132 518l94 -432l249 432h63l-421 -730h-62l124 216l-111 514h64z" />
<glyph unicode="z" horiz-adv-x="466" d="M-22 0l9 50l404 416h-306l10 52h383l-10 -50l-403 -416h333l-10 -52h-410z" />
<glyph unicode="{" horiz-adv-x="374" d="M119 -18l39 201q2 16 2 23q0 35 -22 56t-58 21l10 54q42 0 75 27.5t42 72.5l40 201q22 112 134 112h68l-10 -52h-68q-49 0 -60 -54l-42 -215q-19 -96 -112 -119q69 -20 69 -90q0 -14 -3 -29l-42 -215q-2 -14 -2 -19q0 -35 41 -35h68l-10 -52h-68q-95 0 -95 78q0 18 4 34z " />
<glyph unicode="|" horiz-adv-x="280" d="M123 -200v969h54v-969h-54z" />
<glyph unicode="}" horiz-adv-x="374" d="M186 183l-39 -201q-22 -112 -135 -112h-67l9 52h68q50 0 61 54l42 215q19 97 112 119q-69 18 -69 88q0 14 3 31l42 215q2 14 2 18q0 36 -42 36h-68l10 52h68q95 0 95 -80q0 -16 -3 -32l-40 -201q-2 -16 -2 -21q0 -36 22.5 -57.5t58.5 -21.5l-10 -54q-42 0 -75.5 -27.5 t-42.5 -72.5z" />
<glyph unicode="~" horiz-adv-x="618" d="M304 303q-59 45 -108 45q-63 0 -83 -85l-54 9q10 60 46.5 96.5t88.5 36.5q66 0 140 -57q59 -45 108 -45q63 0 83 85l54 -9q-10 -60 -46.5 -96.5t-88.5 -36.5q-66 0 -140 57z" />
<glyph unicode="&#xa1;" horiz-adv-x="264" d="M125 480q4 21 21.5 35.5t38.5 14.5q19 0 30 -11.5t11 -29.5q0 -24 -19 -41.5t-42 -17.5q-18 0 -29.5 11t-11.5 28q0 7 1 11zM54 36l75 313h40l-47 -313l-42 -218h-68z" />
<glyph unicode="&#xa2;" horiz-adv-x="534" d="M195 -98l17 87q-82 7 -129 61t-47 141q0 136 82.5 232.5t198.5 105.5l17 87h48l-17 -87q121 -10 164 -114l-53 -29q-39 79 -122 87l-83 -428q84 7 155 87l43 -29q-83 -104 -209 -114l-17 -87h-48zM105 259q-6 -33 -6 -60q0 -67 32.5 -106.5t91.5 -47.5l83 427 q-76 -9 -129.5 -65.5t-71.5 -147.5z" />
<glyph unicode="&#xa3;" horiz-adv-x="578" d="M422 712q121 0 181 -89l-56 -39q-49 68 -139 68q-146 0 -173 -143l-23 -123h217l-9 -44h-217l-18 -95q-24 -124 -105 -189h425l-11 -58h-501l9 51q93 70 116 184l21 107h-80l9 44h80l23 122q19 101 84.5 152.5t166.5 51.5z" />
<glyph unicode="&#xa4;" horiz-adv-x="707" d="M208 332q0 -69 44 -114.5t111 -45.5t111 45.5t44 114.5t-44 114.5t-111 45.5t-111 -45.5t-44 -114.5zM148 332q0 72 40 127l-89 89l46 47l88 -89q57 44 130 44t130 -44l88 89l46 -47l-89 -89q40 -55 40 -127t-40 -127l89 -89l-46 -47l-88 89q-57 -44 -130 -44t-130 44 l-88 -89l-46 47l89 89q-40 55 -40 127z" />
<glyph unicode="&#xa5;" horiz-adv-x="581" d="M208 0l31 164h-210l9 44h210l15 75h-210l8 44h185l-142 373h72l130 -357l270 357h72l-288 -373h185l-8 -44h-210l-15 -75h210l-9 -44h-210l-31 -164h-64z" />
<glyph unicode="&#xa6;" horiz-adv-x="280" d="M123 220h54v-320h-54v320zM123 688h54v-320h-54v320z" />
<glyph unicode="&#xa7;" horiz-adv-x="461" d="M427 316q-19 -99 -133 -133q86 -33 86 -106q0 -78 -64.5 -127.5t-158.5 -49.5q-116 0 -180 83l49 37q52 -64 143 -64q67 0 107.5 31t40.5 79q0 63 -118 91q-144 35 -144 128q0 57 38.5 100t97.5 61q-86 34 -86 101q0 69 61 117t148 48q103 0 160 -69l-49 -36 q-41 49 -124 49q-55 0 -93.5 -27.5t-38.5 -68.5q0 -29 29.5 -50t91.5 -39q73 -22 106.5 -52t33.5 -74q0 -14 -3 -29zM261 422q-66 -16 -104 -44t-38 -80q0 -63 103 -88q62 5 103 39t41 85q0 34 -26 54.5t-79 33.5z" />
<glyph unicode="&#xa8;" horiz-adv-x="400" d="M135 649q4 19 19 32t34 13q16 0 27 -10.5t11 -26.5q0 -21 -17 -37t-38 -16q-16 0 -26.5 10t-10.5 26q0 6 1 9zM327 649q4 19 19 32t34 13q16 0 27 -10.5t11 -26.5q0 -21 -17 -37t-38 -16q-16 0 -26.5 10t-10.5 26q0 6 1 9z" />
<glyph unicode="&#xa9;" horiz-adv-x="834" d="M228 349q0 -96 55.5 -156.5t146.5 -60.5q111 0 170 96l-39 23q-52 -74 -131 -74q-72 0 -111.5 46.5t-39.5 125.5t39.5 125.5t111.5 46.5q79 0 131 -74l39 23q-59 96 -170 96q-91 0 -146.5 -60.5t-55.5 -156.5zM65 350q0 150 106 256t256 106t256 -106t106 -256t-106 -256 t-256 -106t-256 106t-106 256zM101 350q0 -136 94.5 -232t231.5 -96t231.5 96t94.5 232t-94.5 232t-231.5 96t-231.5 -96t-94.5 -232z" />
<glyph unicode="&#xaa;" horiz-adv-x="430" d="M409 699h53l-71 -366h-53l6 32q-59 -41 -121 -41q-64 0 -97.5 36t-33.5 99q0 108 59 178.5t147 70.5q61 0 105 -41zM355 421l37 190q-15 22 -41.5 36t-54.5 14q-64 0 -106 -54t-42 -136q0 -47 23.5 -73.5t68.5 -26.5q62 0 115 50z" />
<glyph unicode="&#xab;" horiz-adv-x="551" d="M58 300l4 24l249 160l23 -41l-206 -131l155 -131l-39 -41zM260 300l4 24l250 160l23 -41l-206 -131l155 -131l-39 -41z" />
<glyph unicode="&#xac;" horiz-adv-x="618" d="M69 380v57h490v-270h-66v213h-424z" />
<glyph unicode="&#xad;" horiz-adv-x="406" d="M351 301h-280l12 62h280z" />
<glyph unicode="&#xae;" horiz-adv-x="834" d="M582 437q0 -86 -88 -113l108 -183h-55l-102 175q-14 -1 -44 -1h-69v-174h-51v417h145q73 0 114.5 -32t41.5 -89zM531 437q0 78 -109 78h-90v-157h90q109 0 109 79zM65 350q0 150 106 256t256 106t256 -106t106 -256t-106 -256t-256 -106t-256 106t-106 256zM101 350 q0 -136 94.5 -232t231.5 -96t231.5 96t94.5 232t-94.5 232t-231.5 96t-231.5 -96t-94.5 -232z" />
<glyph unicode="&#xaf;" horiz-adv-x="400" d="M127 621l11 54h286l-11 -54h-286z" />
<glyph unicode="&#xb0;" horiz-adv-x="395" d="M208 452q-55 0 -93 38t-38 92t38 92t93 38t93 -38t38 -92t-38 -92t-93 -38zM208 665q-34 0 -57.5 -24t-23.5 -59t23.5 -59t57.5 -24t57.5 24t23.5 59t-23.5 59t-57.5 24z" />
<glyph unicode="&#xb1;" horiz-adv-x="618" d="M565 0h-492v57h492v-57zM286 115v215h-213v57h213v215h66v-215h213v-57h-213v-215h-66z" />
<glyph unicode="&#xb2;" horiz-adv-x="403" d="M268 658q-53 0 -108 -47l-32 33q73 64 153 64q54 0 84 -26t30 -73q0 -89 -104 -189q-88 -84 -157 -133h205l-9 -50h-283l9 47q105 78 194 163q88 84 88 152q0 59 -70 59z" />
<glyph unicode="&#xb3;" horiz-adv-x="403" d="M271 658q-60 0 -108 -47l-33 32q70 65 151 65q53 0 83.5 -25.5t30.5 -69.5q0 -48 -32.5 -86t-79.5 -48q36 -8 57.5 -33t21.5 -61q0 -64 -51 -110t-128 -46q-95 0 -135 73l48 33q29 -56 97 -56q52 0 82.5 31t30.5 72q0 71 -111 71h-38l9 49h38q61 0 97.5 27.5t36.5 71.5 q0 26 -17 41.5t-50 15.5z" />
<glyph unicode="&#xb4;" horiz-adv-x="400" d="M337 739l40 -40l-175 -138l-30 31z" />
<glyph unicode="&#xb5;" horiz-adv-x="580" d="M236 -12q-100 0 -144 61l-51 -261h-60l142 730h60l-78 -403q19 -34 58 -52.5t84 -18.5q46 0 92.5 18.5t78.5 52.5l78 403h60l-100 -518h-60l9 49q-70 -61 -169 -61z" />
<glyph unicode="&#xb6;" horiz-adv-x="561" d="M55 498q0 96 63.5 149t162.5 53h195v-831h-55v775h-52v-775h-57v425h-23q-99 0 -166.5 54t-67.5 150z" />
<glyph unicode="&#xb7;" horiz-adv-x="294" d="M109 323q5 21 22 35.5t38 14.5q18 0 29.5 -11.5t11.5 -28.5q0 -24 -18.5 -42t-41.5 -18q-19 0 -30.5 11.5t-11.5 29.5q0 6 1 9z" />
<glyph unicode="&#xb8;" horiz-adv-x="400" d="M87 -191q33 0 53 16.5t20 41.5q0 47 -84 50l-3 7l52 76h53l-35 -51q73 -15 73 -76q0 -44 -36 -77.5t-101 -33.5q-55 0 -84 34l37 36q21 -23 55 -23z" />
<glyph unicode="&#xb9;" horiz-adv-x="403" d="M266 631l-90 -59l-28 40l138 89h49l-90 -464h-55z" />
<glyph unicode="&#xba;" horiz-adv-x="430" d="M228 326q-67 0 -105.5 40.5t-38.5 106.5q0 97 64.5 166t153.5 69q67 0 105.5 -40.5t38.5 -106.5q0 -97 -64.5 -166t-153.5 -69zM293 661q-62 0 -108 -51.5t-46 -131.5q0 -49 26 -77t72 -28q62 0 108 51.5t46 131.5q0 49 -26 77t-72 28z" />
<glyph unicode="&#xbb;" horiz-adv-x="551" d="M513 324l-4 -24l-248 -160l-24 41l205 131l-154 131l40 41zM310 324l-4 -24l-248 -160l-23 41l205 131l-154 131l39 41z" />
<glyph unicode="&#xbc;" horiz-adv-x="969" d="M266 631l-90 -59l-28 40l138 89h49l-90 -464h-55zM782 102h-224l9 46l288 315h53l-60 -311h56l-10 -50h-56l-19 -102h-56zM835 373l-201 -221h158zM781 689l-519 -702l-40 26l519 702z" />
<glyph unicode="&#xbd;" horiz-adv-x="969" d="M266 631l-90 -59l-28 40l138 89h49l-90 -464h-55zM781 689l-519 -702l-40 26l519 702zM788 421q-53 0 -108 -47l-32 33q73 64 153 64q54 0 84 -26t30 -73q0 -89 -104 -189q-88 -84 -157 -133h205l-9 -50h-283l9 47q105 78 194 163q88 84 88 152q0 59 -70 59z" />
<glyph unicode="&#xbe;" horiz-adv-x="969" d="M781 689l-519 -702l-40 26l519 702zM271 658q-60 0 -108 -47l-33 32q70 65 151 65q53 0 83.5 -25.5t30.5 -69.5q0 -48 -32.5 -86t-79.5 -48q36 -8 57.5 -33t21.5 -61q0 -64 -51 -110t-128 -46q-95 0 -135 73l48 33q29 -56 97 -56q52 0 82.5 31t30.5 72q0 71 -111 71h-38 l9 49h38q61 0 97.5 27.5t36.5 71.5q0 26 -17 41.5t-50 15.5zM782 102h-224l9 46l288 315h53l-60 -311h56l-10 -50h-56l-19 -102h-56zM835 373l-201 -221h158z" />
<glyph unicode="&#xbf;" horiz-adv-x="519" d="M192 -136q90 0 175 80l37 -36q-107 -102 -228 -102q-80 0 -123 34.5t-43 96.5q0 133 162 229q50 30 73 61.5t32 81.5l7 40h64l-8 -43q-11 -62 -41 -104.5t-88 -77.5q-73 -43 -103 -83t-30 -91q0 -41 30 -63.5t84 -22.5zM392 489q0 -23 -18.5 -41t-42.5 -18 q-18 0 -29.5 11t-11.5 28q0 25 18.5 43t42.5 18q19 0 30 -11.5t11 -29.5z" />
<glyph unicode="&#xc0;" horiz-adv-x="666" d="M384 700h70l139 -700h-71l-36 191h-332l-110 -191h-71zM405 632l-220 -383h292zM326 893l56 40l108 -147l-42 -31z" />
<glyph unicode="&#xc1;" horiz-adv-x="666" d="M546 933l40 -40l-176 -138l-30 31zM384 700h70l139 -700h-71l-36 191h-332l-110 -191h-71zM405 632l-220 -383h292z" />
<glyph unicode="&#xc2;" horiz-adv-x="666" d="M440 924h44l106 -145l-41 -30l-98 118l-144 -118l-29 30zM384 700h70l139 -700h-71l-36 191h-332l-110 -191h-71zM405 632l-220 -383h292z" />
<glyph unicode="&#xc3;" horiz-adv-x="666" d="M384 700h70l139 -700h-71l-36 191h-332l-110 -191h-71zM405 632l-220 -383h292zM430 823q-23 26 -49 26q-33 0 -58 -52l-45 8q41 93 113 93q42 0 74 -35q24 -25 48 -25q33 0 58 52l44 -8q-41 -93 -113 -93q-42 0 -72 34z" />
<glyph unicode="&#xc4;" horiz-adv-x="666" d="M305 843q4 19 19.5 32t34.5 13q16 0 26.5 -10t10.5 -26q0 -22 -16.5 -38t-37.5 -16q-17 0 -27.5 10.5t-10.5 26.5q0 5 1 8zM497 843q4 19 19.5 32t34.5 13q16 0 26.5 -10t10.5 -26q0 -22 -16.5 -38t-37.5 -16q-17 0 -27.5 10.5t-10.5 26.5q0 5 1 8zM384 700h70l139 -700 h-71l-36 191h-332l-110 -191h-71zM405 632l-220 -383h292z" />
<glyph unicode="&#xc5;" horiz-adv-x="666" d="M395 843q-1 -4 -1 -10q0 -18 11.5 -30t30.5 -12q25 0 43.5 19t18.5 44q0 18 -11.5 29.5t-30.5 11.5q-22 0 -39 -15t-22 -37zM347 843q8 41 42.5 69t75.5 28q36 0 59 -22t23 -56q0 -46 -36.5 -81t-82.5 -35q-36 0 -59.5 22.5t-23.5 56.5q0 6 2 18zM384 700h70l139 -700 h-71l-36 191h-332l-110 -191h-71zM405 632l-220 -383h292z" />
<glyph unicode="&#xc6;" horiz-adv-x="859" d="M766 0h-380l37 191h-239l-138 -191h-73l513 700h407l-12 -58h-307l-48 -251h270l-12 -58h-270l-53 -275h316zM510 639l-284 -390h208z" />
<glyph unicode="&#xc7;" horiz-adv-x="680" d="M268 -191q33 0 53 16.5t20 41.5q0 47 -84 50l-3 7l43 65q-113 5 -177 77t-64 190q0 192 118 324t281 132q181 0 243 -141l-59 -33q-57 114 -194 114q-128 0 -225 -107.5t-97 -278.5q0 -103 55 -160.5t150 -57.5q135 0 238 114l47 -33q-105 -124 -261 -139l-28 -41 q73 -15 73 -76q0 -44 -36 -77.5t-101 -33.5q-55 0 -84 34l37 36q21 -23 55 -23z" />
<glyph unicode="&#xc8;" horiz-adv-x="561" d="M33 0l136 700h426l-12 -58h-362l-48 -251h325l-12 -58h-325l-53 -275h371l-11 -58h-435zM307 893l56 40l108 -147l-42 -31z" />
<glyph unicode="&#xc9;" horiz-adv-x="561" d="M33 0l136 700h426l-12 -58h-362l-48 -251h325l-12 -58h-325l-53 -275h371l-11 -58h-435zM499 933l40 -40l-176 -138l-30 31z" />
<glyph unicode="&#xca;" horiz-adv-x="561" d="M33 0l136 700h426l-12 -58h-362l-48 -251h325l-12 -58h-325l-53 -275h371l-11 -58h-435zM407 924h44l106 -145l-41 -30l-98 118l-144 -118l-29 30z" />
<glyph unicode="&#xcb;" horiz-adv-x="561" d="M33 0l136 700h426l-12 -58h-362l-48 -251h325l-12 -58h-325l-53 -275h371l-11 -58h-435zM272 843q4 19 19.5 32t34.5 13q16 0 26.5 -10t10.5 -26q0 -22 -16.5 -38t-37.5 -16q-17 0 -27.5 10.5t-10.5 26.5q0 5 1 8zM464 843q4 19 19.5 32t34.5 13q16 0 26.5 -10t10.5 -26 q0 -22 -16.5 -38t-37.5 -16q-17 0 -27.5 10.5t-10.5 26.5q0 5 1 8z" />
<glyph unicode="&#xcc;" horiz-adv-x="240" d="M174 700h64l-136 -700h-64zM85 893l56 40l108 -147l-42 -31z" />
<glyph unicode="&#xcd;" horiz-adv-x="240" d="M174 700h64l-136 -700h-64zM361 933l40 -40l-176 -138l-30 31z" />
<glyph unicode="&#xce;" horiz-adv-x="240" d="M174 700h64l-136 -700h-64zM227 924h44l106 -145l-41 -30l-98 118l-144 -118l-29 30z" />
<glyph unicode="&#xcf;" horiz-adv-x="240" d="M174 700h64l-136 -700h-64zM92 843q4 19 19.5 32t34.5 13q16 0 26.5 -10t10.5 -26q0 -22 -16.5 -38t-37.5 -16q-17 0 -27.5 10.5t-10.5 26.5q0 5 1 8zM284 843q4 19 19.5 32t34.5 13q16 0 26.5 -10t10.5 -26q0 -22 -16.5 -38t-37.5 -16q-17 0 -27.5 10.5t-10.5 26.5 q0 5 1 8z" />
<glyph unicode="&#xd0;" horiz-adv-x="680" d="M22 323l11 53h80l63 324h218q127 0 196 -68t69 -189q0 -43 -9 -93q-32 -163 -136.5 -256.5t-255.5 -93.5h-218l63 323h-81zM115 58h148q140 0 234.5 106.5t94.5 275.5q0 92 -56.5 147t-159.5 55h-148l-52 -266h177l-11 -53h-176z" />
<glyph unicode="&#xd1;" horiz-adv-x="697" d="M33 0l136 700h65l286 -594l116 594h64l-136 -700h-64l-288 594l-115 -594h-64zM445 823q-23 26 -49 26q-33 0 -58 -52l-45 8q41 93 113 93q42 0 74 -35q24 -25 48 -25q33 0 58 52l44 -8q-41 -93 -113 -93q-42 0 -72 34z" />
<glyph unicode="&#xd2;" horiz-adv-x="708" d="M360 893l56 40l108 -147l-42 -31zM678 350q-31 -157 -133.5 -259.5t-243.5 -102.5q-118 0 -181.5 72.5t-63.5 192.5q0 123 50.5 228t139.5 168t196 63q118 0 181.5 -73t63.5 -194q0 -45 -9 -95zM132 350q-10 -53 -10 -89q0 -99 50 -156t141 -57q130 0 219 115.5t89 280.5 q0 94 -50.5 151t-140.5 57q-110 0 -191 -82.5t-107 -219.5z" />
<glyph unicode="&#xd3;" horiz-adv-x="708" d="M553 933l40 -40l-176 -138l-30 31zM678 350q-31 -157 -133.5 -259.5t-243.5 -102.5q-118 0 -181.5 72.5t-63.5 192.5q0 123 50.5 228t139.5 168t196 63q118 0 181.5 -73t63.5 -194q0 -45 -9 -95zM132 350q-10 -53 -10 -89q0 -99 50 -156t141 -57q130 0 219 115.5 t89 280.5q0 94 -50.5 151t-140.5 57q-110 0 -191 -82.5t-107 -219.5z" />
<glyph unicode="&#xd4;" horiz-adv-x="708" d="M461 924h44l106 -145l-41 -30l-98 118l-144 -118l-29 30zM678 350q-31 -157 -133.5 -259.5t-243.5 -102.5q-118 0 -181.5 72.5t-63.5 192.5q0 123 50.5 228t139.5 168t196 63q118 0 181.5 -73t63.5 -194q0 -45 -9 -95zM132 350q-10 -53 -10 -89q0 -99 50 -156t141 -57 q130 0 219 115.5t89 280.5q0 94 -50.5 151t-140.5 57q-110 0 -191 -82.5t-107 -219.5z" />
<glyph unicode="&#xd5;" horiz-adv-x="708" d="M678 350q-31 -157 -133.5 -259.5t-243.5 -102.5q-118 0 -181.5 72.5t-63.5 192.5q0 123 50.5 228t139.5 168t196 63q118 0 181.5 -73t63.5 -194q0 -45 -9 -95zM132 350q-10 -53 -10 -89q0 -99 50 -156t141 -57q130 0 219 115.5t89 280.5q0 94 -50.5 151t-140.5 57 q-110 0 -191 -82.5t-107 -219.5zM451 823q-23 26 -49 26q-33 0 -58 -52l-45 8q41 93 113 93q42 0 74 -35q24 -25 48 -25q33 0 58 52l44 -8q-41 -93 -113 -93q-42 0 -72 34z" />
<glyph unicode="&#xd6;" horiz-adv-x="708" d="M326 843q4 19 19.5 32t34.5 13q16 0 26.5 -10t10.5 -26q0 -22 -16.5 -38t-37.5 -16q-17 0 -27.5 10.5t-10.5 26.5q0 5 1 8zM518 843q4 19 19.5 32t34.5 13q16 0 26.5 -10t10.5 -26q0 -22 -16.5 -38t-37.5 -16q-17 0 -27.5 10.5t-10.5 26.5q0 5 1 8zM678 350 q-31 -157 -133.5 -259.5t-243.5 -102.5q-118 0 -181.5 72.5t-63.5 192.5q0 123 50.5 228t139.5 168t196 63q118 0 181.5 -73t63.5 -194q0 -45 -9 -95zM132 350q-10 -53 -10 -89q0 -99 50 -156t141 -57q130 0 219 115.5t89 280.5q0 94 -50.5 151t-140.5 57q-110 0 -191 -82.5 t-107 -219.5z" />
<glyph unicode="&#xd7;" horiz-adv-x="618" d="M364 332l164 -163l-44 -45l-165 164l-165 -164l-44 45l164 163l-164 164l44 45l165 -164l165 164l44 -45z" />
<glyph unicode="&#xd8;" horiz-adv-x="708" d="M19 -7l82 91q-45 68 -45 168q0 188 112 324t274 136q106 0 169 -60l77 85l37 -29l-83 -93q45 -67 45 -171q0 -122 -51 -227t-140 -167t-195 -62t-169 61l-76 -85zM612 350q8 40 8 86q0 74 -26 126l-417 -463q49 -51 136 -51q110 0 191 82.5t108 219.5zM132 350 q-10 -55 -10 -91q0 -71 27 -121l416 463q-49 51 -135 51q-110 0 -191 -82.5t-107 -219.5z" />
<glyph unicode="&#xd9;" horiz-adv-x="708" d="M313 48q101 0 165 57.5t86 169.5l83 425h64l-84 -429q-28 -139 -116 -211t-210 -72q-104 0 -164 52.5t-60 153.5q0 32 8 77l84 429h64l-83 -425q-7 -35 -7 -70q0 -157 170 -157zM330 893l56 40l108 -147l-42 -31z" />
<glyph unicode="&#xda;" horiz-adv-x="708" d="M313 48q-170 0 -170 157q0 35 7 70l83 425h-64l-84 -429q-8 -45 -8 -77q0 -101 60 -153.5t164 -52.5q122 0 210 72t116 211l84 429h-64l-83 -425q-22 -112 -86 -169.5t-165 -57.5zM584 933l40 -40l-176 -138l-30 31z" />
<glyph unicode="&#xdb;" horiz-adv-x="708" d="M313 48q-170 0 -170 157q0 35 7 70l83 425h-64l-84 -429q-8 -45 -8 -77q0 -101 60 -153.5t164 -52.5q122 0 210 72t116 211l84 429h-64l-83 -425q-22 -112 -86 -169.5t-165 -57.5zM461 924h44l106 -145l-41 -30l-98 118l-144 -118l-29 30z" />
<glyph unicode="&#xdc;" horiz-adv-x="708" d="M313 48q-170 0 -170 157q0 35 7 70l83 425h-64l-84 -429q-8 -45 -8 -77q0 -101 60 -153.5t164 -52.5q122 0 210 72t116 211l84 429h-64l-83 -425q-22 -112 -86 -169.5t-165 -57.5zM326 843q4 19 19.5 32t34.5 13q16 0 26.5 -10t10.5 -26q0 -22 -16.5 -38t-37.5 -16 q-17 0 -27.5 10.5t-10.5 26.5q0 5 1 8zM518 843q4 19 19.5 32t34.5 13q16 0 26.5 -10t10.5 -26q0 -22 -16.5 -38t-37.5 -16q-17 0 -27.5 10.5t-10.5 26.5q0 5 1 8z" />
<glyph unicode="&#xdd;" horiz-adv-x="590" d="M213 0l54 278l-163 422h72l136 -354l274 354h72l-327 -422l-54 -278h-64zM529 933l40 -40l-176 -138l-30 31z" />
<glyph unicode="&#xde;" horiz-adv-x="583" d="M169 700h64l-26 -131h138q108 0 165.5 -41.5t57.5 -121.5q0 -126 -84.5 -195.5t-221.5 -69.5h-138l-27 -141h-64zM196 511l-61 -312h132q108 0 171 49t63 145q0 118 -173 118h-132z" />
<glyph unicode="&#xdf;" horiz-adv-x="564" d="M156 20l39 56q37 -28 85 -28q75 0 124 47t49 125q0 61 -48 94t-128 34l11 58q77 0 123.5 43.5t46.5 112.5q0 41 -28 65.5t-79 24.5q-136 0 -172 -189l-89 -463h-64l93 479q22 113 84.5 173t161.5 60q73 0 116.5 -40t43.5 -103q0 -70 -40.5 -119.5t-106.5 -70.5 q65 -13 103.5 -50.5t38.5 -99.5q0 -111 -71.5 -176t-174.5 -65q-70 0 -118 32z" />
<glyph unicode="&#xe0;" d="M393 0l11 60q-93 -72 -187 -72q-87 0 -132.5 48.5t-45.5 137.5q0 159 82 257.5t202 98.5q94 0 159 -72l11 60h60l-100 -518h-60zM110 259q-8 -43 -8 -75q0 -140 137 -140q43 0 92 22t85 56l53 274q-23 34 -63 56t-83 22q-86 0 -139.5 -55.5t-73.5 -159.5zM271 719l56 40 l108 -147l-42 -31z" />
<glyph unicode="&#xe1;" d="M404 60l-11 -60h60l100 518h-60l-11 -60q-65 72 -159 72q-120 0 -202 -98.5t-82 -257.5q0 -89 45.5 -137.5t132.5 -48.5q94 0 187 72zM110 259q20 104 73.5 159.5t139.5 55.5q43 0 83 -22t63 -56l-53 -274q-36 -34 -85 -56t-92 -22q-137 0 -137 140q0 32 8 75zM455 759 l40 -40l-176 -138l-30 31z" />
<glyph unicode="&#xe2;" d="M404 60l-11 -60h60l100 518h-60l-11 -60q-65 72 -159 72q-120 0 -202 -98.5t-82 -257.5q0 -89 45.5 -137.5t132.5 -48.5q94 0 187 72zM110 259q20 104 73.5 159.5t139.5 55.5q43 0 83 -22t63 -56l-53 -274q-36 -34 -85 -56t-92 -22q-137 0 -137 140q0 32 8 75zM366 750 h44l106 -145l-41 -30l-98 118l-144 -118l-29 30z" />
<glyph unicode="&#xe3;" d="M404 60l-11 -60h60l100 518h-60l-11 -60q-65 72 -159 72q-120 0 -202 -98.5t-82 -257.5q0 -89 45.5 -137.5t132.5 -48.5q94 0 187 72zM110 259q20 104 73.5 159.5t139.5 55.5q43 0 83 -22t63 -56l-53 -274q-36 -34 -85 -56t-92 -22q-137 0 -137 140q0 32 8 75zM356 649 q-23 26 -49 26q-33 0 -58 -52l-45 8q41 93 113 93q42 0 74 -35q24 -25 48 -25q33 0 58 52l44 -8q-41 -93 -113 -93q-42 0 -72 34z" />
<glyph unicode="&#xe4;" d="M404 60l-11 -60h60l100 518h-60l-11 -60q-65 72 -159 72q-120 0 -202 -98.5t-82 -257.5q0 -89 45.5 -137.5t132.5 -48.5q94 0 187 72zM110 259q20 104 73.5 159.5t139.5 55.5q43 0 83 -22t63 -56l-53 -274q-36 -34 -85 -56t-92 -22q-137 0 -137 140q0 32 8 75zM232 669 q3 19 18.5 32t34.5 13q16 0 26.5 -10.5t10.5 -27.5q0 -21 -16.5 -36.5t-37.5 -15.5q-16 0 -26.5 10t-10.5 26q0 6 1 9zM424 669q3 19 18.5 32t34.5 13q16 0 26.5 -10.5t10.5 -27.5q0 -21 -16.5 -36.5t-37.5 -15.5q-16 0 -26.5 10t-10.5 26q0 6 1 9z" />
<glyph unicode="&#xe5;" d="M404 60l-11 -60h60l100 518h-60l-11 -60q-65 72 -159 72q-120 0 -202 -98.5t-82 -257.5q0 -89 45.5 -137.5t132.5 -48.5q94 0 187 72zM110 259q20 104 73.5 159.5t139.5 55.5q43 0 83 -22t63 -56l-53 -274q-36 -34 -85 -56t-92 -22q-137 0 -137 140q0 32 8 75zM322 669 q-1 -4 -1 -11q0 -18 11 -29.5t30 -11.5q24 0 43.5 18.5t19.5 43.5q0 18 -11.5 30t-30.5 12q-22 0 -39.5 -15t-21.5 -37zM274 669q7 40 41.5 68.5t75.5 28.5q36 0 59.5 -22.5t23.5 -56.5q0 -46 -37 -80.5t-83 -34.5q-36 0 -59 22t-23 56q0 5 2 19z" />
<glyph unicode="&#xe6;" horiz-adv-x="915" d="M623 44q93 0 167 74l40 -33q-94 -97 -216 -97q-74 0 -125 32.5t-72 90.5q-38 -58 -99.5 -90.5t-129.5 -32.5q-79 0 -124.5 37.5t-45.5 97.5q0 83 68 140t167 57q92 0 157 -58l15 76q4 20 4 42q0 94 -125 94q-83 0 -163 -56l-30 41q98 71 211 71q149 0 167 -107 q91 107 240 107q81 0 128.5 -36.5t47.5 -95.5q0 -89 -70.5 -138.5t-180.5 -49.5t-181 48l-2 -6q-5 -28 -5 -50q0 -70 41 -114t116 -44zM715 476q-80 0 -139.5 -46t-88.5 -124q79 -42 173 -42q83 0 132 33.5t49 89.5q0 40 -33 64.5t-93 24.5zM396 187l3 17q-55 60 -150 60 q-72 0 -120 -35t-48 -96q0 -43 32.5 -66t87.5 -23q65 0 125 42.5t70 100.5z" />
<glyph unicode="&#xe7;" horiz-adv-x="534" d="M187 -191q33 0 53 16.5t20 41.5q0 47 -84 50l-3 7l43 65q-84 5 -132 59.5t-48 142.5q0 143 90.5 241t213.5 98q141 0 189 -115l-53 -29q-44 88 -143 88q-96 0 -165 -77t-69 -198q0 -73 40 -114t110 -41q100 0 177 88l43 -29q-80 -99 -198 -112l-28 -42q73 -15 73 -76 q0 -44 -36 -77.5t-101 -33.5q-55 0 -84 34l37 36q21 -23 55 -23z" />
<glyph unicode="&#xe8;" horiz-adv-x="548" d="M256 44q93 0 167 74l40 -33q-94 -97 -216 -97q-100 0 -155.5 56.5t-55.5 151.5q0 136 92.5 235t233.5 99q81 0 128.5 -36.5t47.5 -95.5q0 -89 -70.5 -138.5t-180.5 -49.5t-181 48l-2 -6q-5 -28 -5 -50q0 -70 41 -114t116 -44zM348 476q-80 0 -139.5 -46t-88.5 -124 q79 -42 173 -42q83 0 132 33.5t49 89.5q0 40 -33 64.5t-93 24.5zM259 719l56 40l108 -147l-42 -31z" />
<glyph unicode="&#xe9;" horiz-adv-x="548" d="M256 44q93 0 167 74l40 -33q-94 -97 -216 -97q-100 0 -155.5 56.5t-55.5 151.5q0 136 92.5 235t233.5 99q81 0 128.5 -36.5t47.5 -95.5q0 -89 -70.5 -138.5t-180.5 -49.5t-181 48l-2 -6q-5 -28 -5 -50q0 -70 41 -114t116 -44zM348 476q-80 0 -139.5 -46t-88.5 -124 q79 -42 173 -42q83 0 132 33.5t49 89.5q0 40 -33 64.5t-93 24.5zM448 759l40 -40l-176 -138l-30 31z" />
<glyph unicode="&#xea;" horiz-adv-x="548" d="M256 44q93 0 167 74l40 -33q-94 -97 -216 -97q-100 0 -155.5 56.5t-55.5 151.5q0 136 92.5 235t233.5 99q81 0 128.5 -36.5t47.5 -95.5q0 -89 -70.5 -138.5t-180.5 -49.5t-181 48l-2 -6q-5 -28 -5 -50q0 -70 41 -114t116 -44zM348 476q-80 0 -139.5 -46t-88.5 -124 q79 -42 173 -42q83 0 132 33.5t49 89.5q0 40 -33 64.5t-93 24.5zM357 750h44l106 -145l-41 -30l-98 118l-144 -118l-29 30z" />
<glyph unicode="&#xeb;" horiz-adv-x="548" d="M256 44q93 0 167 74l40 -33q-94 -97 -216 -97q-100 0 -155.5 56.5t-55.5 151.5q0 136 92.5 235t233.5 99q81 0 128.5 -36.5t47.5 -95.5q0 -89 -70.5 -138.5t-180.5 -49.5t-181 48l-2 -6q-5 -28 -5 -50q0 -70 41 -114t116 -44zM348 476q-80 0 -139.5 -46t-88.5 -124 q79 -42 173 -42q83 0 132 33.5t49 89.5q0 40 -33 64.5t-93 24.5zM223 669q3 19 18.5 32t34.5 13q16 0 26.5 -10.5t10.5 -27.5q0 -21 -16.5 -36.5t-37.5 -15.5q-16 0 -26.5 10t-10.5 26q0 6 1 9zM415 669q3 19 18.5 32t34.5 13q16 0 26.5 -10.5t10.5 -27.5q0 -21 -16.5 -36.5 t-37.5 -15.5q-16 0 -26.5 10t-10.5 26q0 6 1 9z" />
<glyph unicode="&#xec;" horiz-adv-x="220" d="M30 0l100 518h60l-100 -518h-60zM42 719l56 40l108 -147l-42 -31z" />
<glyph unicode="&#xed;" horiz-adv-x="220" d="M30 0l100 518h60l-100 -518h-60zM316 759l40 -40l-176 -138l-30 31z" />
<glyph unicode="&#xee;" horiz-adv-x="220" d="M30 0l100 518h60l-100 -518h-60zM183 750h44l106 -145l-41 -30l-98 118l-144 -118l-29 30z" />
<glyph unicode="&#xef;" horiz-adv-x="220" d="M30 0l100 518h60l-100 -518h-60zM49 669q3 19 18.5 32t34.5 13q16 0 26.5 -10.5t10.5 -27.5q0 -21 -16.5 -36.5t-37.5 -15.5q-16 0 -26.5 10t-10.5 26q0 6 1 9zM241 669q3 19 18.5 32t34.5 13q16 0 26.5 -10.5t10.5 -27.5q0 -21 -16.5 -36.5t-37.5 -15.5q-16 0 -26.5 10 t-10.5 26q0 6 1 9z" />
<glyph unicode="&#xf0;" horiz-adv-x="558" d="M459 426q0 99 -54 163l-176 -50l-7 47l142 41q-44 31 -108 47l14 56q109 -28 166 -83l169 49l7 -47l-141 -41q51 -72 51 -178q0 -46 -11 -106q-31 -158 -108.5 -247t-193.5 -89q-80 0 -127 48t-47 135q0 148 81.5 236.5t194.5 88.5q95 0 148 -70zM300 440q-82 0 -142 -71 t-60 -188q0 -64 32 -100.5t90 -36.5q83 0 142.5 69.5t87.5 211.5q2 11 4 29q-51 86 -154 86z" />
<glyph unicode="&#xf1;" horiz-adv-x="575" d="M377 530q72 0 111 -35t39 -102q0 -29 -5 -53l-66 -340h-60l63 325q5 30 5 49q0 100 -111 100q-48 0 -103 -26.5t-93 -63.5l-74 -384h-60l100 518h60l-14 -71q103 83 208 83zM351 649q-23 26 -49 26q-33 0 -58 -52l-45 8q41 93 113 93q42 0 74 -35q24 -25 48 -25 q33 0 58 52l44 -8q-41 -93 -113 -93q-42 0 -72 34z" />
<glyph unicode="&#xf2;" d="M471 259q6 31 6 59q0 73 -39 114.5t-108 41.5q-95 0 -163 -77.5t-68 -197.5q0 -72 39 -113.5t108 -41.5q83 0 144.5 58.5t80.5 156.5zM533 259q-23 -119 -106 -195t-192 -76q-93 0 -146 55.5t-53 148.5q0 141 90.5 239.5t214.5 98.5q92 0 145 -56t53 -149q0 -31 -6 -66z M258 719l56 40l108 -147l-42 -31z" />
<glyph unicode="&#xf3;" d="M471 259q-19 -98 -80.5 -156.5t-144.5 -58.5q-69 0 -108 41.5t-39 113.5q0 120 68 197.5t163 77.5q69 0 108 -41.5t39 -114.5q0 -28 -6 -59zM533 259q6 35 6 66q0 93 -53 149t-145 56q-124 0 -214.5 -98.5t-90.5 -239.5q0 -93 53 -148.5t146 -55.5q109 0 192 76t106 195z M455 759l40 -40l-176 -138l-30 31z" />
<glyph unicode="&#xf4;" d="M471 259q-19 -98 -80.5 -156.5t-144.5 -58.5q-69 0 -108 41.5t-39 113.5q0 120 68 197.5t163 77.5q69 0 108 -41.5t39 -114.5q0 -28 -6 -59zM533 259q6 35 6 66q0 93 -53 149t-145 56q-124 0 -214.5 -98.5t-90.5 -239.5q0 -93 53 -148.5t146 -55.5q109 0 192 76t106 195z M361 750h44l106 -145l-41 -30l-98 118l-144 -118l-29 30z" />
<glyph unicode="&#xf5;" d="M471 259q-19 -98 -80.5 -156.5t-144.5 -58.5q-69 0 -108 41.5t-39 113.5q0 120 68 197.5t163 77.5q69 0 108 -41.5t39 -114.5q0 -28 -6 -59zM533 259q6 35 6 66q0 93 -53 149t-145 56q-124 0 -214.5 -98.5t-90.5 -239.5q0 -93 53 -148.5t146 -55.5q109 0 192 76t106 195z M351 649q-23 26 -49 26q-33 0 -58 -52l-45 8q41 93 113 93q42 0 74 -35q24 -25 48 -25q33 0 58 52l44 -8q-41 -93 -113 -93q-42 0 -72 34z" />
<glyph unicode="&#xf6;" d="M471 259q-19 -98 -80.5 -156.5t-144.5 -58.5q-69 0 -108 41.5t-39 113.5q0 120 68 197.5t163 77.5q69 0 108 -41.5t39 -114.5q0 -28 -6 -59zM533 259q6 35 6 66q0 93 -53 149t-145 56q-124 0 -214.5 -98.5t-90.5 -239.5q0 -93 53 -148.5t146 -55.5q109 0 192 76t106 195z M227 669q3 19 18.5 32t34.5 13q16 0 26.5 -10.5t10.5 -27.5q0 -21 -16.5 -36.5t-37.5 -15.5q-16 0 -26.5 10t-10.5 26q0 6 1 9zM419 669q3 19 18.5 32t34.5 13q16 0 26.5 -10.5t10.5 -27.5q0 -21 -16.5 -36.5t-37.5 -15.5q-16 0 -26.5 10t-10.5 26q0 6 1 9z" />
<glyph unicode="&#xf7;" horiz-adv-x="618" d="M269 531q0 21 14.5 35.5t35.5 14.5t35.5 -14.5t14.5 -35.5t-14.5 -35.5t-35.5 -14.5t-35.5 14.5t-14.5 35.5zM73 303h492v57h-492v-57zM269 132q0 -21 14.5 -35.5t35.5 -14.5t35.5 14.5t14.5 35.5t-14.5 35.5t-35.5 14.5t-35.5 -14.5t-14.5 -35.5z" />
<glyph unicode="&#xf8;" d="M466 491l62 69l37 -29l-66 -73q40 -54 40 -135q0 -139 -90.5 -237t-213.5 -98q-76 0 -125 38l-62 -68l-36 29l65 72q-41 52 -41 133q0 141 90.5 239.5t214.5 98.5q75 0 125 -39zM330 474q-95 0 -163 -78t-68 -200q0 -53 21 -89l304 337q-39 30 -94 30zM471 259q6 31 6 59 q0 53 -22 92l-303 -337q35 -29 94 -29q83 0 144.5 58.5t80.5 156.5z" />
<glyph unicode="&#xf9;" horiz-adv-x="570" d="M243 44q72 0 123 44t68 129l58 301h60l-59 -306q-22 -111 -91.5 -167.5t-169.5 -56.5q-85 0 -132.5 40.5t-47.5 120.5q0 31 7 63l59 306h60l-58 -301q-5 -22 -5 -50q0 -61 34 -92t94 -31zM241 719l56 40l108 -147l-42 -31z" />
<glyph unicode="&#xfa;" horiz-adv-x="570" d="M243 44q-60 0 -94 31t-34 92q0 27 5 50l58 301h-60l-59 -306q-7 -32 -7 -63q0 -80 47.5 -120.5t132.5 -40.5q100 0 169.5 56.5t91.5 167.5l59 306h-60l-58 -301q-17 -85 -68 -129t-123 -44zM467 759l40 -40l-176 -138l-30 31z" />
<glyph unicode="&#xfb;" horiz-adv-x="570" d="M243 44q-60 0 -94 31t-34 92q0 27 5 50l58 301h-60l-59 -306q-7 -32 -7 -63q0 -80 47.5 -120.5t132.5 -40.5q100 0 169.5 56.5t91.5 167.5l59 306h-60l-58 -301q-17 -85 -68 -129t-123 -44zM358 750h44l106 -145l-41 -30l-98 118l-144 -118l-29 30z" />
<glyph unicode="&#xfc;" horiz-adv-x="570" d="M243 44q-60 0 -94 31t-34 92q0 27 5 50l58 301h-60l-59 -306q-7 -32 -7 -63q0 -80 47.5 -120.5t132.5 -40.5q100 0 169.5 56.5t91.5 167.5l59 306h-60l-58 -301q-17 -85 -68 -129t-123 -44zM224 669q3 19 18.5 32t34.5 13q16 0 26.5 -10.5t10.5 -27.5q0 -21 -16.5 -36.5 t-37.5 -15.5q-16 0 -26.5 10t-10.5 26q0 6 1 9zM416 669q3 19 18.5 32t34.5 13q16 0 26.5 -10.5t10.5 -27.5q0 -21 -16.5 -36.5t-37.5 -15.5q-16 0 -26.5 10t-10.5 26q0 6 1 9z" />
<glyph unicode="&#xfd;" horiz-adv-x="506" d="M132 518l94 -432l249 432h63l-421 -730h-62l124 216l-111 514h64zM434 759l40 -40l-176 -138l-30 31z" />
<glyph unicode="&#xfe;" d="M224 730l-52 -272q89 72 187 72q87 0 132.5 -49t45.5 -138q0 -159 -81.5 -257t-202.5 -98q-97 0 -159 72l-53 -272h-60l183 942h60zM466 259q8 43 8 74q0 141 -137 141q-43 0 -92 -20.5t-85 -53.5l-55 -282q23 -33 64 -53.5t84 -20.5q171 0 213 215z" />
<glyph unicode="&#xff;" horiz-adv-x="506" d="M132 518l94 -432l249 432h63l-421 -730h-62l124 216l-111 514h64zM192 669q3 19 18.5 32t34.5 13q16 0 26.5 -10.5t10.5 -27.5q0 -21 -16.5 -36.5t-37.5 -15.5q-16 0 -26.5 10t-10.5 26q0 6 1 9zM384 669q3 19 18.5 32t34.5 13q16 0 26.5 -10.5t10.5 -27.5 q0 -21 -16.5 -36.5t-37.5 -15.5q-16 0 -26.5 10t-10.5 26q0 6 1 9z" />
<glyph unicode="&#x152;" horiz-adv-x="829" d="M736 0h-405q-128 0 -201 69.5t-73 191.5q0 129 57 230.5t150 155t203 53.5h396l-12 -58h-307l-48 -251h270l-12 -58h-270l-53 -275h316zM367 58l113 584h-25q-64 0 -123 -25t-106 -70.5t-75 -117.5t-28 -160q0 -102 59 -156.5t160 -54.5h25z" />
<glyph unicode="&#x153;" horiz-adv-x="976" d="M469 249l2 12q6 30 6 58q0 72 -39 113.5t-108 41.5q-95 0 -163 -77.5t-68 -197.5q0 -72 39 -113.5t108 -41.5q81 0 141.5 55.5t81.5 149.5zM675 -12q-78 0 -129.5 35.5t-70.5 98.5q-43 -63 -105 -98.5t-135 -35.5q-93 0 -146 55.5t-53 148.5q0 141 90.5 239.5t214.5 98.5 q73 0 122.5 -35.5t66.5 -98.5q43 63 110 98.5t150 35.5q81 0 128.5 -36.5t47.5 -95.5q0 -89 -70.5 -138.5t-180.5 -49.5t-181 48l-2 -6q-5 -28 -5 -50q0 -70 41 -114t116 -44q93 0 167 74l40 -33q-94 -97 -216 -97zM776 476q-80 0 -139.5 -46t-88.5 -124q79 -42 173 -42 q83 0 132 33.5t49 89.5q0 40 -33 64.5t-93 24.5z" />
<glyph unicode="&#x178;" horiz-adv-x="590" d="M213 0l54 278l-163 422h72l136 -354l274 354h72l-327 -422l-54 -278h-64zM267 843q4 19 19.5 32t34.5 13q16 0 26.5 -10t10.5 -26q0 -22 -16.5 -38t-37.5 -16q-17 0 -27.5 10.5t-10.5 26.5q0 5 1 8zM459 843q4 19 19.5 32t34.5 13q16 0 26.5 -10t10.5 -26 q0 -22 -16.5 -38t-37.5 -16q-17 0 -27.5 10.5t-10.5 26.5q0 5 1 8z" />
<glyph unicode="&#x2c6;" horiz-adv-x="400" d="M269 730h44l106 -145l-41 -30l-98 118l-144 -118l-29 30z" />
<glyph unicode="&#x2dc;" horiz-adv-x="400" d="M259 630q-23 26 -49 26q-33 0 -58 -52l-45 8q41 93 113 93q42 0 74 -35q24 -25 48 -25q33 0 58 52l44 -8q-41 -93 -113 -93q-42 0 -72 34z" />
<glyph unicode="&#x2000;" horiz-adv-x="470" />
<glyph unicode="&#x2001;" horiz-adv-x="940" />
<glyph unicode="&#x2002;" horiz-adv-x="470" />
<glyph unicode="&#x2003;" horiz-adv-x="940" />
<glyph unicode="&#x2004;" horiz-adv-x="313" />
<glyph unicode="&#x2005;" horiz-adv-x="235" />
<glyph unicode="&#x2006;" horiz-adv-x="156" />
<glyph unicode="&#x2007;" horiz-adv-x="156" />
<glyph unicode="&#x2008;" horiz-adv-x="117" />
<glyph unicode="&#x2009;" horiz-adv-x="188" />
<glyph unicode="&#x200a;" horiz-adv-x="52" />
<glyph unicode="&#x2010;" horiz-adv-x="406" d="M351 301h-280l12 62h280z" />
<glyph unicode="&#x2011;" horiz-adv-x="406" d="M351 301h-280l12 62h280z" />
<glyph unicode="&#x2012;" horiz-adv-x="406" d="M351 301h-280l12 62h280z" />
<glyph unicode="&#x2013;" horiz-adv-x="500" d="M508 303h-500l11 57h500z" />
<glyph unicode="&#x2014;" horiz-adv-x="1000" d="M1008 303h-1000l11 57h1000z" />
<glyph unicode="&#x2018;" horiz-adv-x="294" d="M216 519l-65 23l134 228l48 -17z" />
<glyph unicode="&#x2019;" horiz-adv-x="294" d="M227 769l66 -23l-135 -228l-48 17z" />
<glyph unicode="&#x201a;" horiz-adv-x="294" d="M96 95l65 -23l-134 -228l-48 17z" />
<glyph unicode="&#x201c;" horiz-adv-x="447" d="M369 519l-65 23l134 228l48 -17zM216 519l-65 23l134 228l48 -17z" />
<glyph unicode="&#x201d;" horiz-adv-x="447" d="M380 769l66 -23l-135 -228l-48 17zM227 769l66 -23l-135 -228l-48 17z" />
<glyph unicode="&#x201e;" horiz-adv-x="447" d="M249 95l65 -23l-134 -228l-48 17zM96 95l65 -23l-134 -228l-48 17z" />
<glyph unicode="&#x2022;" horiz-adv-x="430" d="M225 212q-50 0 -85 35t-35 84q0 50 35 85t85 35t85 -35t35 -85q0 -49 -35 -84t-85 -35z" />
<glyph unicode="&#x2026;" horiz-adv-x="882" d="M54 38q4 21 21.5 35.5t38.5 14.5q19 0 30 -11.5t11 -29.5q0 -24 -19 -41.5t-42 -17.5q-18 0 -29.5 11t-11.5 28q0 7 1 11zM642 38q4 21 21.5 35.5t38.5 14.5q19 0 30 -11.5t11 -29.5q0 -24 -19 -41.5t-42 -17.5q-18 0 -29.5 11t-11.5 28q0 7 1 11zM348 38q4 21 21.5 35.5 t38.5 14.5q19 0 30 -11.5t11 -29.5q0 -24 -19 -41.5t-42 -17.5q-18 0 -29.5 11t-11.5 28q0 7 1 11z" />
<glyph unicode="&#x202f;" horiz-adv-x="188" />
<glyph unicode="&#x2039;" horiz-adv-x="348" d="M58 300l4 24l249 160l23 -41l-206 -131l155 -131l-39 -41z" />
<glyph unicode="&#x203a;" horiz-adv-x="348" d="M310 324l-4 -24l-248 -160l-23 41l205 131l-154 131l39 41z" />
<glyph unicode="&#x205f;" horiz-adv-x="235" />
<glyph unicode="&#x20ac;" horiz-adv-x="707" d="M475 389h-307q-14 -61 -15 -80h284l-23 -44h-264q0 -102 55 -159.5t150 -57.5q135 0 238 114l47 -33q-117 -141 -299 -141q-124 0 -191 75t-67 202h-62l9 44h56q2 29 15 80h-56l9 44h62q46 127 144 203t222 76q181 0 243 -141l-59 -33q-57 114 -194 114q-95 0 -173 -58 t-117 -161h315z" />
<glyph unicode="&#x2122;" horiz-adv-x="658" d="M124 379v282h-101v39h247v-39h-100v-282h-46zM437 436l-92 170v-228h-46v322h41l115 -213l115 213h41v-322h-46v228l-92 -170h-36z" />
<glyph unicode="&#x25fc;" horiz-adv-x="520" d="M0 520h520v-520h-520v520z" />
</font>
</defs>
</svg>
