<?xml version="1.0" standalone="no"?>
<!DOCTYPE svg PUBLIC "-//W3C//DTD SVG 1.1//EN" "http://www.w3.org/Graphics/SVG/1.1/DTD/svg11.dtd" >
<svg xmlns="http://www.w3.org/2000/svg" xmlns:xlink="http://www.w3.org/1999/xlink" version="1.1">
<metadata></metadata>
<defs>
<font id="core_sans_a_85_heavyitalic" horiz-adv-x="678" >
<font-face units-per-em="1000" ascent="800" descent="-200" />
<missing-glyph horiz-adv-x="300" />
<glyph unicode="&#xfb01;" horiz-adv-x="763" d="M428 0l69 356h-160l-111 -568h-220l111 568h-85l31 162h85l4 18q19 100 83 147t180 47q64 0 93 -4l-30 -151q-9 1 -38 1q-61 0 -69 -46l-3 -12h380l-100 -518h-220zM545 671q10 50 51.5 81.5t93.5 31.5q46 0 74.5 -25t28.5 -66q0 -58 -44.5 -96.5t-102.5 -38.5 q-46 0 -74.5 24.5t-28.5 65.5q0 15 2 23z" />
<glyph unicode="&#xfb02;" horiz-adv-x="762" d="M428 0l110 567q-39 9 -98 9q-61 0 -69 -46l-3 -12h114l-31 -162h-114l-111 -568h-220l111 568h-85l31 162h85l4 18q20 102 78 148t170 46q87 0 165 -25l4 25h220l-141 -730h-220z" />
<glyph unicode="&#xfb03;" horiz-adv-x="1143" d="M808 0l69 356h-160l-111 -568h-220l111 568h-160l-111 -568h-220l111 568h-85l31 162h85l4 18q19 100 83 147t180 47q74 0 117 -7l-29 -149q-16 2 -53 2q-39 0 -56.5 -10.5t-22.5 -35.5l-3 -12h160l4 18q19 100 83 147t180 47q64 0 93 -4l-30 -151q-9 1 -38 1 q-61 0 -69 -46l-3 -12h380l-100 -518h-220zM925 671q10 50 51.5 81.5t93.5 31.5q46 0 74.5 -25t28.5 -66q0 -58 -44.5 -96.5t-102.5 -38.5q-46 0 -74.5 24.5t-28.5 65.5q0 15 2 23z" />
<glyph unicode="&#xfb04;" horiz-adv-x="1142" d="M808 0l110 567q-39 9 -98 9q-61 0 -69 -46l-3 -12h114l-31 -162h-114l-111 -568h-220l111 568h-160l-111 -568h-220l111 568h-85l31 162h85l4 18q19 100 83 147t180 47q74 0 117 -7l-29 -149q-16 2 -53 2q-39 0 -56.5 -10.5t-22.5 -35.5l-3 -12h160l4 18q20 102 78 148 t170 46q87 0 165 -25l4 25h220l-141 -730h-220z" />
<glyph horiz-adv-x="333" />
<glyph horiz-adv-x="0" />
<glyph horiz-adv-x="0" />
<glyph unicode="&#xd;" horiz-adv-x="237" />
<glyph unicode=" "  horiz-adv-x="300" />
<glyph unicode="&#x09;" horiz-adv-x="300" />
<glyph unicode="&#xa0;" horiz-adv-x="300" />
<glyph unicode="!" horiz-adv-x="368" d="M86 222l39 319l31 159h228l-31 -159l-85 -319h-182zM131 -12q-47 0 -72.5 19.5t-25.5 54.5q0 53 38 85t97 32q47 0 73 -20t26 -56q0 -53 -38.5 -84t-97.5 -31z" />
<glyph unicode="&#x22;" horiz-adv-x="587" d="M130 406l42 294h176l-8 -38l-78 -256h-132zM369 406l42 294h176l-8 -38l-78 -256h-132z" />
<glyph unicode="#" horiz-adv-x="793" d="M105 415l29 148h119l50 137h186l-50 -137h104l50 137h186l-50 -137h93l-29 -148h-118l-47 -129h95l-29 -148h-120l-49 -138h-186l49 138h-104l-49 -138h-186l49 138h-92l29 148h117l47 129h-94zM385 415l-47 -129h104l47 129h-104z" />
<glyph unicode="$" horiz-adv-x="645" d="M0 118l173 105q45 -65 120 -65q76 0 76 48q0 17 -24 30.5t-96 37.5q-156 51 -156 175q0 99 65 168.5t171 88.5l19 99h144l-19 -99q123 -21 178 -111l-162 -100q-30 47 -92 47q-66 0 -66 -46q0 -18 23.5 -31.5t93.5 -37.5q82 -28 120.5 -68t38.5 -100q0 -104 -73 -176 t-190 -89l-19 -98h-144l19 97q-135 21 -200 125z" />
<glyph unicode="%" horiz-adv-x="923" d="M824 662l-619 -680l-71 56l619 680zM476 528q-16 -82 -74 -130.5t-139 -48.5q-69 0 -108 36.5t-39 99.5q0 98 63 160t154 62q69 0 108 -36.5t39 -99.5q0 -23 -4 -43zM263 528q-3 -15 -3 -26q0 -32 27 -32q20 0 34.5 21.5t14.5 62.5q0 32 -27 32q-34 0 -46 -58zM482 172 q16 82 74 130.5t139 48.5q69 0 108 -36.5t39 -99.5q0 -98 -63 -160t-154 -62q-69 0 -108 36.5t-39 99.5q0 23 4 43zM695 172q3 15 3 26q0 32 -27 32q-20 0 -34.5 -22t-14.5 -62q0 -32 27 -32q34 0 46 58z" />
<glyph unicode="&#x26;" horiz-adv-x="754" d="M565 387l152 -78q-61 -104 -138 -165l104 -144h-233l-26 35q-79 -47 -179 -47q-102 0 -161.5 42.5t-59.5 117.5q0 72 43.5 128.5t117.5 88.5q-38 56 -38 120q0 100 73.5 163.5t186.5 63.5q90 0 140 -40t50 -109q0 -66 -44.5 -124.5t-118.5 -91.5l54 -76q48 56 77 116z M382 566q-20 0 -32.5 -15t-12.5 -39q0 -30 24 -63q52 40 52 85q0 32 -31 32zM298 146q18 0 39 8l-71 100q-28 -28 -28 -63q0 -45 60 -45z" />
<glyph unicode="'" horiz-adv-x="338" d="M125 406l42 294h176l-8 -38l-78 -256h-132z" />
<glyph unicode="(" horiz-adv-x="426" d="M82 176q0 160 70.5 312t196.5 277l123 -68q-94 -108 -150 -244t-56 -277q0 -136 56 -253l-150 -68q-90 137 -90 321z" />
<glyph unicode=")" horiz-adv-x="426" d="M96 -145l-122 68q93 109 149 243.5t56 275.5q0 137 -55 255l149 68q90 -139 90 -324q0 -162 -72.5 -313.5t-194.5 -272.5z" />
<glyph unicode="*" horiz-adv-x="566" d="M217 107l21 128l-101 -82l-76 133l121 46l-121 46l76 133l101 -82l-21 128h152l-21 -128l101 82l76 -133l-121 -46l121 -46l-76 -133l-101 82l21 -128h-152z" />
<glyph unicode="+" horiz-adv-x="614" d="M233 76v187h-172v137h172v186h168v-186h172v-137h-172v-187h-168z" />
<glyph unicode="," horiz-adv-x="330" d="M-45 -120l153 319l145 -52l-182 -306z" />
<glyph unicode="-" horiz-adv-x="403" d="M352 258h-301l28 147h301z" />
<glyph unicode="." horiz-adv-x="330" d="M32 88q7 42 42 71t77 29q36 0 59.5 -23t23.5 -58q0 -48 -37.5 -83.5t-84.5 -35.5q-36 0 -59 22.5t-23 57.5q0 6 2 20z" />
<glyph unicode="/" horiz-adv-x="569" d="M651 690l-581 -829l-128 85l579 829z" />
<glyph unicode="0" horiz-adv-x="660" d="M636 350q-33 -168 -126 -265t-233 -97q-113 0 -171 64.5t-58 181.5q0 53 12 116q32 168 125 265t233 97q113 0 171.5 -65t58.5 -183q0 -52 -12 -114zM414 350q13 68 13 110q0 72 -44 72q-33 0 -57.5 -41t-43.5 -141q-14 -75 -14 -111q0 -71 44 -71q33 0 58 41t44 141z " />
<glyph unicode="1" horiz-adv-x="660" d="M201 379l-95 133l286 188h196l-136 -700h-222l88 455z" />
<glyph unicode="2" horiz-adv-x="660" d="M234 464l-131 98q55 67 136.5 108.5t169.5 41.5q105 0 163 -46t58 -130q0 -195 -259 -352h205l-35 -184h-517l32 166q172 108 253.5 182t81.5 135q0 43 -45 43q-53 0 -112 -62z" />
<glyph unicode="3" horiz-adv-x="660" d="M414 712q101 0 159.5 -43t58.5 -115q0 -67 -37 -116.5t-91 -72.5q90 -39 90 -126q0 -103 -91 -177t-236 -74q-172 0 -255 112l163 114q39 -50 101 -50q40 0 63 17t23 49q0 45 -72 45h-80l32 164h76q37 0 60.5 16.5t23.5 43.5q0 37 -52 37t-106 -45l-117 110 q124 111 287 111z" />
<glyph unicode="4" horiz-adv-x="660" d="M306 108h-302l31 157l394 435h208l-84 -428h83l-32 -164h-83l-20 -108h-215zM368 426l-141 -154h111z" />
<glyph unicode="5" horiz-adv-x="660" d="M175 280l-61 44l74 376h458l-34 -174h-242l-13 -67q27 7 65 7q74 0 125 -46.5t51 -128.5q0 -130 -95 -216.5t-247 -86.5q-82 0 -146.5 33t-94.5 88l167 108q31 -51 87 -51q38 0 65 21.5t27 58.5q0 26 -22.5 41t-64.5 15t-99 -22z" />
<glyph unicode="6" horiz-adv-x="660" d="M422 536q-76 0 -108 -102q55 34 125 34q82 0 131.5 -46t49.5 -130q0 -133 -92 -218.5t-230 -85.5q-117 0 -179.5 59t-62.5 175q0 44 11 104q36 190 132.5 288t241.5 98q77 0 133 -32.5t81 -93.5l-166 -87q-21 37 -67 37zM344 296q-30 0 -63 -19q-5 -33 -5 -51 q0 -34 12.5 -48t37.5 -14q28 0 48 24.5t20 63.5q0 44 -50 44z" />
<glyph unicode="7" horiz-adv-x="660" d="M643 522l-330 -522h-250l334 516h-281l36 184h526z" />
<glyph unicode="8" horiz-adv-x="660" d="M29 196q19 105 135 156q-49 48 -49 114q0 109 86 178t212 69q107 0 168 -44.5t61 -116.5q0 -53 -29 -100t-79 -77q78 -52 78 -129q0 -111 -93.5 -184t-241.5 -73q-117 0 -184.5 47t-67.5 124q0 20 4 36zM254 209q-1 -4 -1 -12q0 -23 16.5 -36.5t44.5 -13.5q33 0 51.5 16 t18.5 41q0 35 -88 72q-34 -30 -42 -67zM435 502q1 5 1 14q0 43 -47 43q-27 0 -44 -16t-17 -40q0 -17 15.5 -31t53.5 -31q32 27 38 61z" />
<glyph unicode="9" horiz-adv-x="660" d="M262 164q86 0 118 101q-53 -33 -124 -33q-82 0 -131.5 46t-49.5 130q0 133 92 218.5t230 85.5q117 0 179.5 -59t62.5 -175q0 -44 -11 -104q-36 -188 -139 -287t-253 -99q-68 0 -124 23.5t-89 64.5l155 127q33 -39 84 -39zM351 404q30 0 63 18q4 27 4 50q0 35 -12 49.5 t-37 14.5q-28 0 -48.5 -24.5t-20.5 -63.5q0 -44 51 -44z" />
<glyph unicode=":" horiz-adv-x="330" d="M32 88q8 42 42 71t77 29q36 0 59.5 -23t23.5 -58q0 -48 -37.5 -83.5t-84.5 -35.5q-36 0 -59 22.5t-23 57.5q0 6 2 20zM98 429q8 42 42.5 71t76.5 29q37 0 60 -22.5t23 -57.5q0 -48 -37.5 -84t-84.5 -36q-36 0 -59 22.5t-23 57.5q0 6 2 20z" />
<glyph unicode=";" horiz-adv-x="330" d="M98 429q8 42 42.5 71t76.5 29q37 0 60 -22.5t23 -57.5q0 -48 -37.5 -84t-84.5 -36q-36 0 -59 22.5t-23 57.5q0 6 2 20zM-64 -120l152 319l145 -52l-182 -306z" />
<glyph unicode="&#x3c;" horiz-adv-x="614" d="M104 261v138l348 211l78 -135l-237 -145l237 -145l-78 -135z" />
<glyph unicode="=" horiz-adv-x="614" d="M573 381h-512v137h512v-137zM573 145h-512v137h512v-137z" />
<glyph unicode="&#x3e;" horiz-adv-x="614" d="M530 399v-138l-348 -211l-78 135l237 145l-237 145l78 135z" />
<glyph unicode="?" horiz-adv-x="588" d="M216 -12q-47 0 -72.5 19.5t-25.5 54.5q0 53 38 85t97 32q47 0 73 -20t26 -56q0 -53 -38.5 -84t-97.5 -31zM385 712q92 0 145 -41.5t53 -113.5q1 -69 -37.5 -123.5t-113.5 -105.5q-50 -34 -57 -77l-5 -29h-215l11 56q20 104 121 159q69 37 69 78q0 27 -38 27 q-50 0 -97 -47l-116 108q54 51 127.5 80t152.5 29z" />
<glyph unicode="@" horiz-adv-x="988" d="M246 271q20 104 82.5 163.5t149.5 59.5q64 0 103 -44l6 32h180l-52 -271q-3 -15 -3 -27q0 -39 37 -39t70 59.5t33 158.5q0 121 -77 196t-208 75q-77 0 -152 -31.5t-136 -87.5t-98.5 -140.5t-37.5 -182.5q0 -127 79 -202.5t205 -75.5q131 0 229 69l41 -60 q-127 -87 -285 -87q-163 0 -260 97t-97 249q0 105 42.5 203t113.5 169.5t168.5 114.5t202.5 43q170 0 264.5 -95t94.5 -241q0 -152 -74 -240t-193 -88q-112 0 -139 66q-27 -31 -67 -48.5t-77 -17.5q-73 0 -112.5 41.5t-39.5 116.5q0 33 7 65zM469 168q31 0 62 23l31 159 q-23 24 -53 24q-38 0 -63 -40t-25 -110q0 -56 48 -56z" />
<glyph unicode="A" horiz-adv-x="770" d="M461 0l-8 108h-197l-47 -108h-242l354 700h300l82 -700h-242zM430 492l-95 -210h108z" />
<glyph unicode="B" horiz-adv-x="687" d="M18 0l136 700h283q117 0 174.5 -39.5t57.5 -112.5q0 -60 -30.5 -110t-83.5 -72q42 -15 67 -47t25 -76q0 -106 -84.5 -174.5t-244.5 -68.5h-300zM337 164q38 0 58 19.5t20 50.5q0 44 -55 44h-62l-23 -114h62zM376 434q73 0 73 65q0 37 -53 37h-48l-20 -102h48z" />
<glyph unicode="C" horiz-adv-x="733" d="M47 261q0 188 123 319.5t312 131.5q104 0 179.5 -46t106.5 -135l-210 -85q-8 37 -35 58.5t-68 21.5q-65 0 -119 -62t-54 -169q0 -59 28.5 -90t75.5 -31q41 0 76.5 21.5t58.5 58.5l176 -85q-64 -89 -158.5 -135t-199.5 -46q-136 0 -214 72.5t-78 200.5z" />
<glyph unicode="D" horiz-adv-x="741" d="M348 516l-65 -332h39q78 0 125.5 62.5t47.5 159.5q0 110 -108 110h-39zM283 0h-265l136 700h265q149 0 230 -68.5t81 -194.5q0 -119 -51.5 -217.5t-155 -159t-240.5 -60.5z" />
<glyph unicode="E" horiz-adv-x="620" d="M18 0l136 700h501l-35 -176h-270l-15 -77h235l-34 -176h-235l-18 -95h279l-34 -176h-510z" />
<glyph unicode="F" horiz-adv-x="586" d="M18 0l136 700h501l-35 -176h-270l-18 -96h235l-35 -176h-235l-48 -252h-231z" />
<glyph unicode="G" horiz-adv-x="766" d="M56 350q32 166 149.5 264t276.5 98q104 0 179.5 -46t106.5 -135l-210 -85q-8 37 -35 58.5t-68 21.5q-66 0 -119.5 -62t-53.5 -170q0 -60 29.5 -90t77.5 -30q67 0 102 38l8 43h-108l29 151h323l-54 -280q-138 -138 -339 -138q-139 0 -221 71.5t-82 201.5q0 41 9 89z" />
<glyph unicode="H" horiz-adv-x="768" d="M18 0l136 700h230l-48 -243h172l48 243h230l-136 -700h-230l53 273h-172l-53 -273h-230z" />
<glyph unicode="I" horiz-adv-x="374" d="M158 700h230l-136 -700h-230z" />
<glyph unicode="J" horiz-adv-x="665" d="M365 251l88 449h230l-85 -437q-25 -127 -117.5 -201t-232.5 -74q-93 0 -157.5 40.5t-88.5 111.5l202 99q13 -65 73 -65q33 0 57 21t31 56z" />
<glyph unicode="K" horiz-adv-x="737" d="M277 154l-29 -154h-230l136 700h230l-49 -248l200 248h248l-268 -289l163 -411h-253l-78 229z" />
<glyph unicode="L" horiz-adv-x="590" d="M18 0l136 700h230l-101 -516h275l-35 -184h-505z" />
<glyph unicode="M" horiz-adv-x="922" d="M364 127l-58 207l-64 -334h-224l136 700h233l94 -338l226 338h233l-136 -700h-224l64 334l-138 -207h-142z" />
<glyph unicode="N" horiz-adv-x="758" d="M18 0l136 700h226l106 -335l66 335h224l-136 -700h-226l-107 335l-65 -335h-224z" />
<glyph unicode="O" horiz-adv-x="774" d="M56 350q30 159 145 260.5t274 101.5q136 0 211.5 -75.5t75.5 -201.5q0 -188 -124.5 -317.5t-303.5 -129.5q-136 0 -211.5 75t-75.5 200q0 42 9 87zM288 350q-7 -32 -7 -64q0 -54 23 -83t66 -29q63 0 110.5 66.5t47.5 171.5q0 54 -23 84t-66 30q-55 0 -95 -47t-56 -129z " />
<glyph unicode="P" horiz-adv-x="676" d="M684 457q-23 -121 -115.5 -182t-231.5 -61h-48l-41 -214h-230l136 700h278q121 0 189.5 -46.5t68.5 -139.5q0 -27 -6 -57zM452 457q2 16 2 21q0 48 -63 48h-41l-27 -138h41q74 0 88 69z" />
<glyph unicode="Q" horiz-adv-x="774" d="M56 350q30 159 145 260.5t274 101.5q136 0 211.5 -75.5t75.5 -201.5q0 -83 -30.5 -163.5t-82.5 -139.5l68 -93l-168 -131l-75 103q-71 -23 -140 -23q-136 0 -211.5 75t-75.5 200q0 42 9 87zM288 350q-7 -32 -7 -64q0 -54 23 -83t66 -29q63 0 110.5 66.5t47.5 171.5 q0 54 -23 84t-66 30q-55 0 -95 -47t-56 -129z" />
<glyph unicode="R" horiz-adv-x="716" d="M338 242h-43l-47 -242h-230l136 700h277q128 0 198.5 -44.5t70.5 -134.5q0 -85 -43 -147t-114 -95l106 -279h-243zM327 410h55q87 0 87 76q0 46 -63 46h-55z" />
<glyph unicode="S" horiz-adv-x="645" d="M651 595l-162 -100q-30 47 -92 47q-66 0 -66 -46q0 -18 23.5 -31.5t93.5 -37.5q82 -28 120.5 -68t38.5 -100q0 -121 -95 -196t-242 -75q-187 0 -270 130l173 105q45 -65 120 -65q76 0 76 48q0 17 -24 30.5t-96 37.5q-156 51 -156 175q0 117 87.5 190t221.5 73 q179 0 249 -117z" />
<glyph unicode="T" horiz-adv-x="636" d="M153 0l100 516h-186l36 184h602l-36 -184h-186l-100 -516h-230z" />
<glyph unicode="U" horiz-adv-x="782" d="M338 -12q-128 0 -199.5 60.5t-71.5 171.5q0 37 7 73l80 407h230l-82 -419q-4 -24 -4 -34q0 -73 76 -73q93 0 114 107l82 419h230l-80 -407q-28 -144 -131 -224.5t-251 -80.5z" />
<glyph unicode="V" horiz-adv-x="770" d="M383 251l214 449h242l-354 -700h-300l-82 700h242z" />
<glyph unicode="W" horiz-adv-x="1074" d="M515 700h216l9 -429l171 429h232l-316 -700h-260l-1 410l-159 -410h-260l-44 700h232l3 -429z" />
<glyph unicode="X" horiz-adv-x="726" d="M353 210l-144 -210h-246l266 358l-120 342h246l58 -184l130 184h246l-254 -342l128 -358h-246z" />
<glyph unicode="Y" horiz-adv-x="716" d="M345 700l51 -244l147 244h246l-313 -427l-53 -273h-230l53 273l-147 427h246z" />
<glyph unicode="Z" horiz-adv-x="632" d="M638 522l-336 -338h280l-35 -184h-562l34 178l336 338h-255l36 184h537z" />
<glyph unicode="[" horiz-adv-x="455" d="M26 -130l171 880h336l-26 -136h-154l-118 -608h154l-27 -136h-336z" />
<glyph unicode="\" horiz-adv-x="569" d="M343 -139l-257 829l162 85l258 -829z" />
<glyph unicode="]" horiz-adv-x="455" d="M448 750l-171 -880h-335l26 136h154l118 608h-154l26 136h336z" />
<glyph unicode="^" horiz-adv-x="652" d="M277 706h118l199 -268l-139 -91l-119 154l-119 -154l-139 91z" />
<glyph unicode="_" horiz-adv-x="500" d="M-83 -170l14 68h499l-14 -68h-499z" />
<glyph unicode="`" horiz-adv-x="380" d="M246 758l137 -124l-77 -83l-159 107z" />
<glyph unicode="a" d="M38 259q25 131 99.5 201t170.5 70q83 0 132 -57l9 45h220l-100 -518h-220l8 45q-72 -57 -155 -57q-79 0 -126 48t-47 140q0 38 9 83zM357 366q-41 0 -71.5 -38t-30.5 -109q0 -67 60 -67q36 0 68 25l32 164q-22 25 -58 25z" />
<glyph unicode="b" d="M640 259q-26 -131 -100 -201t-170 -70q-82 0 -133 57l-8 -45h-220l141 730h220l-50 -257q74 57 156 57q79 0 125.5 -48t46.5 -141q0 -42 -8 -82zM363 366q-36 0 -68 -25l-32 -164q22 -25 58 -25q40 0 70.5 37.5t30.5 108.5q0 68 -59 68z" />
<glyph unicode="c" horiz-adv-x="583" d="M34 259q23 121 114.5 196t219.5 75q84 0 142.5 -36.5t84.5 -101.5l-185 -75q-14 49 -60 49q-42 0 -70.5 -41t-28.5 -107t57 -66q46 0 80 49l155 -75q-51 -65 -124 -101.5t-157 -36.5q-110 0 -172 56.5t-62 152.5q0 29 6 62z" />
<glyph unicode="d" d="M38 259q25 131 99.5 201t170.5 70q83 0 132 -57l50 257h220l-141 -730h-220l8 45q-72 -57 -155 -57q-79 0 -126 48t-47 140q0 38 9 83zM357 366q-41 0 -71.5 -38t-30.5 -109q0 -67 60 -67q36 0 68 25l32 164q-22 25 -58 25z" />
<glyph unicode="e" horiz-adv-x="602" d="M591 353q-13 -68 -75 -112.5t-159 -44.5q-73 0 -118 24v-9q0 -36 21 -57.5t57 -21.5q58 0 92 36l120 -80q-100 -100 -253 -100q-117 0 -182 60.5t-65 158.5q0 138 102 230.5t244 92.5q103 0 161 -41.5t58 -107.5q0 -13 -3 -28zM345 393q-27 0 -50 -18t-34 -49 q29 -13 67 -13q29 0 47.5 12t18.5 34q0 34 -49 34z" />
<glyph unicode="f" horiz-adv-x="459" d="M537 722l-29 -147q-19 1 -58 1t-56.5 -10.5t-22.5 -35.5l-3 -12h119l-31 -162h-119l-111 -568h-220l111 568h-85l31 162h85l4 18q19 100 83 147t180 47q67 0 122 -8z" />
<glyph unicode="g" d="M39 264q25 128 99 197t170 69q83 0 132 -57l9 45h220l-92 -473q-25 -128 -117 -198.5t-241 -70.5q-163 0 -230 96l160 89q33 -43 89 -43q93 0 112 92l9 45q-72 -57 -155 -57q-79 0 -126.5 48t-47.5 138q0 36 9 80zM317 162q36 0 68 25l30 154q-22 25 -58 25 q-40 0 -70 -36t-30 -102t60 -66z" />
<glyph unicode="h" horiz-adv-x="673" d="M372 366q-39 0 -78 -31l-65 -335h-220l141 730h220l-52 -267q85 67 174 67q68 0 105.5 -36t37.5 -107q0 -29 -6 -63l-62 -324h-220l60 313q2 12 2 17q0 36 -37 36z" />
<glyph unicode="i" horiz-adv-x="350" d="M15 0l100 518h220l-100 -518h-220zM132 671q10 50 51.5 81.5t93.5 31.5q46 0 74.5 -25t28.5 -66q0 -58 -44.5 -96.5t-102.5 -38.5q-46 0 -74.5 24.5t-28.5 65.5q0 15 2 23z" />
<glyph unicode="j" horiz-adv-x="350" d="M18 16l97 502h220l-97 -498q-24 -124 -94 -183.5t-214 -59.5q-45 0 -74 5l31 160q15 -1 44 -1q37 0 58 17.5t29 57.5zM132 671q10 50 51.5 81.5t93.5 31.5q46 0 74.5 -25t28.5 -66q0 -58 -44.5 -96.5t-102.5 -38.5q-46 0 -74.5 24.5t-28.5 65.5q0 15 2 23z" />
<glyph unicode="k" horiz-adv-x="654" d="M252 120l-23 -120h-220l141 730h220l-71 -366l138 154h244l-202 -187l121 -331h-235l-50 179z" />
<glyph unicode="l" horiz-adv-x="348" d="M14 0l141 730h220l-141 -730h-220z" />
<glyph unicode="m" horiz-adv-x="953" d="M329 518l-11 -56q35 31 80 49.5t84 18.5q92 0 118 -76q91 76 191 76q62 0 94 -35t32 -99q0 -29 -6 -62l-64 -334h-220l61 318q2 14 2 18q0 30 -30 30q-27 0 -56 -25l-66 -341h-220l61 318q2 14 2 18q0 30 -30 30q-27 0 -56 -25l-66 -341h-220l100 518h220z" />
<glyph unicode="n" horiz-adv-x="673" d="M372 366q-39 0 -78 -31l-65 -335h-220l100 518h220l-11 -55q85 67 174 67q68 0 105.5 -36t37.5 -107q0 -29 -6 -63l-62 -324h-220l60 313q2 12 2 17q0 36 -37 36z" />
<glyph unicode="o" horiz-adv-x="628" d="M293 152q37 0 65.5 39t28.5 112q0 63 -52 63q-38 0 -66 -39t-28 -112q0 -63 52 -63zM367 530q107 0 170 -57t63 -153q0 -144 -100 -238t-239 -94q-108 0 -170.5 56.5t-62.5 153.5q0 144 100 238t239 94z" />
<glyph unicode="p" d="M640 259q-26 -131 -100 -201t-170 -70q-82 0 -133 57l-50 -257h-220l142 730h220l-9 -45q74 57 156 57q79 0 125.5 -48t46.5 -141q0 -42 -8 -82zM321 152q40 0 70.5 37.5t30.5 108.5q0 68 -59 68q-36 0 -68 -25l-32 -164q22 -25 58 -25z" />
<glyph unicode="q" d="M38 259q25 131 99.5 201t170.5 70q83 0 132 -57l9 45h220l-142 -730h-220l50 257q-72 -57 -155 -57q-79 0 -126 48t-47 140q0 38 9 83zM315 152q36 0 68 25l32 164q-22 25 -58 25q-41 0 -71.5 -38t-30.5 -109q0 -67 60 -67z" />
<glyph unicode="r" horiz-adv-x="466" d="M505 528l-32 -164q-16 2 -34 2q-93 0 -152 -67l-58 -299h-220l100 518h220l-13 -66q56 78 159 78q18 0 30 -2z" />
<glyph unicode="s" horiz-adv-x="556" d="M74 369q14 73 82.5 117t169.5 44q75 0 135 -25t92 -69l-134 -83q-27 38 -79 38q-43 0 -43 -23q0 -11 19 -22t75 -32q58 -22 85.5 -52t27.5 -74q0 -86 -71.5 -143t-195.5 -57q-175 0 -244 106l145 85q41 -50 103 -50q36 0 36 20q0 18 -64 41q-74 27 -108.5 59.5 t-34.5 83.5q0 19 4 36z" />
<glyph unicode="t" horiz-adv-x="467" d="M81 182l34 174h-83l31 162h83l30 155h220l-30 -155h117l-31 -162h-117l-27 -136q-3 -16 -3 -29q0 -23 14.5 -31t51.5 -8q30 0 41 1l-30 -157q-59 -8 -133 -8q-174 0 -174 137q0 25 6 57z" />
<glyph unicode="u" horiz-adv-x="668" d="M281 -12q-114 0 -175 49.5t-61 140.5q0 28 6 61l54 279h220l-59 -304q-2 -12 -2 -16q0 -46 49 -46q27 0 46 16.5t25 45.5l59 304h220l-54 -279q-23 -119 -109 -185t-219 -66z" />
<glyph unicode="v" horiz-adv-x="624" d="M386 0h-248l-75 518h237v-322l135 322h226z" />
<glyph unicode="w" horiz-adv-x="920" d="M607 518l6 -300l123 300h221l-250 -518h-240l-4 276l-110 -276h-240l-50 518h221l7 -300l122 300h194z" />
<glyph unicode="x" horiz-adv-x="618" d="M643 518l-170 -249l86 -269h-225l-45 162l-106 -162h-225l190 269l-74 249h225l32 -141l87 141h225z" />
<glyph unicode="y" horiz-adv-x="632" d="M41 -212l127 228l-105 502h222l33 -246l129 246h222l-408 -730h-220z" />
<glyph unicode="z" horiz-adv-x="500" d="M-29 0l30 158l225 198h-175l31 162h437l-31 -158l-223 -198h195l-31 -162h-458z" />
<glyph unicode="{" horiz-adv-x="446" d="M50 243l26 134q40 0 67.5 26.5t37.5 73.5l25 127q14 71 61.5 108.5t119.5 37.5h137l-26 -136h-71q-38 0 -45 -39l-22 -114q-23 -121 -136 -151q82 -24 82 -108q0 -18 -5 -43l-22 -114q-1 -5 -1 -13q0 -26 31 -26h71l-27 -136h-137q-61 0 -94.5 27.5t-33.5 80.5q0 19 4 38 l24 127q3 17 3 30q0 33 -18 51.5t-51 18.5z" />
<glyph unicode="|" horiz-adv-x="328" d="M103 -200v969h142v-969h-142z" />
<glyph unicode="}" horiz-adv-x="446" d="M416 377l-26 -134q-40 0 -68.5 -26.5t-37.5 -73.5l-24 -127q-13 -70 -62 -108t-120 -38h-136l26 136h71q37 0 44 39l22 114q23 121 137 151q-82 24 -82 110q0 21 4 41l22 114q2 10 2 14q0 25 -31 25h-71l26 136h137q61 0 95 -28t34 -81q0 -18 -4 -37l-25 -127 q-3 -15 -3 -29q0 -34 18 -52.5t52 -18.5z" />
<glyph unicode="~" horiz-adv-x="614" d="M420 435l175 -28q-10 -86 -57 -132t-117 -46q-43 0 -92 22t-68 22q-37 0 -47 -44l-175 28q10 87 57 132.5t122 45.5q36 0 86 -22t69 -22q37 0 47 44z" />
<glyph unicode="&#xa1;" horiz-adv-x="368" d="M282 296l-39 -319l-31 -159h-228l31 159l85 319h182zM237 530q47 0 72.5 -19.5t25.5 -54.5q0 -53 -38.5 -85t-97.5 -32q-46 0 -72 20t-26 55q0 53 38.5 84.5t97.5 31.5z" />
<glyph unicode="&#xa2;" horiz-adv-x="583" d="M34 259q21 108 97 180.5t186 86.5l18 95h104l-18 -95q128 -21 174 -134l-185 -75q-14 49 -60 49q-42 0 -70.5 -41t-28.5 -107t57 -66q46 0 80 49l155 -75q-89 -113 -226 -134l-19 -95h-104l19 95q-88 12 -136.5 66.5t-48.5 138.5q0 29 6 62z" />
<glyph unicode="&#xa3;" horiz-adv-x="643" d="M442 712q76 0 135.5 -31t89.5 -85l-171 -105q-24 36 -58 36q-24 0 -42 -17.5t-24 -52.5l-11 -60h167l-17 -88h-167l-3 -15q-13 -69 -68 -110h330l-35 -184h-583l34 175q75 35 90 109l5 25h-70l17 88h70l15 78q22 116 99 176.5t197 60.5z" />
<glyph unicode="&#xa4;" horiz-adv-x="756" d="M606 431q21 -47 21 -99t-21 -99l92 -94l-107 -112l-99 101q-46 -20 -104 -20t-104 20l-99 -101l-107 112l92 94q-21 47 -21 99t21 99l-92 94l107 112l99 -101q46 20 104 20t104 -20l99 101l107 -112zM388 244q33 0 50.5 23t17.5 65t-17.5 65t-50.5 23t-50.5 -23 t-17.5 -65t17.5 -65t50.5 -23z" />
<glyph unicode="&#xa5;" horiz-adv-x="716" d="M521 335h140l-14 -68h-173l-9 -50h173l-14 -68h-173l-28 -149h-230l28 149h-173l14 68h173l9 50h-173l14 68h139l-125 365h246l51 -244l147 244h246z" />
<glyph unicode="&#xa6;" horiz-adv-x="328" d="M103 351v346h142v-346h-142zM103 -109v345h142v-345h-142z" />
<glyph unicode="&#xa7;" horiz-adv-x="581" d="M70 281q18 89 112 128q-63 39 -63 105q0 88 71.5 143t188.5 55q74 0 132.5 -25t90.5 -69l-135 -83q-26 38 -77 38q-45 0 -45 -23q0 -11 19 -22t75 -32q58 -22 85.5 -51.5t27.5 -73.5q0 -111 -128 -162q76 -40 76 -109q0 -86 -71.5 -143t-195.5 -57q-175 0 -244 106 l145 85q41 -50 102 -50q37 0 37 20q0 18 -64 41q-74 27 -108.5 59.5t-34.5 83.5q0 19 4 36zM303 257q43 21 43 55q0 27 -32 45q-43 -21 -43 -57q0 -26 32 -43z" />
<glyph unicode="&#xa8;" horiz-adv-x="380" d="M80 644q6 33 33 56t61 23q30 0 47.5 -18t17.5 -46q0 -38 -29 -66t-67 -28q-30 0 -47.5 17.5t-17.5 44.5q0 5 2 17zM292 644q6 33 33 56t61 23q30 0 47.5 -18t17.5 -46q0 -38 -29 -66t-67 -28q-30 0 -47.5 17.5t-17.5 44.5q0 5 2 17z" />
<glyph unicode="&#xa9;" horiz-adv-x="814" d="M203 350q0 -96 62 -156.5t157 -60.5q66 0 120 32t79 87l-125 53q-19 -37 -56 -37q-28 0 -46 22.5t-18 59.5t18 59.5t46 22.5q37 0 56 -37l125 53q-25 55 -79 87t-120 32q-95 0 -157 -60.5t-62 -156.5zM779 350q0 -150 -106 -256t-256 -106t-256 106t-106 256t106 256 t256 106t256 -106t106 -256zM723 350q0 129 -89.5 219.5t-216.5 90.5t-216.5 -90.5t-89.5 -219.5t89.5 -219.5t216.5 -90.5t216.5 90.5t89.5 219.5z" />
<glyph unicode="&#xaa;" horiz-adv-x="484" d="M77 510q18 96 72 147t124 51q61 0 97 -41l6 32h161l-73 -378h-161l6 32q-52 -41 -113 -41q-57 0 -91 35t-34 103q0 27 6 60zM239 510q-3 -16 -3 -30q0 -48 42 -48q29 0 50 18l23 120q-15 18 -42 18q-56 0 -70 -78z" />
<glyph unicode="&#xab;" horiz-adv-x="638" d="M44 272l16 80l239 155l53 -96l-158 -99l120 -99l-91 -96zM317 272l16 80l239 155l53 -96l-158 -99l120 -99l-91 -96z" />
<glyph unicode="&#xac;" horiz-adv-x="614" d="M56 320v137h512v-306h-168v169h-344z" />
<glyph unicode="&#xad;" horiz-adv-x="403" d="M352 258h-301l28 147h301z" />
<glyph unicode="&#xae;" horiz-adv-x="814" d="M531 299l109 -158h-162l-77 135h-24v-135h-133v417h190q81 0 127 -35.5t46 -102.5q0 -89 -76 -121zM464 420q0 43 -40 43h-47v-86h47q40 0 40 43zM779 350q0 -150 -106 -256t-256 -106t-256 106t-106 256t106 256t256 106t256 -106t106 -256zM723 350q0 129 -89.5 219.5 t-216.5 90.5t-216.5 -90.5t-89.5 -219.5t89.5 -219.5t216.5 -90.5t216.5 90.5t89.5 219.5z" />
<glyph unicode="&#xaf;" horiz-adv-x="380" d="M93 589l22 111h322l-22 -111h-322z" />
<glyph unicode="&#xb0;" horiz-adv-x="400" d="M210 712q61 0 103 -40.5t42 -98.5t-42 -98.5t-103 -40.5t-103 40.5t-42 98.5t42 98.5t103 40.5zM210 531q19 0 30.5 11.5t11.5 30.5t-11.5 30.5t-30.5 11.5t-30.5 -11.5t-11.5 -30.5t11.5 -30.5t30.5 -11.5z" />
<glyph unicode="&#xb1;" horiz-adv-x="614" d="M233 181v161h-172v137h172v161h168v-161h172v-137h-172v-161h-168zM573 0h-512v137h512v-137z" />
<glyph unicode="&#xb2;" horiz-adv-x="448" d="M294 545q1 4 1 11q0 24 -28 24q-31 0 -64 -33l-95 70q39 42 92.5 66.5t111.5 24.5q72 0 109.5 -31.5t37.5 -84.5q0 -65 -38.5 -117t-126.5 -113h123l-24 -125h-345l18 93q106 68 164 124.5t64 90.5z" />
<glyph unicode="&#xb3;" horiz-adv-x="448" d="M211 342q24 0 39.5 13.5t15.5 36.5q0 17 -17 27.5t-45 10.5h-40l19 96h40q33 0 51 13t18 34q0 22 -25 22t-49 -22l-89 64q76 71 181 71q66 0 103.5 -28t37.5 -76q0 -41 -23.5 -75t-66.5 -51q58 -23 58 -85q0 -69 -59.5 -116.5t-155.5 -47.5q-116 0 -160 75l114 65 q19 -27 53 -27z" />
<glyph unicode="&#xb4;" horiz-adv-x="380" d="M143 634l185 124l59 -100l-199 -107z" />
<glyph unicode="&#xb5;" horiz-adv-x="676" d="M267 -12q-26 0 -38 12l-42 -212h-220l142 730h220l-67 -344q15 -22 53 -22q43 0 66 28l66 338h220l-100 -518h-220l7 41q-14 -23 -38 -38t-49 -15z" />
<glyph unicode="&#xb6;" horiz-adv-x="675" d="M279 266q-104 0 -168 57.5t-64 159.5q0 101 63 159t164 58h333v-831h-144v713h-38v-713h-146v397z" />
<glyph unicode="&#xb7;" horiz-adv-x="330" d="M79 332q8 42 42.5 71t76.5 29q37 0 60 -22.5t23 -57.5q0 -48 -37 -84t-84 -36q-37 0 -60 22.5t-23 57.5q0 6 2 20z" />
<glyph unicode="&#xb8;" horiz-adv-x="380" d="M40 -96l-8 15l56 81h133l-40 -56q55 -17 55 -69q0 -48 -43 -80.5t-114 -32.5q-81 0 -123 37l72 69q16 -16 43 -16q14 0 24.5 6t10.5 16q0 27 -66 30z" />
<glyph unicode="&#xb9;" horiz-adv-x="448" d="M340 237h-153l60 311l-71 -45l-62 78l181 120h135z" />
<glyph unicode="&#xba;" horiz-adv-x="484" d="M501 510q-17 -87 -86 -142.5t-163 -55.5q-82 0 -129 42.5t-47 112.5q0 102 74 171.5t179 69.5q82 0 129 -42.5t47 -113.5q0 -23 -4 -42zM335 510q3 18 3 33q0 46 -32 46q-24 0 -43.5 -30.5t-19.5 -83.5q0 -44 32 -44q44 0 60 79z" />
<glyph unicode="&#xbb;" horiz-adv-x="638" d="M614 352l-16 -80l-239 -155l-53 96l158 99l-120 99l91 96zM341 352l-16 -80l-239 -155l-53 96l158 99l-120 99l91 96z" />
<glyph unicode="&#xbc;" horiz-adv-x="1118" d="M790 715l84 -51l-501 -679l-84 51zM340 237h-153l60 311l-71 -45l-62 78l181 120h135zM862 79h-201l24 124l221 261h177l-51 -259h49l-24 -126h-49l-15 -79h-146zM908 317l-96 -112h74z" />
<glyph unicode="&#xbd;" horiz-adv-x="1118" d="M918 308q1 4 1 11q0 24 -28 24q-31 0 -64 -33l-95 70q39 42 92.5 66.5t111.5 24.5q71 0 108.5 -31t37.5 -84q0 -66 -38 -117.5t-126 -113.5h123l-24 -125h-345l18 93q106 68 164 124.5t64 90.5zM790 715l84 -51l-501 -679l-84 51zM340 237h-153l60 311l-71 -45l-62 78 l181 120h135z" />
<glyph unicode="&#xbe;" horiz-adv-x="1118" d="M790 715l84 -51l-501 -679l-84 51zM862 79h-201l24 124l221 261h177l-51 -259h49l-24 -126h-49l-15 -79h-119zM908 317l-96 -112h74zM211 342q24 0 39.5 13.5t15.5 36.5q0 17 -17 27.5t-45 10.5h-40l19 96h40q33 0 51 13t18 34q0 22 -25 22t-49 -22l-89 64q76 71 181 71 q66 0 103.5 -28t37.5 -76q0 -41 -23.5 -75t-66.5 -51q58 -23 58 -85q0 -69 -59.5 -116.5t-155.5 -47.5q-116 0 -160 75l114 65q19 -27 53 -27z" />
<glyph unicode="&#xbf;" horiz-adv-x="588" d="M372 530q47 0 72.5 -19.5t25.5 -54.5q0 -53 -38.5 -85t-97.5 -32q-46 0 -72 20t-26 55q0 53 38.5 84.5t97.5 31.5zM203 -194q-92 0 -145.5 41.5t-53.5 112.5q0 69 38 124t113 106q26 17 38.5 33.5t18.5 43.5l6 29h215l-11 -56q-21 -105 -122 -159q-68 -37 -68 -78 q0 -27 38 -27q48 0 97 47l116 -108q-54 -51 -127.5 -80t-152.5 -29z" />
<glyph unicode="&#xc0;" horiz-adv-x="770" d="M461 0l-8 108h-197l-47 -108h-242l354 700h300l82 -700h-242zM430 492l-95 -210h108zM444 952l136 -124l-77 -83l-168 107z" />
<glyph unicode="&#xc1;" horiz-adv-x="770" d="M461 0l-8 108h-197l-47 -108h-242l354 700h300l82 -700h-242zM430 492l-95 -210h108zM410 828l186 124l59 -100l-200 -107z" />
<glyph unicode="&#xc2;" horiz-adv-x="770" d="M461 0l-8 108h-197l-47 -108h-242l354 700h300l82 -700h-242zM430 492l-95 -210h108zM472 937h90l106 -133l-89 -59l-84 79l-116 -79l-65 59z" />
<glyph unicode="&#xc3;" horiz-adv-x="770" d="M461 0l-8 108h-197l-47 -108h-242l354 700h300l82 -700h-242zM430 492l-95 -210h108zM554 766q-29 0 -64 18t-45 18q-22 0 -28 -35l-111 12q16 69 53 106t85 37q29 0 64 -18t45 -18q22 0 29 35l110 -12q-16 -69 -53 -106t-85 -37z" />
<glyph unicode="&#xc4;" horiz-adv-x="770" d="M461 0l-8 108h-197l-47 -108h-242l354 700h300l82 -700h-242zM430 492l-95 -210h108zM312 838q7 33 34 56t61 23q30 0 47.5 -17.5t17.5 -44.5q0 -39 -28.5 -67.5t-67.5 -28.5q-30 0 -48 17.5t-18 45.5q0 6 2 16zM524 838q7 33 34 56t61 23q30 0 47.5 -17.5t17.5 -44.5 q0 -39 -28.5 -67.5t-67.5 -28.5q-30 0 -48 17.5t-18 45.5q0 6 2 16z" />
<glyph unicode="&#xc5;" horiz-adv-x="770" d="M461 0l-8 108h-197l-47 -108h-242l354 700h300l82 -700h-242zM430 492l-95 -210h108zM623 845q-10 -50 -52.5 -83.5t-94.5 -33.5q-46 0 -74.5 26t-28.5 68q0 57 44.5 98.5t103.5 41.5q46 0 75 -26.5t29 -68.5q0 -6 -2 -22zM492 812q17 0 29 12t12 28q0 12 -8 19t-20 7 q-16 0 -28 -11.5t-12 -29.5q0 -25 27 -25z" />
<glyph unicode="&#xc6;" horiz-adv-x="979" d="M427 0l19 98h-176l-65 -98h-243l492 700h560l-35 -176h-220l-15 -77h185l-34 -176h-185l-18 -95h229l-34 -176h-460zM518 471l-133 -199h94z" />
<glyph unicode="&#xc7;" horiz-adv-x="733" d="M47 261q0 188 123 319.5t312 131.5q104 0 179.5 -46t106.5 -135l-210 -85q-8 37 -35 58.5t-68 21.5q-65 0 -119 -62t-54 -169q0 -59 28.5 -90t75.5 -31q41 0 76.5 21.5t58.5 58.5l176 -85q-99 -137 -262 -171l-38 -54q55 -17 55 -69q0 -48 -43 -80.5t-114 -32.5 q-81 0 -123 37l72 69q16 -16 43 -16q14 0 24.5 6t10.5 16q0 27 -66 30l-8 15l49 71q-118 11 -184 82t-66 189z" />
<glyph unicode="&#xc8;" horiz-adv-x="620" d="M18 0l136 700h501l-35 -176h-270l-15 -77h235l-34 -176h-235l-18 -95h279l-34 -176h-510zM392 952l136 -124l-77 -83l-158 107z" />
<glyph unicode="&#xc9;" horiz-adv-x="620" d="M18 0l136 700h501l-35 -176h-270l-15 -77h235l-34 -176h-235l-18 -95h279l-34 -176h-510zM315 828l186 124l59 -100l-200 -107z" />
<glyph unicode="&#xca;" horiz-adv-x="620" d="M18 0l136 700h501l-35 -176h-270l-15 -77h235l-34 -176h-235l-18 -95h279l-34 -176h-510zM405 937h90l106 -133l-89 -59l-84 79l-116 -79l-65 59z" />
<glyph unicode="&#xcb;" horiz-adv-x="620" d="M18 0l136 700h501l-35 -176h-270l-15 -77h235l-34 -176h-235l-18 -95h279l-34 -176h-510zM245 838q7 33 34 56t61 23q30 0 47.5 -17.5t17.5 -44.5q0 -39 -28.5 -67.5t-67.5 -28.5q-30 0 -48 17.5t-18 45.5q0 6 2 16zM457 838q7 33 34 56t61 23q30 0 47.5 -17.5 t17.5 -44.5q0 -39 -28.5 -67.5t-67.5 -28.5q-30 0 -48 17.5t-18 45.5q0 6 2 16z" />
<glyph unicode="&#xcc;" horiz-adv-x="374" d="M158 700h230l-136 -700h-230zM246 952l136 -124l-77 -83l-158 107z" />
<glyph unicode="&#xcd;" horiz-adv-x="374" d="M158 700h230l-136 -700h-230zM212 828l186 124l59 -100l-200 -107z" />
<glyph unicode="&#xce;" horiz-adv-x="374" d="M158 700h230l-136 -700h-230zM274 937h90l106 -133l-89 -59l-84 79l-116 -79l-65 59z" />
<glyph unicode="&#xcf;" horiz-adv-x="374" d="M158 700h230l-136 -700h-230zM114 838q7 33 34 56t61 23q30 0 47.5 -17.5t17.5 -44.5q0 -39 -28.5 -67.5t-67.5 -28.5q-30 0 -48 17.5t-18 45.5q0 6 2 16zM326 838q7 33 34 56t61 23q30 0 47.5 -17.5t17.5 -44.5q0 -39 -28.5 -67.5t-67.5 -28.5q-30 0 -48 17.5t-18 45.5 q0 6 2 16z" />
<glyph unicode="&#xd0;" horiz-adv-x="741" d="M283 0h-265l59 306h-70l17 88h70l60 306h265q149 0 230 -68.5t81 -194.5q0 -119 -51.5 -217.5t-155 -159t-240.5 -60.5zM307 306l-24 -122h39q78 0 125.5 62.5t47.5 159.5q0 110 -108 110h-39l-24 -122h102l-17 -88h-102z" />
<glyph unicode="&#xd1;" horiz-adv-x="758" d="M18 0l136 700h226l106 -335l66 335h224l-136 -700h-226l-107 335l-65 -335h-224zM548 766q-29 0 -64 18t-45 18q-22 0 -28 -35l-111 12q16 69 53 106t85 37q29 0 64 -18t45 -18q22 0 29 35l110 -12q-16 -69 -53 -106t-85 -37z" />
<glyph unicode="&#xd2;" horiz-adv-x="774" d="M56 350q-9 -45 -9 -87q0 -125 75.5 -200t211.5 -75q179 0 303.5 129.5t124.5 317.5q0 126 -75.5 201.5t-211.5 75.5q-159 0 -274 -101.5t-145 -260.5zM288 350q16 82 56 129t95 47q43 0 66 -30t23 -84q0 -105 -47.5 -171.5t-110.5 -66.5q-43 0 -66 29t-23 83q0 32 7 64z M451 952l136 -124l-77 -83l-158 107z" />
<glyph unicode="&#xd3;" horiz-adv-x="774" d="M56 350q30 159 145 260.5t274 101.5q136 0 211.5 -75.5t75.5 -201.5q0 -188 -124.5 -317.5t-303.5 -129.5q-136 0 -211.5 75t-75.5 200q0 42 9 87zM288 350q-7 -32 -7 -64q0 -54 23 -83t66 -29q63 0 110.5 66.5t47.5 171.5q0 54 -23 84t-66 30q-55 0 -95 -47t-56 -129z M407 828l186 124l59 -100l-200 -107z" />
<glyph unicode="&#xd4;" horiz-adv-x="774" d="M56 350q30 159 145 260.5t274 101.5q136 0 211.5 -75.5t75.5 -201.5q0 -188 -124.5 -317.5t-303.5 -129.5q-136 0 -211.5 75t-75.5 200q0 42 9 87zM288 350q-7 -32 -7 -64q0 -54 23 -83t66 -29q63 0 110.5 66.5t47.5 171.5q0 54 -23 84t-66 30q-55 0 -95 -47t-56 -129z M474 937h90l106 -133l-89 -59l-84 79l-116 -79l-65 59z" />
<glyph unicode="&#xd5;" horiz-adv-x="774" d="M56 350q-9 -45 -9 -87q0 -125 75.5 -200t211.5 -75q179 0 303.5 129.5t124.5 317.5q0 126 -75.5 201.5t-211.5 75.5q-159 0 -274 -101.5t-145 -260.5zM288 350q16 82 56 129t95 47q43 0 66 -30t23 -84q0 -105 -47.5 -171.5t-110.5 -66.5q-43 0 -66 29t-23 83q0 32 7 64z M556 766q-29 0 -64 18t-45 18q-22 0 -28 -35l-111 12q16 69 53 106t85 37q29 0 64 -18t45 -18q22 0 29 35l110 -12q-16 -69 -53 -106t-85 -37z" />
<glyph unicode="&#xd6;" horiz-adv-x="774" d="M56 350q-9 -45 -9 -87q0 -125 75.5 -200t211.5 -75q179 0 303.5 129.5t124.5 317.5q0 126 -75.5 201.5t-211.5 75.5q-159 0 -274 -101.5t-145 -260.5zM288 350q16 82 56 129t95 47q43 0 66 -30t23 -84q0 -105 -47.5 -171.5t-110.5 -66.5q-43 0 -66 29t-23 83q0 32 7 64z M314 838q7 33 34 56t61 23q30 0 47.5 -17.5t17.5 -44.5q0 -39 -28.5 -67.5t-67.5 -28.5q-30 0 -48 17.5t-18 45.5q0 6 2 16zM526 838q7 33 34 56t61 23q30 0 47.5 -17.5t17.5 -44.5q0 -39 -28.5 -67.5t-67.5 -28.5q-30 0 -48 17.5t-18 45.5q0 6 2 16z" />
<glyph unicode="&#xd7;" horiz-adv-x="614" d="M182 578l135 -135l135 135l111 -111l-135 -135l135 -135l-111 -111l-135 135l-135 -135l-111 111l135 135l-135 135z" />
<glyph unicode="&#xd8;" horiz-adv-x="774" d="M663 656l86 86l48 -40l-90 -90q55 -72 55 -178q0 -187 -125 -316.5t-303 -129.5q-116 0 -189 56l-85 -86l-48 40l89 90q-54 68 -54 174q0 189 124 319.5t304 130.5q113 0 188 -56zM280 285q0 -10 1 -15l224 226q-24 30 -66 30q-52 0 -90.5 -43.5t-53.5 -96.5t-15 -101z M370 174q63 0 110.5 66t47.5 170q0 14 -1 20l-223 -226q22 -30 66 -30z" />
<glyph unicode="&#xd9;" horiz-adv-x="782" d="M446 952l136 -124l-77 -83l-158 107zM338 -12q-128 0 -199.5 60.5t-71.5 171.5q0 37 7 73l80 407h230l-82 -419q-4 -24 -4 -34q0 -73 76 -73q93 0 114 107l82 419h230l-80 -407q-28 -144 -131 -224.5t-251 -80.5z" />
<glyph unicode="&#xda;" horiz-adv-x="782" d="M420 828l186 124l59 -100l-200 -107zM338 -12q-128 0 -199.5 60.5t-71.5 171.5q0 37 7 73l80 407h230l-82 -419q-4 -24 -4 -34q0 -73 76 -73q93 0 114 107l82 419h230l-80 -407q-28 -144 -131 -224.5t-251 -80.5z" />
<glyph unicode="&#xdb;" horiz-adv-x="782" d="M478 937h90l106 -133l-89 -59l-84 79l-116 -79l-65 59zM338 -12q-128 0 -199.5 60.5t-71.5 171.5q0 37 7 73l80 407h230l-82 -419q-4 -24 -4 -34q0 -73 76 -73q93 0 114 107l82 419h230l-80 -407q-28 -144 -131 -224.5t-251 -80.5z" />
<glyph unicode="&#xdc;" horiz-adv-x="782" d="M318 838q7 33 34 56t61 23q30 0 47.5 -17.5t17.5 -44.5q0 -39 -28.5 -67.5t-67.5 -28.5q-30 0 -48 17.5t-18 45.5q0 6 2 16zM530 838q7 33 34 56t61 23q30 0 47.5 -17.5t17.5 -44.5q0 -39 -28.5 -67.5t-67.5 -28.5q-30 0 -48 17.5t-18 45.5q0 6 2 16zM338 -12 q-128 0 -199.5 60.5t-71.5 171.5q0 37 7 73l80 407h230l-82 -419q-4 -24 -4 -34q0 -73 76 -73q93 0 114 107l82 419h230l-80 -407q-28 -144 -131 -224.5t-251 -80.5z" />
<glyph unicode="&#xdd;" horiz-adv-x="716" d="M345 700l51 -244l147 244h246l-313 -427l-53 -273h-230l53 273l-147 427h246zM381 828l186 124l59 -100l-200 -107z" />
<glyph unicode="&#xde;" horiz-adv-x="676" d="M154 700h230l-20 -102h48q122 0 190.5 -47t68.5 -140q0 -75 -28.5 -133.5t-77.5 -94t-112 -53.5t-136 -18h-48l-21 -112h-230zM433 355q2 14 2 20q0 49 -64 49h-41l-27 -138h41q75 0 89 69z" />
<glyph unicode="&#xdf;" horiz-adv-x="676" d="M238 28l85 145q15 -12 37 -12q24 0 39 15.5t15 41.5q0 56 -90 56l31 163q31 0 51 17.5t20 45.5q0 38 -40 38q-55 0 -67 -62l-92 -476h-213l90 467q23 119 106 182t209 63q107 0 168 -45.5t61 -119.5q0 -66 -39.5 -116t-105.5 -75q134 -33 134 -148q0 -97 -67 -158.5 t-173 -61.5q-101 0 -159 40z" />
<glyph unicode="&#xe0;" d="M38 259q-9 -45 -9 -83q0 -92 47 -140t126 -48q83 0 155 57l-8 -45h220l100 518h-220l-9 -45q-49 57 -132 57q-96 0 -170.5 -70t-99.5 -201zM357 366q36 0 58 -25l-32 -164q-32 -25 -68 -25q-60 0 -60 67q0 71 30.5 109t71.5 38zM404 778l137 -124l-78 -83l-158 107z" />
<glyph unicode="&#xe1;" d="M38 259q25 131 99.5 201t170.5 70q83 0 132 -57l9 45h220l-100 -518h-220l8 45q-72 -57 -155 -57q-79 0 -126 48t-47 140q0 38 9 83zM357 366q-41 0 -71.5 -38t-30.5 -109q0 -67 60 -67q36 0 68 25l32 164q-22 25 -58 25zM340 654l185 124l59 -100l-200 -107z" />
<glyph unicode="&#xe2;" d="M38 259q25 131 99.5 201t170.5 70q83 0 132 -57l9 45h220l-100 -518h-220l8 45q-72 -57 -155 -57q-79 0 -126 48t-47 140q0 38 9 83zM357 366q-41 0 -71.5 -38t-30.5 -109q0 -67 60 -67q36 0 68 25l32 164q-22 25 -58 25zM412 763h90l106 -133l-89 -59l-84 79l-116 -79 l-65 59z" />
<glyph unicode="&#xe3;" d="M38 259q-9 -45 -9 -83q0 -92 47 -140t126 -48q83 0 155 57l-8 -45h220l100 518h-220l-9 -45q-49 57 -132 57q-96 0 -170.5 -70t-99.5 -201zM357 366q36 0 58 -25l-32 -164q-32 -25 -68 -25q-60 0 -60 67q0 71 30.5 109t71.5 38zM495 592q-29 0 -64 18t-45 18 q-22 0 -29 -35l-111 12q17 70 53.5 106.5t84.5 36.5q29 0 64 -18t45 -18q22 0 29 35l110 -12q-16 -70 -52.5 -106.5t-84.5 -36.5z" />
<glyph unicode="&#xe4;" d="M38 259q-9 -45 -9 -83q0 -92 47 -140t126 -48q83 0 155 57l-8 -45h220l100 518h-220l-9 -45q-49 57 -132 57q-96 0 -170.5 -70t-99.5 -201zM357 366q36 0 58 -25l-32 -164q-32 -25 -68 -25q-60 0 -60 67q0 71 30.5 109t71.5 38zM253 664q6 33 33 56t61 23q30 0 47.5 -18 t17.5 -46q0 -38 -29 -66t-67 -28q-30 0 -47.5 17.5t-17.5 44.5q0 5 2 17zM465 664q6 33 33 56t61 23q30 0 47.5 -18t17.5 -46q0 -38 -29 -66t-67 -28q-30 0 -47.5 17.5t-17.5 44.5q0 5 2 17z" />
<glyph unicode="&#xe5;" d="M38 259q-9 -45 -9 -83q0 -92 47 -140t126 -48q83 0 155 57l-8 -45h220l100 518h-220l-9 -45q-49 57 -132 57q-96 0 -170.5 -70t-99.5 -201zM357 366q36 0 58 -25l-32 -164q-32 -25 -68 -25q-60 0 -60 67q0 71 30.5 109t71.5 38zM563 671q-10 -50 -52.5 -83.5t-94.5 -33.5 q-46 0 -74.5 26t-28.5 68q0 57 44.5 98.5t103.5 41.5q46 0 75 -26.5t29 -68.5q0 -6 -2 -22zM432 638q17 0 29 12t12 28q0 12 -8 19t-20 7q-16 0 -28 -11.5t-12 -29.5q0 -25 27 -25z" />
<glyph unicode="&#xe6;" horiz-adv-x="914" d="M347 145q-4 16 -6 35q-26 25 -74 25q-28 0 -47 -17t-19 -40q0 -18 13 -28.5t35 -10.5q56 0 98 36zM588 -12q-126 0 -190 64q-88 -64 -208 -64q-90 0 -137 35t-47 97q0 91 67 148.5t173 57.5q68 0 108 -31l5 24q1 6 1 16q0 55 -68 55q-63 0 -113 -40l-84 94q105 86 247 86 q110 0 157 -59q80 59 196 59q96 0 153.5 -42.5t57.5 -107.5q0 -77 -65.5 -130.5t-171.5 -53.5q-73 0 -118 24v-9q0 -36 21 -57.5t57 -21.5q58 0 92 36l120 -80q-100 -100 -253 -100zM657 393q-27 0 -50 -18t-34 -49q29 -13 67 -13q29 0 47.5 12t18.5 34q0 34 -49 34z" />
<glyph unicode="&#xe7;" horiz-adv-x="583" d="M34 259q23 121 114.5 196t219.5 75q84 0 142.5 -36.5t84.5 -101.5l-185 -75q-14 49 -60 49q-42 0 -70.5 -41t-28.5 -107t57 -66q46 0 80 49l155 -75q-79 -101 -199 -128l-37 -54q55 -17 55 -69q0 -48 -43 -80.5t-114 -32.5q-81 0 -123 37l72 69q16 -16 43 -16 q14 0 24.5 6t10.5 16q0 27 -66 30l-8 15l50 73q-86 13 -133 67.5t-47 137.5q0 29 6 62z" />
<glyph unicode="&#xe8;" horiz-adv-x="602" d="M346 778l137 -124l-78 -83l-158 107zM591 353q-13 -68 -75 -112.5t-159 -44.5q-73 0 -118 24v-9q0 -36 21 -57.5t57 -21.5q58 0 92 36l120 -80q-100 -100 -253 -100q-117 0 -182 60.5t-65 158.5q0 138 102 230.5t244 92.5q103 0 161 -41.5t58 -107.5q0 -13 -3 -28z M345 393q-27 0 -50 -18t-34 -49q29 -13 67 -13q29 0 47.5 12t18.5 34q0 34 -49 34z" />
<glyph unicode="&#xe9;" horiz-adv-x="602" d="M591 353q-13 -68 -75 -112.5t-159 -44.5q-73 0 -118 24v-9q0 -36 21 -57.5t57 -21.5q58 0 92 36l120 -80q-100 -100 -253 -100q-117 0 -182 60.5t-65 158.5q0 138 102 230.5t244 92.5q103 0 161 -41.5t58 -107.5q0 -13 -3 -28zM345 393q-27 0 -50 -18t-34 -49 q29 -13 67 -13q29 0 47.5 12t18.5 34q0 34 -49 34zM283 654l185 124l59 -100l-200 -107z" />
<glyph unicode="&#xea;" horiz-adv-x="602" d="M591 353q-13 -68 -75 -112.5t-159 -44.5q-73 0 -118 24v-9q0 -36 21 -57.5t57 -21.5q58 0 92 36l120 -80q-100 -100 -253 -100q-117 0 -182 60.5t-65 158.5q0 138 102 230.5t244 92.5q103 0 161 -41.5t58 -107.5q0 -13 -3 -28zM345 393q-27 0 -50 -18t-34 -49 q29 -13 67 -13q29 0 47.5 12t18.5 34q0 34 -49 34zM356 763h90l106 -133l-89 -59l-84 79l-116 -79l-65 59z" />
<glyph unicode="&#xeb;" horiz-adv-x="602" d="M591 353q-13 -68 -75 -112.5t-159 -44.5q-73 0 -118 24v-9q0 -36 21 -57.5t57 -21.5q58 0 92 36l120 -80q-100 -100 -253 -100q-117 0 -182 60.5t-65 158.5q0 138 102 230.5t244 92.5q103 0 161 -41.5t58 -107.5q0 -13 -3 -28zM345 393q-27 0 -50 -18t-34 -49 q29 -13 67 -13q29 0 47.5 12t18.5 34q0 34 -49 34zM197 664q6 33 33 56t61 23q30 0 47.5 -18t17.5 -46q0 -38 -29 -66t-67 -28q-30 0 -47.5 17.5t-17.5 44.5q0 5 2 17zM409 664q6 33 33 56t61 23q30 0 47.5 -18t17.5 -46q0 -38 -29 -66t-67 -28q-30 0 -47.5 17.5t-17.5 44.5 q0 5 2 17z" />
<glyph unicode="&#xec;" horiz-adv-x="350" d="M15 0l100 518h220l-100 -518h-220zM200 778l137 -124l-78 -83l-158 107z" />
<glyph unicode="&#xed;" horiz-adv-x="350" d="M15 0l100 518h220l-100 -518h-220zM167 654l185 124l59 -100l-200 -107z" />
<glyph unicode="&#xee;" horiz-adv-x="350" d="M15 0l100 518h220l-100 -518h-220zM228 763h90l106 -133l-89 -59l-84 79l-116 -79l-65 59z" />
<glyph unicode="&#xef;" horiz-adv-x="350" d="M15 0l100 518h220l-100 -518h-220zM69 664q6 33 33 56t61 23q30 0 47.5 -18t17.5 -46q0 -38 -29 -66t-67 -28q-30 0 -47.5 17.5t-17.5 44.5q0 5 2 17zM281 664q6 33 33 56t61 23q30 0 47.5 -18t17.5 -46q0 -38 -29 -66t-67 -28q-30 0 -47.5 17.5t-17.5 44.5q0 5 2 17z " />
<glyph unicode="&#xf0;" horiz-adv-x="623" d="M602 643l-60 -27q64 -74 64 -196q0 -191 -100 -311.5t-253 -120.5q-107 0 -165.5 52.5t-58.5 143.5q0 28 6 60q22 115 93 177t162 62q73 0 114 -46q1 6 1 20q0 58 -29 85l-105 -47l-18 64l62 27q-35 14 -91 17l19 128q154 -7 246 -67l96 43zM292 152q34 0 56.5 35 t38.5 108q-29 24 -60 24q-35 0 -60.5 -27t-25.5 -80q0 -28 14 -44t37 -16z" />
<glyph unicode="&#xf1;" horiz-adv-x="673" d="M372 366q-39 0 -78 -31l-65 -335h-220l100 518h220l-11 -55q85 67 174 67q68 0 105.5 -36t37.5 -107q0 -29 -6 -63l-62 -324h-220l60 313q2 12 2 17q0 36 -37 36zM472 592q-29 0 -64 18t-45 18q-22 0 -29 -35l-111 12q17 70 53.5 106.5t84.5 36.5q29 0 64 -18t45 -18 q22 0 29 35l110 -12q-16 -70 -52.5 -106.5t-84.5 -36.5z" />
<glyph unicode="&#xf2;" horiz-adv-x="628" d="M293 152q37 0 65.5 39t28.5 112q0 63 -52 63q-38 0 -66 -39t-28 -112q0 -63 52 -63zM367 530q107 0 170 -57t63 -153q0 -144 -100 -238t-239 -94q-108 0 -170.5 56.5t-62.5 153.5q0 144 100 238t239 94zM346 778l137 -124l-78 -83l-158 107z" />
<glyph unicode="&#xf3;" horiz-adv-x="628" d="M293 152q37 0 65.5 39t28.5 112q0 63 -52 63q-38 0 -66 -39t-28 -112q0 -63 52 -63zM367 530q107 0 170 -57t63 -153q0 -144 -100 -238t-239 -94q-108 0 -170.5 56.5t-62.5 153.5q0 144 100 238t239 94zM299 654l185 124l59 -100l-200 -107z" />
<glyph unicode="&#xf4;" horiz-adv-x="628" d="M293 152q37 0 65.5 39t28.5 112q0 63 -52 63q-38 0 -66 -39t-28 -112q0 -63 52 -63zM367 530q107 0 170 -57t63 -153q0 -144 -100 -238t-239 -94q-108 0 -170.5 56.5t-62.5 153.5q0 144 100 238t239 94zM367 763h90l106 -133l-89 -59l-84 79l-116 -79l-65 59z" />
<glyph unicode="&#xf5;" horiz-adv-x="628" d="M293 152q37 0 65.5 39t28.5 112q0 63 -52 63q-38 0 -66 -39t-28 -112q0 -63 52 -63zM367 530q107 0 170 -57t63 -153q0 -144 -100 -238t-239 -94q-108 0 -170.5 56.5t-62.5 153.5q0 144 100 238t239 94zM450 592q-29 0 -64 18t-45 18q-22 0 -29 -35l-111 12 q17 70 53.5 106.5t84.5 36.5q29 0 64 -18t45 -18q22 0 29 35l110 -12q-16 -70 -52.5 -106.5t-84.5 -36.5z" />
<glyph unicode="&#xf6;" horiz-adv-x="628" d="M293 152q37 0 65.5 39t28.5 112q0 63 -52 63q-38 0 -66 -39t-28 -112q0 -63 52 -63zM367 530q107 0 170 -57t63 -153q0 -144 -100 -238t-239 -94q-108 0 -170.5 56.5t-62.5 153.5q0 144 100 238t239 94zM208 664q6 33 33 56t61 23q30 0 47.5 -18t17.5 -46q0 -38 -29 -66 t-67 -28q-30 0 -47.5 17.5t-17.5 44.5q0 5 2 17zM420 664q6 33 33 56t61 23q30 0 47.5 -18t17.5 -46q0 -38 -29 -66t-67 -28q-30 0 -47.5 17.5t-17.5 44.5q0 5 2 17z" />
<glyph unicode="&#xf7;" horiz-adv-x="614" d="M61 400h512v-137h-512v137zM229 539q0 37 25.5 62.5t62.5 25.5t62.5 -25.5t25.5 -62.5t-25.5 -62.5t-62.5 -25.5t-62.5 25.5t-25.5 62.5zM229 124q0 -37 25.5 -62.5t62.5 -25.5t62.5 25.5t25.5 62.5t-25.5 62.5t-62.5 25.5t-62.5 -25.5t-25.5 -62.5z" />
<glyph unicode="&#xf8;" horiz-adv-x="628" d="M367 530q80 0 140 -35l65 65l49 -40l-66 -66q45 -54 45 -135q0 -144 -100 -237.5t-239 -93.5q-83 0 -141 35l-65 -65l-48 40l66 65q-45 53 -45 135q0 144 100 238t239 94zM293 152q78 0 93 135l-126 -125q13 -10 33 -10zM246 259q-4 -21 -5 -28l126 125q-11 10 -32 10 q-69 0 -89 -107z" />
<glyph unicode="&#xf9;" horiz-adv-x="668" d="M281 -12q-114 0 -175 49.5t-61 140.5q0 28 6 61l54 279h220l-59 -304q-2 -12 -2 -16q0 -46 49 -46q27 0 46 16.5t25 45.5l59 304h220l-54 -279q-23 -119 -109 -185t-219 -66zM370 778l137 -124l-78 -83l-158 107z" />
<glyph unicode="&#xfa;" horiz-adv-x="668" d="M281 -12q-114 0 -175 49.5t-61 140.5q0 28 6 61l54 279h220l-59 -304q-2 -12 -2 -16q0 -46 49 -46q27 0 46 16.5t25 45.5l59 304h220l-54 -279q-23 -119 -109 -185t-219 -66zM315 654l185 124l59 -100l-200 -107z" />
<glyph unicode="&#xfb;" horiz-adv-x="668" d="M281 -12q-114 0 -175 49.5t-61 140.5q0 28 6 61l54 279h220l-59 -304q-2 -12 -2 -16q0 -46 49 -46q27 0 46 16.5t25 45.5l59 304h220l-54 -279q-23 -119 -109 -185t-219 -66zM387 763h90l106 -133l-89 -59l-84 79l-116 -79l-65 59z" />
<glyph unicode="&#xfc;" horiz-adv-x="668" d="M281 -12q-114 0 -175 49.5t-61 140.5q0 28 6 61l54 279h220l-59 -304q-2 -12 -2 -16q0 -46 49 -46q27 0 46 16.5t25 45.5l59 304h220l-54 -279q-23 -119 -109 -185t-219 -66zM228 664q6 33 33 56t61 23q30 0 47.5 -18t17.5 -46q0 -38 -29 -66t-67 -28q-30 0 -47.5 17.5 t-17.5 44.5q0 5 2 17zM440 664q6 33 33 56t61 23q30 0 47.5 -18t17.5 -46q0 -38 -29 -66t-67 -28q-30 0 -47.5 17.5t-17.5 44.5q0 5 2 17z" />
<glyph unicode="&#xfd;" horiz-adv-x="632" d="M41 -212l127 228l-105 502h222l33 -246l129 246h222l-408 -730h-220zM301 654l185 124l59 -100l-200 -107z" />
<glyph unicode="&#xfe;" d="M640 259q-26 -131 -100 -201t-170 -70q-82 0 -133 57l-50 -257h-220l183 942h220l-50 -257q74 57 156 57q79 0 125.5 -48t46.5 -141q0 -42 -8 -82zM321 152q40 0 70.5 37.5t30.5 108.5q0 68 -59 68q-36 0 -68 -25l-32 -164q22 -25 58 -25z" />
<glyph unicode="&#xff;" horiz-adv-x="632" d="M41 -212l127 228l-105 502h222l33 -246l129 246h222l-408 -730h-220zM211 664q6 33 33 56t61 23q30 0 47.5 -18t17.5 -46q0 -38 -29 -66t-67 -28q-30 0 -47.5 17.5t-17.5 44.5q0 5 2 17zM423 664q6 33 33 56t61 23q30 0 47.5 -18t17.5 -46q0 -38 -29 -66t-67 -28 q-30 0 -47.5 17.5t-17.5 44.5q0 5 2 17z" />
<glyph unicode="&#x152;" horiz-adv-x="937" d="M473 700h499l-35 -176h-220l-15 -77h185l-34 -176h-185l-18 -95h229l-34 -176h-508q-137 0 -213.5 71.5t-76.5 194.5q0 188 123 311t303 123zM288 350q-7 -31 -7 -60q0 -104 92 -104h48l63 328h-48q-56 0 -94.5 -41.5t-53.5 -122.5z" />
<glyph unicode="&#x153;" horiz-adv-x="955" d="M293 152q38 0 68 38t30 108q0 68 -56 68q-39 0 -69 -38.5t-30 -108.5q0 -67 57 -67zM629 -12q-119 0 -179 68q-73 -68 -197 -68q-103 0 -164 56.5t-61 152.5q0 143 98.5 238t232.5 95q56 0 100.5 -18t66.5 -50q89 68 210 68q96 0 153.5 -42.5t57.5 -107.5 q0 -77 -65.5 -130.5t-171.5 -53.5q-73 0 -118 24v-9q0 -36 21 -57.5t57 -21.5q58 0 92 36l120 -80q-100 -100 -253 -100zM698 393q-27 0 -50 -18t-34 -49q29 -13 67 -13q29 0 47.5 12t18.5 34q0 34 -49 34z" />
<glyph unicode="&#x178;" horiz-adv-x="716" d="M396 456l-51 244h-246l147 -427l-53 -273h230l53 273l313 427h-246zM285 838q7 33 34 56t61 23q30 0 47.5 -17.5t17.5 -44.5q0 -39 -28.5 -67.5t-67.5 -28.5q-30 0 -48 17.5t-18 45.5q0 6 2 16zM497 838q7 33 34 56t61 23q30 0 47.5 -17.5t17.5 -44.5q0 -39 -28.5 -67.5 t-67.5 -28.5q-30 0 -48 17.5t-18 45.5q0 6 2 16z" />
<glyph unicode="&#x2c6;" horiz-adv-x="380" d="M239 743h90l106 -133l-88 -59l-85 79l-115 -79l-66 59z" />
<glyph unicode="&#x2dc;" horiz-adv-x="380" d="M321 573q-29 0 -64 18t-45 18q-22 0 -29 -35l-111 12q17 70 53.5 106.5t84.5 36.5q29 0 64 -18t45 -18q22 0 29 35l111 -12q-17 -70 -53.5 -106.5t-84.5 -36.5z" />
<glyph unicode="&#x2000;" horiz-adv-x="481" />
<glyph unicode="&#x2001;" horiz-adv-x="962" />
<glyph unicode="&#x2002;" horiz-adv-x="481" />
<glyph unicode="&#x2003;" horiz-adv-x="962" />
<glyph unicode="&#x2004;" horiz-adv-x="320" />
<glyph unicode="&#x2005;" horiz-adv-x="240" />
<glyph unicode="&#x2006;" horiz-adv-x="160" />
<glyph unicode="&#x2007;" horiz-adv-x="160" />
<glyph unicode="&#x2008;" horiz-adv-x="120" />
<glyph unicode="&#x2009;" horiz-adv-x="192" />
<glyph unicode="&#x200a;" horiz-adv-x="53" />
<glyph unicode="&#x2010;" horiz-adv-x="403" d="M352 258h-301l28 147h301z" />
<glyph unicode="&#x2011;" horiz-adv-x="403" d="M352 258h-301l28 147h301z" />
<glyph unicode="&#x2012;" horiz-adv-x="403" d="M352 258h-301l28 147h301z" />
<glyph unicode="&#x2013;" horiz-adv-x="500" d="M501 263h-500l26 137h500z" />
<glyph unicode="&#x2014;" horiz-adv-x="1000" d="M1001 263h-1000l26 137h1000z" />
<glyph unicode="&#x2018;" horiz-adv-x="330" d="M406 748l-153 -319l-145 52l182 306z" />
<glyph unicode="&#x2019;" horiz-adv-x="330" d="M69 468l153 319l145 -52l-182 -306z" />
<glyph unicode="&#x201a;" horiz-adv-x="330" d="M-45 -120l153 319l145 -52l-182 -306z" />
<glyph unicode="&#x201c;" horiz-adv-x="559" d="M406 748l-153 -319l-145 52l182 306zM635 748l-153 -319l-145 52l182 306z" />
<glyph unicode="&#x201d;" horiz-adv-x="559" d="M69 468l153 319l145 -52l-182 -306zM298 468l153 319l145 -52l-182 -306z" />
<glyph unicode="&#x201e;" horiz-adv-x="559" d="M-45 -120l153 319l145 -52l-182 -306zM184 -120l153 319l145 -52l-182 -306z" />
<glyph unicode="&#x2022;" horiz-adv-x="452" d="M90 332q0 71 37.5 110.5t108.5 39.5t108.5 -39.5t37.5 -110.5t-37.5 -110.5t-108.5 -39.5t-108.5 39.5t-37.5 110.5z" />
<glyph unicode="&#x2026;" horiz-adv-x="990" d="M32 88q7 42 42 71t77 29q36 0 59.5 -23t23.5 -58q0 -48 -37.5 -83.5t-84.5 -35.5q-36 0 -59 22.5t-23 57.5q0 6 2 20zM362 88q7 42 42 71t77 29q36 0 59.5 -23t23.5 -58q0 -48 -37.5 -83.5t-84.5 -35.5q-36 0 -59 22.5t-23 57.5q0 6 2 20zM692 88q7 42 42 71t77 29 q36 0 59.5 -23t23.5 -58q0 -48 -37.5 -83.5t-84.5 -35.5q-36 0 -59 22.5t-23 57.5q0 6 2 20z" />
<glyph unicode="&#x202f;" horiz-adv-x="192" />
<glyph unicode="&#x2039;" horiz-adv-x="365" d="M44 272l16 80l239 155l53 -96l-158 -99l120 -99l-91 -96z" />
<glyph unicode="&#x203a;" horiz-adv-x="365" d="M341 352l-16 -80l-239 -155l-53 96l158 99l-120 99l91 96z" />
<glyph unicode="&#x205f;" horiz-adv-x="240" />
<glyph unicode="&#x20ac;" horiz-adv-x="767" d="M493 378h-165q-6 -18 -11 -57h148l-33 -68h-111q18 -79 99 -79q41 0 76.5 21.5t58.5 58.5l176 -85q-64 -89 -158.5 -135t-199.5 -46q-133 0 -211.5 70t-80.5 195h-65l13 68h56q4 37 11 57h-56l13 68h64q52 125 158.5 195.5t240.5 70.5q104 0 179.5 -46t106.5 -135 l-210 -85q-8 37 -35 58.5t-68 21.5q-82 0 -132 -80h168z" />
<glyph unicode="&#x2122;" horiz-adv-x="751" d="M98 370v245h-80v85h276v-85h-80v-245h-116zM478 424l-43 103v-157h-116v330h128l72 -169l72 169h128v-330h-116v157l-43 -103h-82z" />
<glyph unicode="&#x25fc;" horiz-adv-x="520" d="M0 520h520v-520h-520v520z" />
</font>
</defs>
</svg>
