<?xml version="1.0" standalone="no"?>
<!DOCTYPE svg PUBLIC "-//W3C//DTD SVG 1.1//EN" "http://www.w3.org/Graphics/SVG/1.1/DTD/svg11.dtd" >
<svg xmlns="http://www.w3.org/2000/svg" xmlns:xlink="http://www.w3.org/1999/xlink" version="1.1">
<metadata></metadata>
<defs>
<font id="core_sans_a_75_extraboldIt" horiz-adv-x="616" >
<font-face units-per-em="1000" ascent="800" descent="-200" />
<missing-glyph horiz-adv-x="300" />
<glyph unicode="&#xfb01;" horiz-adv-x="712" d="M403 730q43 0 83 -3l-26 -132q-12 1 -42 1q-68 0 -78 -57l-4 -21h360l-100 -518h-186l73 378h-174l-115 -590h-186l115 590h-87l27 140h87l5 27q17 95 78 140t170 45zM738 664q-9 -44 -46 -74t-81 -30q-39 0 -63 23t-24 60q0 51 39 88t89 37q39 0 63.5 -23.5t24.5 -60.5 q0 -6 -2 -20z" />
<glyph unicode="&#xfb02;" horiz-adv-x="708" d="M391 730q77 0 152 -24l4 24h186l-141 -730h-186l113 586q-47 10 -101 10q-68 0 -78 -57l-4 -21h117l-27 -140h-117l-115 -590h-186l115 590h-87l27 140h87l5 27q17 96 74 140.5t162 44.5z" />
<glyph unicode="&#xfb03;" horiz-adv-x="1070" d="M761 730q43 0 83 -3l-26 -132q-12 1 -42 1q-68 0 -78 -57l-4 -21h360l-100 -518h-186l73 378h-174l-115 -590h-186l115 590h-172l-115 -590h-186l115 590h-87l27 140h87l5 27q17 95 78 140t170 45q67 0 100 -5l-25 -132q-24 3 -52 3q-42 0 -61.5 -13.5t-24.5 -43.5 l-4 -21h172l5 27q17 95 78 140t170 45zM1096 664q-9 -44 -46 -74t-81 -30q-39 0 -63 23t-24 60q0 51 39 88t89 37q39 0 63.5 -23.5t24.5 -60.5q0 -6 -2 -20z" />
<glyph unicode="&#xfb04;" horiz-adv-x="1066" d="M749 730q77 0 152 -24l4 24h186l-141 -730h-186l113 586q-47 10 -101 10q-68 0 -78 -57l-4 -21h117l-27 -140h-117l-115 -590h-186l115 590h-172l-115 -590h-186l115 590h-87l27 140h87l5 27q17 95 78 140t170 45q67 0 100 -5l-25 -132q-24 3 -52 3q-42 0 -61.5 -13.5 t-24.5 -43.5l-4 -21h172l5 27q17 96 74 140.5t162 44.5z" />
<glyph horiz-adv-x="333" />
<glyph horiz-adv-x="0" />
<glyph horiz-adv-x="0" />
<glyph unicode="&#xd;" horiz-adv-x="237" />
<glyph unicode=" "  horiz-adv-x="300" />
<glyph unicode="&#x09;" horiz-adv-x="300" />
<glyph unicode="&#xa0;" horiz-adv-x="300" />
<glyph unicode="!" horiz-adv-x="340" d="M158 700h196l-33 -165l-86 -327h-150l40 327zM231 79q-8 -38 -40.5 -64.5t-73.5 -26.5q-36 0 -58 20.5t-22 52.5q0 44 35 76.5t81 32.5q36 0 58 -20.5t22 -52.5q0 -6 -2 -18z" />
<glyph unicode="&#x22;" horiz-adv-x="564" d="M135 411l41 289h158l-7 -36l-78 -253h-114zM361 411l41 289h158l-7 -36l-78 -253h-114z" />
<glyph unicode="#" horiz-adv-x="764" d="M413 553h120l54 147h161l-54 -147h96l-25 -129h-118l-54 -147h99l-25 -129h-121l-53 -148h-161l53 148h-120l-53 -148h-161l53 148h-95l25 129h117l54 147h-99l25 129h121l54 147h161zM486 424h-120l-54 -147h120z" />
<glyph unicode="$" horiz-adv-x="634" d="M184 -104l19 97q-135 19 -202 122l151 95q53 -73 138 -73q47 0 73 18t26 50q0 23 -26 40t-100 40q-164 52 -164 175q0 96 64 163.5t169 83.5l18 93h132l-18 -94q119 -22 173 -109l-143 -90q-35 56 -105 56q-42 0 -65 -16.5t-23 -45.5q0 -23 25.5 -40t92.5 -39 q89 -29 131 -69t42 -102q0 -102 -71.5 -172.5t-185.5 -85.5l-19 -97h-132z" />
<glyph unicode="%" horiz-adv-x="913" d="M817 663l-619 -680l-68 53l620 680zM469 528q-16 -81 -72.5 -130t-135.5 -49q-68 0 -105.5 36t-37.5 99q0 96 62 159.5t151 63.5q67 0 104.5 -36.5t37.5 -98.5q0 -24 -4 -44zM341 528q3 16 3 29q0 40 -34 40q-26 0 -44 -25.5t-18 -71.5q0 -41 35 -41q45 0 58 69zM825 171 q-16 -81 -72.5 -130t-135.5 -49q-68 0 -105.5 36t-37.5 99q0 96 62 159.5t151 63.5q67 0 104.5 -36.5t37.5 -98.5q0 -24 -4 -44zM697 171q3 17 3 28q0 41 -35 41q-26 0 -43.5 -25.5t-17.5 -72.5q0 -40 34 -40q46 0 59 69z" />
<glyph unicode="&#x26;" horiz-adv-x="723" d="M650 0h-201l-28 38q-84 -50 -184 -50q-97 0 -154.5 42.5t-57.5 114.5q0 142 165 220q-40 63 -40 124q0 97 70.5 160t179.5 63q82 0 130.5 -39.5t48.5 -106.5q0 -68 -46.5 -126t-123.5 -94l68 -101q54 63 81 116l130 -66q-56 -95 -132 -161zM208 195q-1 -5 -1 -13 q0 -56 77 -56q28 0 62 17l-85 123q-45 -32 -53 -71zM417 527q1 5 1 15q0 19 -11 30t-30 11q-23 0 -39.5 -15.5t-21.5 -38.5l-1 -7q-1 -5 -1 -13q0 -27 30 -71q64 41 73 89z" />
<glyph unicode="'" horiz-adv-x="328" d="M130 411l41 289h158l-7 -36l-78 -253h-114z" />
<glyph unicode="(" horiz-adv-x="409" d="M98 310q24 124 89 240t161 211l106 -58q-97 -112 -153 -248.5t-56 -279.5q0 -140 56 -258l-128 -58q-89 138 -89 316q0 63 14 135z" />
<glyph unicode=")" horiz-adv-x="409" d="M331 310q-25 -124 -90 -240.5t-161 -210.5l-106 58q97 112 153.5 248t56.5 279q0 137 -57 259l128 58q89 -141 89 -319q0 -59 -13 -132z" />
<glyph unicode="*" horiz-adv-x="560" d="M222 556h136l-18 -136l109 83l68 -119l-126 -52l126 -53l-68 -119l-109 83l18 -135h-136l18 135l-109 -83l-68 119l126 53l-126 52l68 119l109 -83z" />
<glyph unicode="+" d="M243 78v192h-180v122h180v192h150v-192h180v-122h-180v-192h-150z" />
<glyph unicode="," horiz-adv-x="322" d="M-42 -125l146 305l132 -47l-174 -292z" />
<glyph unicode="-" horiz-adv-x="404" d="M352 265h-298l26 132h298z" />
<glyph unicode="." horiz-adv-x="322" d="M216 79q-7 -38 -38.5 -64.5t-69.5 -26.5q-33 0 -53.5 20.5t-20.5 52.5q0 44 33.5 76.5t76.5 32.5q33 0 53.5 -20.5t20.5 -52.5q0 -6 -2 -18z" />
<glyph unicode="/" horiz-adv-x="552" d="M635 697l-583 -833l-111 75l580 832z" />
<glyph unicode="0" horiz-adv-x="644" d="M619 350q-32 -166 -123 -264t-227 -98q-109 0 -164.5 64.5t-55.5 180.5q0 54 12 117q32 167 123 264.5t226 97.5q109 0 165 -65t56 -181q0 -54 -12 -116zM427 350q12 68 12 110q0 95 -60 95q-87 0 -126 -205q-13 -66 -13 -112q0 -93 60 -93q87 0 127 205z" />
<glyph unicode="1" horiz-adv-x="644" d="M224 0l95 489l-125 -79l-82 114l270 176h166l-136 -700h-188z" />
<glyph unicode="2" horiz-adv-x="644" d="M401 712q100 0 156 -45t56 -126q0 -194 -293 -384h233l-30 -157h-500l27 141q61 41 99 68t93.5 70t88 76t56.5 71.5t24 69.5q0 25 -15.5 39.5t-43.5 14.5q-68 0 -133 -65l-112 86q57 64 134.5 102.5t159.5 38.5z" />
<glyph unicode="3" horiz-adv-x="644" d="M410 712q96 0 152 -42t56 -113q0 -68 -40 -119.5t-96 -72.5q97 -38 97 -131q0 -103 -88.5 -174.5t-226.5 -71.5q-170 0 -249 113l141 98q44 -60 118 -60q49 0 79 23.5t30 64.5q0 61 -95 61h-75l28 142h72q47 0 77.5 22.5t30.5 59.5q0 48 -64 48q-63 0 -124 -54l-101 96 q119 110 278 110z" />
<glyph unicode="4" horiz-adv-x="644" d="M315 119h-312l26 136l405 445h177l-86 -438h85l-27 -143h-85l-23 -119h-183zM379 451l-174 -189h137z" />
<glyph unicode="5" horiz-adv-x="644" d="M166 292l-48 34l73 374h441l-30 -150h-257l-19 -101q29 8 75 8q78 0 129.5 -47t51.5 -129q0 -124 -91 -208.5t-234 -84.5q-81 0 -143 31.5t-93 86.5l144 95q37 -60 105 -60q47 0 79.5 29t32.5 74q0 34 -26 52t-73 18q-54 0 -117 -22z" />
<glyph unicode="6" horiz-adv-x="644" d="M417 560q-93 0 -131 -138q62 42 139 42q83 0 132.5 -47t49.5 -130q0 -130 -90 -214.5t-224 -84.5q-111 0 -171 57.5t-60 172.5q0 50 12 110q37 190 130.5 287t230.5 97q74 0 128 -31.5t80 -89.5l-144 -78q-25 47 -82 47zM346 315q-46 0 -89 -32q-6 -35 -6 -59 q0 -84 67 -84q41 0 68.5 31t27.5 82q0 62 -68 62z" />
<glyph unicode="7" horiz-adv-x="644" d="M629 547l-348 -547h-210l349 542h-301l31 158h509z" />
<glyph unicode="8" horiz-adv-x="644" d="M31 197q21 109 132 171q-45 52 -45 112q0 101 84.5 166.5t204.5 65.5q103 0 161 -44t58 -114q0 -54 -29.5 -104.5t-78.5 -81.5q75 -52 75 -128q0 -109 -91 -180t-232 -71q-113 0 -178 45.5t-65 123.5q0 22 4 39zM226 204q-1 -5 -1 -14q0 -27 20.5 -43t54.5 -16 q42 0 68.5 20t26.5 51q0 24 -25.5 44t-89.5 46q-45 -38 -54 -88zM437 504q2 10 2 16q0 22 -14.5 35.5t-40.5 13.5q-33 0 -54.5 -18t-21.5 -45q0 -19 19.5 -36t66.5 -39q36 29 43 73z" />
<glyph unicode="9" horiz-adv-x="644" d="M264 140q103 0 142 136q-62 -41 -138 -41q-83 0 -132.5 47t-49.5 130q0 131 90 215.5t224 84.5q111 0 170.5 -58t59.5 -173q0 -53 -11 -108q-37 -190 -137 -287.5t-242 -97.5q-135 0 -204 85l133 109q37 -42 95 -42zM347 384q46 0 89 31q5 29 5 59q0 86 -66 86 q-41 0 -69 -31t-28 -83q0 -62 69 -62z" />
<glyph unicode=":" horiz-adv-x="322" d="M216 79q-7 -38 -38.5 -64.5t-69.5 -26.5q-33 0 -53.5 20.5t-20.5 52.5q0 44 33.5 76.5t76.5 32.5q33 0 53.5 -20.5t20.5 -52.5q0 -6 -2 -18zM286 439q-7 -38 -38.5 -64.5t-69.5 -26.5q-33 0 -53.5 20.5t-20.5 52.5q0 44 33.5 76.5t76.5 32.5q33 0 53.5 -20.5t20.5 -52.5 q0 -6 -2 -18z" />
<glyph unicode=";" horiz-adv-x="322" d="M286 439q-7 -38 -38.5 -64.5t-69.5 -26.5q-33 0 -53.5 20.5t-20.5 52.5q0 44 33.5 76.5t76.5 32.5q33 0 53.5 -20.5t20.5 -52.5q0 -6 -2 -18zM-58 -125l145 305l132 -47l-174 -292z" />
<glyph unicode="&#x3c;" d="M107 272v117l353 217l69 -119l-255 -157l255 -156l-69 -119z" />
<glyph unicode="=" d="M573 388h-510v122h510v-122zM573 153h-510v122h510v-122z" />
<glyph unicode="&#x3e;" d="M529 389v-117l-353 -217l-69 119l255 156l-255 157l69 119z" />
<glyph unicode="?" horiz-adv-x="574" d="M373 712q90 0 142 -39.5t52 -109.5t-38 -125.5t-115 -105.5q-31 -20 -45 -39t-20 -50l-7 -35h-187l11 55q22 108 126 166q79 44 79 94q0 37 -53 37q-56 0 -110 -52l-102 96q116 108 267 108zM319 79q-8 -38 -40.5 -64.5t-73.5 -26.5q-36 0 -58 20.5t-22 52.5 q0 44 35 76.5t81 32.5q36 0 58 -20.5t22 -52.5q0 -6 -2 -18z" />
<glyph unicode="@" horiz-adv-x="979" d="M250 271q20 102 82 162.5t152 60.5q68 0 108 -48l7 36h155l-53 -276q-3 -13 -3 -25q0 -41 39 -41q42 0 75.5 63t33.5 163q0 121 -77 196.5t-205 75.5q-78 0 -153.5 -32.5t-136 -89.5t-97.5 -142.5t-37 -183.5q0 -128 78 -204.5t204 -76.5q131 0 232 72l35 -59 q-125 -86 -281 -86q-162 0 -257 96t-95 247q0 105 42 203.5t112 170.5t167 115.5t201 43.5q166 0 259 -94.5t93 -240.5q0 -145 -71.5 -236t-184.5 -91q-103 0 -129 65q-29 -31 -69.5 -49t-78.5 -18q-75 0 -114.5 42t-39.5 117q0 32 7 64zM461 156q39 0 82 35l31 160 q-29 35 -68 35q-49 0 -78 -44t-29 -120q0 -66 62 -66z" />
<glyph unicode="A" horiz-adv-x="746" d="M334 700h250l95 -700h-206l-12 116h-233l-55 -116h-206zM424 521l-119 -246h142z" />
<glyph unicode="B" horiz-adv-x="671" d="M21 0l136 700h272q225 0 225 -147q0 -64 -33.5 -115.5t-90.5 -70.5q47 -14 73 -47.5t26 -79.5q0 -16 -3 -33q-40 -207 -317 -207h-288zM432 218q2 12 2 18q0 49 -81 49h-83l-26 -135h83q48 0 73 15.5t32 52.5zM461 490q2 12 2 17q0 23 -17.5 32.5t-55.5 9.5h-69l-23 -119 h69q43 0 65 13.5t29 46.5z" />
<glyph unicode="C" horiz-adv-x="720" d="M472 712q100 0 175 -45t105 -126l-178 -75q-29 86 -122 86q-83 0 -144 -74.5t-61 -191.5q0 -66 34.5 -102t91.5 -36q92 0 156 86l148 -75q-61 -81 -153.5 -126t-192.5 -45q-133 0 -208.5 71t-75.5 198q0 189 119.5 322t305.5 133z" />
<glyph unicode="D" horiz-adv-x="727" d="M320 542l-75 -385h66q89 0 146.5 71t57.5 184q0 66 -34 98t-95 32h-66zM713 435q0 -187 -120.5 -311t-311.5 -124h-260l136 700h260q141 0 218.5 -70.5t77.5 -194.5z" />
<glyph unicode="E" horiz-adv-x="606" d="M21 0l136 700h484l-30 -152h-290l-22 -113h255l-29 -152h-255l-26 -132h299l-29 -151h-493z" />
<glyph unicode="F" horiz-adv-x="573" d="M21 0l136 700h484l-30 -152h-290l-26 -132h255l-29 -152h-255l-51 -264h-194z" />
<glyph unicode="G" horiz-adv-x="750" d="M47 258q0 120 51 222.5t149.5 167t224.5 64.5q100 0 175 -45t105 -126l-178 -75q-29 86 -122 86q-84 0 -144.5 -74.5t-60.5 -191.5q0 -67 36 -102.5t95 -35.5q80 0 123 46l14 69h-125l25 133h308l-53 -275q-130 -133 -326 -133q-139 0 -218 71t-79 199z" />
<glyph unicode="H" horiz-adv-x="751" d="M21 0l136 700h194l-50 -255h221l50 255h194l-136 -700h-194l55 287h-221l-55 -287h-194z" />
<glyph unicode="I" horiz-adv-x="344" d="M161 700h194l-136 -700h-194z" />
<glyph unicode="J" horiz-adv-x="640" d="M263 147q42 0 71.5 27.5t38.5 73.5l88 452h194l-87 -443q-24 -125 -110.5 -197t-219.5 -72q-89 0 -150.5 39t-85.5 110l171 84q23 -74 90 -74z" />
<glyph unicode="K" horiz-adv-x="706" d="M351 700l-52 -265l241 265h212l-273 -289l168 -411h-217l-94 257l-90 -94l-31 -163h-194l136 700h194z" />
<glyph unicode="L" horiz-adv-x="576" d="M21 0l136 700h194l-106 -542h293l-30 -158h-487z" />
<glyph unicode="M" horiz-adv-x="902" d="M485 127h-120l-82 249l-73 -376h-189l136 700h196l114 -360l254 360h196l-136 -700h-189l73 376z" />
<glyph unicode="N" horiz-adv-x="745" d="M21 0l136 700h190l149 -382l75 382h189l-136 -700h-190l-150 381l-74 -381h-189z" />
<glyph unicode="O" horiz-adv-x="758" d="M326 -12q-133 0 -206 72.5t-73 197.5q0 196 121.5 325t298.5 129q133 0 206 -73t73 -199q0 -195 -121.5 -323.5t-298.5 -128.5zM357 148q76 0 133.5 75t57.5 193q0 64 -29.5 100t-82.5 36q-76 0 -133 -76t-57 -194q0 -63 29 -98.5t82 -35.5z" />
<glyph unicode="P" horiz-adv-x="655" d="M663 463q-23 -117 -112.5 -177t-224.5 -60h-68l-43 -226h-194l136 700h262q117 0 183.5 -46t66.5 -136q0 -25 -6 -55zM467 463q3 14 3 25q0 62 -87 62h-62l-33 -174h62q100 0 117 87z" />
<glyph unicode="Q" horiz-adv-x="758" d="M326 -12q-133 0 -206 72.5t-73 197.5q0 196 121.5 325t298.5 129q133 0 206 -73t73 -199q0 -91 -33.5 -177t-89.5 -146l69 -93l-136 -106l-74 99q-73 -29 -156 -29zM357 148q15 0 27 2l-60 81l137 106l53 -72q34 79 34 151q0 64 -29.5 100t-82.5 36q-76 0 -133 -76 t-57 -194q0 -63 29 -98.5t82 -35.5z" />
<glyph unicode="R" horiz-adv-x="694" d="M674 477q-13 -70 -55.5 -119.5t-107.5 -72.5l115 -285h-207l-85 254h-70l-49 -254h-194l136 700h266q124 0 190 -42.5t66 -128.5q0 -29 -5 -52zM478 477q2 14 2 20q0 57 -85 57h-73l-30 -154h73q99 0 113 77z" />
<glyph unicode="S" horiz-adv-x="634" d="M290 137q47 0 73 18t26 50q0 23 -26 40t-100 40q-164 52 -164 175q0 111 83 181.5t213 70.5q169 0 242 -115l-143 -90q-35 56 -105 56q-42 0 -65 -16.5t-23 -45.5q0 -23 25.5 -40t92.5 -39q89 -29 131 -69t42 -102q0 -117 -91 -190t-231 -73q-184 0 -269 127l151 95 q53 -73 138 -73z" />
<glyph unicode="T" d="M161 0l105 542h-194l31 158h582l-31 -158h-194l-105 -542h-194z" />
<glyph unicode="U" horiz-adv-x="764" d="M329 -12q-123 0 -192 58.5t-69 167.5q0 32 8 74l81 412h194l-82 -420q-5 -25 -5 -42q0 -91 96 -91q118 0 143 133l82 420h194l-81 -412q-28 -144 -127.5 -222t-241.5 -78z" />
<glyph unicode="V" horiz-adv-x="746" d="M448 0h-250l-95 700h206l55 -486l245 486h206z" />
<glyph unicode="W" horiz-adv-x="1054" d="M519 700h188l16 -466l202 466h198l-325 -700h-225l-9 449l-183 -449h-225l-53 700h198l20 -466z" />
<glyph unicode="X" horiz-adv-x="696" d="M423 0l-81 229l-169 -229h-210l276 359l-127 341h210l72 -203l152 203h210l-261 -341l138 -359h-210z" />
<glyph unicode="Y" horiz-adv-x="688" d="M390 0h-192l53 274l-152 426h209l70 -266l174 266h209l-318 -426z" />
<glyph unicode="Z" horiz-adv-x="613" d="M-17 0l29 152l375 390h-282l31 158h520l-30 -152l-375 -390h309l-30 -158h-547z" />
<glyph unicode="[" horiz-adv-x="442" d="M30 -130l171 880h319l-23 -120h-161l-125 -641h161l-23 -119h-319z" />
<glyph unicode="\" horiz-adv-x="552" d="M345 -136l-258 833l141 74l260 -832z" />
<glyph unicode="]" horiz-adv-x="442" d="M431 750l-171 -880h-318l22 119h161l125 641h-161l23 120h319z" />
<glyph unicode="^" horiz-adv-x="644" d="M278 705h108l196 -276l-121 -80l-129 177l-129 -177l-121 80z" />
<glyph unicode="_" horiz-adv-x="500" d="M-83 -170l14 68h499l-14 -68h-499z" />
<glyph unicode="`" horiz-adv-x="384" d="M378 624l-71 -72l-151 114l93 88z" />
<glyph unicode="a" horiz-adv-x="655" d="M449 471l9 47h186l-100 -518h-186l9 47q-77 -59 -160 -59q-82 0 -129 49t-47 141q0 161 84.5 256.5t197.5 95.5q83 0 136 -59zM390 165l36 188q-27 35 -77 35q-53 0 -89.5 -46.5t-36.5 -128.5q0 -83 76 -83q50 0 91 35z" />
<glyph unicode="b" horiz-adv-x="655" d="M338 730l-50 -259q75 59 160 59q82 0 128.5 -49t46.5 -141q0 -161 -84.5 -256.5t-196.5 -95.5q-85 0 -136 59l-9 -47h-186l141 730h186zM265 353l-36 -188q12 -16 33.5 -25.5t43.5 -9.5q53 0 89.5 46t36.5 128q0 84 -76 84q-51 0 -91 -35z" />
<glyph unicode="c" horiz-adv-x="570" d="M35 259q24 121 112.5 196t212.5 75q81 0 137 -35.5t81 -98.5l-155 -66q-23 58 -79 58q-54 0 -90 -48t-36 -126q0 -84 76 -84q56 0 101 58l130 -66q-49 -63 -119.5 -98.5t-151.5 -35.5q-107 0 -166.5 56.5t-59.5 151.5q0 24 7 63z" />
<glyph unicode="d" horiz-adv-x="655" d="M449 471l50 259h186l-141 -730h-186l9 47q-77 -59 -160 -59q-82 0 -129 49t-47 141q0 161 84.5 256.5t197.5 95.5q83 0 136 -59zM390 165l36 188q-27 35 -77 35q-53 0 -89.5 -46.5t-36.5 -128.5q0 -83 76 -83q50 0 91 35z" />
<glyph unicode="e" horiz-adv-x="603" d="M300 119q65 0 109 50l107 -78q-103 -103 -254 -103q-110 0 -171.5 56.5t-61.5 154.5q0 141 98 236t249 95q97 0 151.5 -40t54.5 -105q0 -81 -69 -137t-178 -56q-81 0 -126 28q-1 -4 -1 -11q0 -43 23.5 -66.5t68.5 -23.5zM354 403q-77 0 -117 -78q38 -12 89 -12 q39 0 61.5 14t22.5 41q0 35 -56 35z" />
<glyph unicode="f" horiz-adv-x="430" d="M403 730q61 0 104 -5l-25 -131q-18 2 -56 2q-42 0 -61.5 -13.5t-24.5 -43.5l-4 -21h121l-27 -140h-121l-115 -590h-186l115 590h-87l27 140h87l5 27q17 95 78 140t170 45z" />
<glyph unicode="g" horiz-adv-x="655" d="M449 471l9 47h186l-93 -481q-24 -124 -112 -192.5t-220 -68.5q-158 0 -229 98l140 79q37 -52 104 -52q46 0 80.5 28t44.5 79l9 47q-75 -59 -159 -59q-82 0 -129 49t-47 139q0 158 84 252t196 94q83 0 136 -59zM300 138q51 0 91 35l35 180q-27 35 -77 35q-53 0 -89 -45.5 t-36 -123.5q0 -81 76 -81z" />
<glyph unicode="h" horiz-adv-x="650" d="M367 388q-54 0 -104 -44l-66 -344h-186l141 730h186l-52 -269q84 69 179 69q69 0 107.5 -36.5t38.5 -106.5q0 -27 -6 -59l-63 -328h-186l61 314q2 16 2 23q0 51 -52 51z" />
<glyph unicode="i" horiz-adv-x="318" d="M16 0l100 518h186l-100 -518h-186zM344 664q-9 -44 -46 -74t-81 -30q-39 0 -63 23t-24 60q0 51 39 88t89 37q39 0 63.5 -23.5t24.5 -60.5q0 -6 -2 -20z" />
<glyph unicode="j" horiz-adv-x="318" d="M-80 -223q-40 0 -65 4l27 139q15 -1 44 -1q39 0 60 18.5t29 59.5l101 521h186l-98 -504q-24 -123 -87.5 -180t-196.5 -57zM344 664q-9 -44 -46 -74t-81 -30q-39 0 -63 23t-24 60q0 51 39 88t89 37q39 0 63.5 -23.5t24.5 -60.5q0 -6 -2 -20z" />
<glyph unicode="k" horiz-adv-x="620" d="M152 730h186l-74 -382l172 170h208l-206 -192l128 -326h-200l-66 198l-79 -74l-24 -124h-186z" />
<glyph unicode="l" horiz-adv-x="318" d="M16 0l141 730h186l-141 -730h-186z" />
<glyph unicode="m" horiz-adv-x="934" d="M265 352l-68 -352h-186l100 518h186l-11 -55q82 67 168 67q94 0 120 -75q92 75 193 75q64 0 97 -34.5t33 -99.5q0 -28 -6 -61l-65 -335h-186l61 318q3 13 3 26q0 44 -44 44q-43 0 -81 -38q-2 -15 -11 -61l-56 -289h-186l61 318q3 15 3 27q0 43 -44 43q-41 0 -81 -36z" />
<glyph unicode="n" horiz-adv-x="650" d="M367 388q-54 0 -104 -44l-66 -344h-186l100 518h186l-11 -57q84 69 179 69q69 0 107.5 -36.5t38.5 -106.5q0 -27 -6 -59l-63 -328h-186l61 314q2 16 2 23q0 51 -52 51z" />
<glyph unicode="o" d="M581 259q-23 -121 -113.5 -196t-212.5 -75q-105 0 -165.5 56.5t-60.5 152.5q0 143 97.5 238t234.5 95q105 0 165.5 -57t60.5 -152q0 -31 -6 -62zM218 259q-5 -23 -5 -48q0 -81 70 -81q49 0 84.5 47t35.5 129t-70 82q-43 0 -73 -33t-42 -96z" />
<glyph unicode="p" horiz-adv-x="655" d="M206 47l-51 -259h-186l142 730h186l-9 -47q75 59 160 59q82 0 128.5 -49t46.5 -141q0 -161 -84.5 -256.5t-196.5 -95.5q-85 0 -136 59zM265 353l-36 -188q12 -16 33.5 -25.5t43.5 -9.5q53 0 89.5 46t36.5 128q0 84 -76 84q-51 0 -91 -35z" />
<glyph unicode="q" horiz-adv-x="655" d="M316 -212l51 259q-77 -59 -160 -59q-82 0 -129 49t-47 141q0 161 84.5 256.5t197.5 95.5q83 0 136 -59l9 47h186l-142 -730h-186zM390 165l36 188q-27 35 -77 35q-53 0 -89.5 -46.5t-36.5 -128.5q0 -83 76 -83q50 0 91 35z" />
<glyph unicode="r" horiz-adv-x="440" d="M478 528l-27 -142q-20 2 -37 2q-93 0 -156 -71l-61 -317h-186l100 518h186l-12 -65q62 77 163 77q16 0 30 -2z" />
<glyph unicode="s" horiz-adv-x="541" d="M72 340q0 87 70 138.5t175 51.5q147 0 215 -90l-120 -78q-29 42 -89 42q-59 0 -59 -32q0 -13 21 -25.5t79 -32.5q123 -43 123 -131q0 -84 -69 -139.5t-188 -55.5q-168 0 -237 104l130 79q45 -57 113 -57q59 0 59 35q0 23 -78 50q-75 26 -110 59t-35 82z" />
<glyph unicode="t" horiz-adv-x="437" d="M253 -12q-91 0 -133 31.5t-42 100.5q0 29 8 71l36 187h-86l27 140h86l30 155h186l-30 -155h119l-27 -140h-119l-34 -175q-4 -24 -4 -30q0 -24 15.5 -34t51.5 -10q31 0 42 1l-27 -136q-44 -6 -99 -6z" />
<glyph unicode="u" horiz-adv-x="644" d="M269 -12q-107 0 -165.5 47t-58.5 135q0 23 7 62l55 286h186l-59 -303q-3 -12 -3 -23q0 -30 18 -46.5t48 -16.5q36 0 61.5 22.5t33.5 63.5l59 303h186l-55 -286q-23 -117 -105.5 -180.5t-207.5 -63.5z" />
<glyph unicode="v" horiz-adv-x="599" d="M354 0h-209l-82 518h192l28 -348l161 348h192z" />
<glyph unicode="w" horiz-adv-x="886" d="M411 518h164l17 -321l142 321h189l-257 -518h-200l-15 300l-131 -300h-200l-57 518h189l18 -321z" />
<glyph unicode="x" horiz-adv-x="588" d="M337 0l-60 172l-126 -172h-192l203 269l-87 249h192l48 -151l106 151h192l-183 -249l99 -269h-192z" />
<glyph unicode="y" horiz-adv-x="603" d="M230 -212h-186l125 224l-106 506h188l46 -287l155 287h188z" />
<glyph unicode="z" horiz-adv-x="492" d="M-28 0l26 135l262 244h-203l27 139h426l-26 -135l-262 -244h225l-27 -139h-448z" />
<glyph unicode="{" horiz-adv-x="430" d="M97 11l27 139q3 14 3 26q0 35 -20 54.5t-54 19.5l23 119q40 0 70.5 27t39.5 73l23 122q16 88 69 123.5t145 35.5h85l-23 -120h-70q-41 0 -48 -42l-24 -124q-24 -125 -134 -154q79 -22 79 -106q0 -19 -5 -49l-24 -124q-2 -10 -2 -14q0 -27 34 -27h70l-24 -120h-85 q-78 0 -118.5 23t-40.5 79q0 20 4 39z" />
<glyph unicode="|" horiz-adv-x="319" d="M107 -200v969h125v-969h-125z" />
<glyph unicode="}" horiz-adv-x="430" d="M264 150l-27 -139q-16 -78 -69 -109.5t-142 -31.5h-84l23 120h70q39 0 48 41l24 124q12 63 43.5 101.5t90.5 53.5q-80 22 -80 104q0 23 6 50l24 124q1 5 1 13q0 29 -33 29h-70l23 120h85q79 0 118 -25t39 -85q0 -19 -5 -49l-23 -122q-3 -15 -3 -28q0 -34 19.5 -53 t53.5 -19l-23 -119q-40 0 -70 -26.5t-39 -73.5z" />
<glyph unicode="~" d="M193 236l-149 24q10 81 54 124.5t115 43.5q51 0 103 -27q43 -22 73 -22q42 0 54 44l149 -24q-10 -81 -54 -124.5t-115 -43.5q-51 0 -103 27q-43 22 -73 22q-42 0 -54 -44z" />
<glyph unicode="&#xa1;" horiz-adv-x="340" d="M182 -182h-196l32 165l87 327h150l-41 -327zM109 439q8 38 40.5 64.5t73.5 26.5q36 0 58 -20.5t22 -52.5q0 -45 -35 -77t-81 -32q-36 0 -58 20.5t-22 52.5q0 6 2 18z" />
<glyph unicode="&#xa2;" horiz-adv-x="570" d="M307 526l17 90h96l-17 -89q130 -18 175 -131l-155 -66q-23 58 -79 58q-54 0 -90 -48t-36 -126q0 -84 76 -84q56 0 101 58l130 -66q-89 -113 -226 -131l-18 -89h-96l18 90q-83 13 -129 67t-46 136q0 127 79.5 220t199.5 111z" />
<glyph unicode="&#xa3;" horiz-adv-x="628" d="M438 712q72 0 129 -29.5t86 -80.5l-148 -92q-29 43 -73 43q-73 0 -89 -83l-14 -72h177l-16 -84h-177l-7 -32q-18 -84 -75 -125h351l-30 -157h-566l28 148q79 42 96 122l9 44h-73l16 84h73l16 85q21 112 96 170.5t191 58.5z" />
<glyph unicode="&#xa4;" horiz-adv-x="744" d="M615 332q0 -55 -24 -103l91 -93l-96 -100l-96 98q-46 -24 -108 -24t-108 24l-96 -98l-96 100l91 93q-24 48 -24 103t24 103l-91 93l96 100l96 -98q46 24 108 24t108 -24l96 98l96 -100l-91 -93q24 -48 24 -103zM466 332q0 47 -22.5 74t-61.5 27t-61.5 -27t-22.5 -74 t22.5 -74t61.5 -27t61.5 27t22.5 74z" />
<glyph unicode="&#xa5;" horiz-adv-x="688" d="M390 0h-192l29 150h-182l12 65h182l11 54h-182l13 66h148l-130 365h209l70 -266l174 266h209l-273 -365h150l-13 -66h-183l-11 -54h183l-12 -65h-183z" />
<glyph unicode="&#xa6;" horiz-adv-x="319" d="M107 232h125v-338h-125v338zM107 694h125v-339h-125v339z" />
<glyph unicode="&#xa7;" horiz-adv-x="557" d="M69 287q18 90 115 130q-66 37 -66 105q0 83 70 136.5t179 53.5q145 0 208 -89l-118 -75q-29 41 -86 41q-29 0 -45.5 -11t-16.5 -28q0 -14 21 -26.5t77 -32.5q61 -22 89.5 -52t28.5 -75q0 -110 -126 -161q74 -38 74 -108q0 -84 -69.5 -139.5t-186.5 -55.5q-162 0 -228 100 l125 77q42 -54 109 -54q28 0 43 11t15 29q0 14 -15.5 25t-57.5 25q-73 24 -108 56.5t-35 82.5q0 18 4 35zM287 247q28 9 44.5 28.5t16.5 43.5q0 34 -45 51q-29 -10 -45.5 -29t-16.5 -44q0 -32 46 -50z" />
<glyph unicode="&#xa8;" horiz-adv-x="384" d="M235 645q-6 -31 -31 -52t-56 -21q-28 0 -44.5 16t-16.5 42q0 36 26.5 62t62.5 26q27 0 43.5 -16.5t16.5 -41.5q0 -10 -1 -15zM445 645q-6 -31 -31 -52t-56 -21q-28 0 -44.5 16t-16.5 42q0 36 26.5 62t62.5 26q27 0 43.5 -16.5t16.5 -41.5q0 -10 -1 -15z" />
<glyph unicode="&#xa9;" horiz-adv-x="818" d="M357 350q0 -46 22 -73t59 -27q46 0 70 45l108 -48q-26 -54 -76.5 -84t-115.5 -30q-93 0 -153.5 60.5t-60.5 156.5t60.5 156.5t153.5 60.5q65 0 115.5 -30t76.5 -84l-108 -48q-24 45 -70 45q-37 0 -59 -27t-22 -73zM781 350q0 -150 -106 -256t-256 -106t-256 106t-106 256 t106 256t256 106t256 -106t106 -256zM113 350q0 -129 89.5 -219.5t216.5 -90.5t216.5 90.5t89.5 219.5t-89.5 219.5t-216.5 90.5t-216.5 -90.5t-89.5 -219.5z" />
<glyph unicode="&#xaa;" horiz-adv-x="472" d="M518 700l-74 -376h-137l6 29q-51 -37 -108 -37q-58 0 -92 36.5t-34 103.5q0 114 62 183t140 69q59 0 94 -37l6 29h137zM330 441l28 142q-19 22 -52 22t-58 -34.5t-25 -90.5q0 -61 47 -61q33 0 60 22z" />
<glyph unicode="&#xab;" horiz-adv-x="624" d="M48 278l13 68l242 156l48 -86l-168 -104l128 -105l-82 -86zM307 278l13 68l242 156l48 -86l-168 -104l128 -105l-82 -86z" />
<glyph unicode="&#xac;" d="M58 331v122h510v-299h-149v177h-361z" />
<glyph unicode="&#xad;" horiz-adv-x="404" d="M352 265h-298l26 132h298z" />
<glyph unicode="&#xae;" horiz-adv-x="818" d="M57 350q0 150 106 256t256 106t256 -106t106 -256t-106 -256t-256 -106t-256 106t-106 256zM113 350q0 -129 89.5 -219.5t216.5 -90.5t216.5 90.5t89.5 219.5t-89.5 219.5t-216.5 90.5t-216.5 -90.5t-89.5 -219.5zM600 424q0 -89 -79 -119l109 -164h-140l-82 144h-38 v-144h-117v417h179q78 0 123 -35t45 -99zM476 424q0 48 -53 48h-53v-97h53q53 0 53 49z" />
<glyph unicode="&#xaf;" horiz-adv-x="384" d="M100 594l20 102h314l-20 -102h-314z" />
<glyph unicode="&#xb0;" horiz-adv-x="400" d="M353 574q0 -57 -41.5 -97.5t-101.5 -40.5t-101.5 40.5t-41.5 97.5t41.5 97.5t101.5 40.5t101.5 -40.5t41.5 -97.5zM259 574q0 22 -13.5 35.5t-35.5 13.5t-35.5 -13.5t-13.5 -35.5t13.5 -35.5t35.5 -13.5t35.5 13.5t13.5 35.5z" />
<glyph unicode="&#xb1;" d="M243 166v173h-180v122h180v172h150v-172h180v-122h-180v-173h-150zM573 0h-510v122h510v-122z" />
<glyph unicode="&#xb2;" horiz-adv-x="440" d="M303 553q1 4 1 10q0 32 -35 32t-74 -37l-82 64q84 86 194 86q66 0 102 -30t36 -82q0 -65 -46 -124.5t-137 -124.5h139l-21 -110h-332l16 85q105 69 168 130.5t71 100.5z" />
<glyph unicode="&#xb3;" horiz-adv-x="440" d="M210 330q29 0 47.5 16.5t18.5 42.5q0 44 -70 44h-41l17 89h41q38 0 58.5 15.5t20.5 41.5q0 27 -32 27q-34 0 -62 -28l-78 59q74 71 175 71q63 0 99.5 -28t36.5 -75q0 -43 -24.5 -76.5t-66.5 -50.5q60 -25 60 -87q0 -68 -58.5 -115t-150.5 -47q-114 0 -154 76l101 59 q19 -34 62 -34z" />
<glyph unicode="&#xb4;" horiz-adv-x="384" d="M191 552l-43 72l179 130l59 -88z" />
<glyph unicode="&#xb5;" horiz-adv-x="653" d="M260 -12q-38 0 -62 22l-43 -222h-186l142 730h186l-69 -355q19 -33 71 -33q54 0 88 37l68 351h186l-100 -518h-186l7 41q-18 -23 -46 -38t-56 -15z" />
<glyph unicode="&#xb6;" horiz-adv-x="649" d="M283 266h-9q-100 0 -163 58t-63 159t63 159t163 58h303v-831h-126v723h-42v-723h-126v397z" />
<glyph unicode="&#xb7;" horiz-adv-x="322" d="M265 331q-7 -38 -38.5 -64.5t-69.5 -26.5q-33 0 -53.5 20.5t-20.5 52.5q0 44 33.5 76.5t76.5 32.5q33 0 53.5 -20.5t20.5 -52.5q0 -6 -2 -18z" />
<glyph unicode="&#xb8;" horiz-adv-x="384" d="M76 -154q18 0 29.5 8t11.5 21q0 30 -69 33l-7 13l54 79h118l-38 -52q59 -16 59 -70q0 -48 -42 -82t-113 -34q-75 0 -115 37l66 64q17 -17 46 -17z" />
<glyph unicode="&#xb9;" horiz-adv-x="440" d="M188 237l63 325l-73 -46l-56 72l171 113h118l-90 -464h-133z" />
<glyph unicode="&#xba;" horiz-adv-x="473" d="M488 511q-17 -86 -83.5 -141.5t-157.5 -55.5q-78 0 -123.5 42.5t-45.5 111.5q0 101 71.5 170.5t173.5 69.5q78 0 123.5 -42.5t45.5 -112.5q0 -22 -4 -42zM345 511q3 18 3 34q0 58 -45 58q-33 0 -57.5 -34.5t-24.5 -92.5q0 -57 46 -57q28 0 48.5 24t29.5 68z" />
<glyph unicode="&#xbb;" horiz-adv-x="624" d="M597 346l-13 -68l-243 -157l-48 86l168 105l-128 104l82 86zM338 346l-13 -68l-243 -157l-48 86l168 105l-128 104l82 86z" />
<glyph unicode="&#xbc;" horiz-adv-x="1083" d="M775 715l77 -46l-503 -684l-76 46zM841 84h-205l21 108l235 271h150l-52 -268h51l-21 -111h-51l-16 -84h-128zM886 318l-107 -123h83zM188 237l63 325l-73 -46l-56 72l171 113h118l-90 -464h-133z" />
<glyph unicode="&#xbd;" horiz-adv-x="1083" d="M775 715l77 -46l-503 -684l-76 46zM900 316q1 4 1 10q0 32 -35 32t-74 -37l-82 64q83 86 194 86q66 0 102 -30t36 -82q0 -65 -46 -124.5t-137 -124.5h139l-21 -110h-332l16 85q105 69 168 130.5t71 100.5zM188 237l63 325l-73 -46l-56 72l171 113h118l-90 -464h-133z" />
<glyph unicode="&#xbe;" horiz-adv-x="1083" d="M775 715l77 -46l-503 -684l-76 46zM210 330q29 0 47.5 16.5t18.5 42.5q0 44 -70 44h-41l17 89h41q38 0 58.5 15.5t20.5 41.5q0 27 -32 27q-34 0 -62 -28l-78 59q74 71 175 71q63 0 99.5 -28t36.5 -75q0 -43 -24.5 -76.5t-66.5 -50.5q60 -25 60 -87q0 -68 -58.5 -115 t-150.5 -47q-114 0 -154 76l101 59q19 -34 62 -34zM841 84h-205l21 108l235 271h150l-52 -268h51l-21 -111h-51l-16 -84h-128zM886 318l-107 -123h83z" />
<glyph unicode="&#xbf;" horiz-adv-x="574" d="M201 -194q-91 0 -143 40t-52 110q0 130 154 230q30 20 44 39t21 50l7 35h187l-11 -55q-22 -109 -126 -166q-42 -24 -60.5 -45.5t-18.5 -48.5q0 -37 52 -37q56 0 110 52l103 -96q-116 -108 -267 -108zM255 439q8 38 40.5 64.5t73.5 26.5q36 0 58 -20.5t22 -52.5 q0 -45 -35 -77t-81 -32q-36 0 -58 20.5t-22 52.5q0 6 2 18z" />
<glyph unicode="&#xc0;" horiz-adv-x="746" d="M584 700h-250l-367 -700h206l55 116h233l12 -116h206zM305 275l119 246l23 -246h-142zM561 818l-71 -72l-151 114l93 88z" />
<glyph unicode="&#xc1;" horiz-adv-x="746" d="M334 700h250l95 -700h-206l-12 116h-233l-55 -116h-206zM424 521l-119 -246h142zM444 746l-43 72l179 130l59 -88z" />
<glyph unicode="&#xc2;" horiz-adv-x="746" d="M334 700h250l95 -700h-206l-12 116h-233l-55 -116h-206zM424 521l-119 -246h142zM463 933h82l105 -133l-79 -54l-87 85l-119 -85l-59 54z" />
<glyph unicode="&#xc3;" horiz-adv-x="746" d="M584 700h-250l-367 -700h206l55 116h233l12 -116h206zM305 275l119 246l23 -246h-142zM577 915l98 -12q-18 -65 -53 -99t-81 -34q-30 0 -65 20.5t-46 20.5q-24 0 -34 -39l-98 12q18 65 53 99t81 34q30 0 65 -20.5t46 -20.5q24 0 34 39z" />
<glyph unicode="&#xc4;" horiz-adv-x="746" d="M584 700h-250l-367 -700h206l55 116h233l12 -116h206zM305 275l119 246l23 -246h-142zM454 839q-6 -31 -31.5 -52t-56.5 -21q-27 0 -43.5 16t-16.5 42q0 36 26.5 62t62.5 26q27 0 43.5 -16.5t16.5 -41.5q0 -10 -1 -15zM664 839q-6 -31 -31.5 -52t-56.5 -21 q-27 0 -43.5 16t-16.5 42q0 36 26.5 62t62.5 26q27 0 43.5 -16.5t16.5 -41.5q0 -10 -1 -15z" />
<glyph unicode="&#xc5;" horiz-adv-x="746" d="M584 700h-250l-367 -700h206l55 116h233l12 -116h206zM305 275l119 246l23 -246h-142zM606 844q-10 -48 -51 -81t-91 -33q-44 0 -71 25.5t-27 65.5q0 55 43 96t100 41q44 0 71.5 -26t27.5 -67q0 -7 -2 -21zM452 844q-1 -3 -1 -9q0 -27 29 -27q17 0 30 12.5t13 31.5 q0 13 -8 20.5t-21 7.5q-15 0 -27 -10t-15 -26z" />
<glyph unicode="&#xc6;" horiz-adv-x="950" d="M858 0h-442l20 105h-195l-70 -105h-207l493 700h528l-30 -152h-239l-22 -113h204l-29 -152h-204l-26 -132h248zM514 507l-165 -243h118z" />
<glyph unicode="&#xc7;" horiz-adv-x="720" d="M472 712q100 0 175 -45t105 -126l-178 -75q-29 86 -122 86q-83 0 -144 -74.5t-61 -191.5q0 -66 34.5 -102t91.5 -36q92 0 156 86l148 -75q-98 -130 -261 -162l-34 -49q59 -16 59 -70q0 -48 -42 -82t-113 -34q-75 0 -115 37l66 64q17 -17 46 -17q18 0 29.5 8t11.5 21 q0 30 -69 33l-7 13l46 69q-117 9 -182 79.5t-65 187.5q0 189 119.5 322t305.5 133z" />
<glyph unicode="&#xc8;" horiz-adv-x="606" d="M21 0l136 700h484l-30 -152h-290l-22 -113h255l-29 -152h-255l-26 -132h299l-29 -151h-493zM516 818l-71 -72l-151 114l93 88z" />
<glyph unicode="&#xc9;" horiz-adv-x="606" d="M21 0l136 700h484l-30 -152h-290l-22 -113h255l-29 -152h-255l-26 -132h299l-29 -151h-493zM362 746l-43 72l179 130l59 -88z" />
<glyph unicode="&#xca;" horiz-adv-x="606" d="M21 0l136 700h484l-30 -152h-290l-22 -113h255l-29 -152h-255l-26 -132h299l-29 -151h-493zM403 933h82l105 -133l-79 -54l-87 85l-119 -85l-59 54z" />
<glyph unicode="&#xcb;" horiz-adv-x="606" d="M21 0l136 700h484l-30 -152h-290l-22 -113h255l-29 -152h-255l-26 -132h299l-29 -151h-493zM394 839q-6 -31 -31.5 -52t-56.5 -21q-27 0 -43.5 16t-16.5 42q0 36 26.5 62t62.5 26q27 0 43.5 -16.5t16.5 -41.5q0 -10 -1 -15zM604 839q-6 -31 -31.5 -52t-56.5 -21 q-27 0 -43.5 16t-16.5 42q0 36 26.5 62t62.5 26q27 0 43.5 -16.5t16.5 -41.5q0 -10 -1 -15z" />
<glyph unicode="&#xcc;" horiz-adv-x="344" d="M161 700h194l-136 -700h-194zM354 818l-71 -72l-151 114l93 88z" />
<glyph unicode="&#xcd;" horiz-adv-x="344" d="M161 700h194l-136 -700h-194zM251 746l-43 72l179 130l59 -88z" />
<glyph unicode="&#xce;" horiz-adv-x="344" d="M161 700h194l-136 -700h-194zM262 933h82l105 -133l-79 -54l-87 85l-119 -85l-59 54z" />
<glyph unicode="&#xcf;" horiz-adv-x="344" d="M161 700h194l-136 -700h-194zM253 839q-6 -31 -31.5 -52t-56.5 -21q-27 0 -43.5 16t-16.5 42q0 36 26.5 62t62.5 26q27 0 43.5 -16.5t16.5 -41.5q0 -10 -1 -15zM463 839q-6 -31 -31.5 -52t-56.5 -21q-27 0 -43.5 16t-16.5 42q0 36 26.5 62t62.5 26q27 0 43.5 -16.5 t16.5 -41.5q0 -10 -1 -15z" />
<glyph unicode="&#xd0;" horiz-adv-x="727" d="M9 308l17 84h71l60 308h260q141 0 218.5 -70.5t77.5 -194.5q0 -187 -120.5 -311t-311.5 -124h-260l60 308h-72zM320 542l-29 -150h118l-17 -84h-118l-29 -151h66q89 0 146.5 71t57.5 184q0 66 -34 98t-95 32h-66z" />
<glyph unicode="&#xd1;" horiz-adv-x="745" d="M21 0l136 700h190l149 -382l75 382h189l-136 -700h-190l-150 381l-74 -381h-189zM576 915l98 -12q-18 -65 -53 -99t-81 -34q-30 0 -65 20.5t-46 20.5q-24 0 -34 -39l-98 12q18 65 53 99t81 34q30 0 65 -20.5t46 -20.5q24 0 34 39z" />
<glyph unicode="&#xd2;" horiz-adv-x="758" d="M326 -12q177 0 298.5 128.5t121.5 323.5q0 126 -73 199t-206 73q-177 0 -298.5 -129t-121.5 -325q0 -125 73 -197.5t206 -72.5zM357 148q-53 0 -82 35.5t-29 98.5q0 118 57 194t133 76q53 0 82.5 -36t29.5 -100q0 -118 -57.5 -193t-133.5 -75zM573 818l-71 -72l-151 114 l93 88z" />
<glyph unicode="&#xd3;" horiz-adv-x="758" d="M326 -12q-133 0 -206 72.5t-73 197.5q0 196 121.5 325t298.5 129q133 0 206 -73t73 -199q0 -195 -121.5 -323.5t-298.5 -128.5zM357 148q76 0 133.5 75t57.5 193q0 64 -29.5 100t-82.5 36q-76 0 -133 -76t-57 -194q0 -63 29 -98.5t82 -35.5zM446 746l-43 72l179 130 l59 -88z" />
<glyph unicode="&#xd4;" horiz-adv-x="758" d="M326 -12q-133 0 -206 72.5t-73 197.5q0 196 121.5 325t298.5 129q133 0 206 -73t73 -199q0 -195 -121.5 -323.5t-298.5 -128.5zM357 148q76 0 133.5 75t57.5 193q0 64 -29.5 100t-82.5 36q-76 0 -133 -76t-57 -194q0 -63 29 -98.5t82 -35.5zM469 933h82l105 -133l-79 -54 l-87 85l-119 -85l-59 54z" />
<glyph unicode="&#xd5;" horiz-adv-x="758" d="M326 -12q177 0 298.5 128.5t121.5 323.5q0 126 -73 199t-206 73q-177 0 -298.5 -129t-121.5 -325q0 -125 73 -197.5t206 -72.5zM357 148q-53 0 -82 35.5t-29 98.5q0 118 57 194t133 76q53 0 82.5 -36t29.5 -100q0 -118 -57.5 -193t-133.5 -75zM583 915l98 -12 q-18 -65 -53 -99t-81 -34q-30 0 -65 20.5t-46 20.5q-24 0 -34 -39l-98 12q18 65 53 99t81 34q30 0 65 -20.5t46 -20.5q24 0 34 39z" />
<glyph unicode="&#xd6;" horiz-adv-x="758" d="M326 -12q177 0 298.5 128.5t121.5 323.5q0 126 -73 199t-206 73q-177 0 -298.5 -129t-121.5 -325q0 -125 73 -197.5t206 -72.5zM357 148q-53 0 -82 35.5t-29 98.5q0 118 57 194t133 76q53 0 82.5 -36t29.5 -100q0 -118 -57.5 -193t-133.5 -75zM460 839q-6 -31 -31.5 -52 t-56.5 -21q-27 0 -43.5 16t-16.5 42q0 36 26.5 62t62.5 26q27 0 43.5 -16.5t16.5 -41.5q0 -10 -1 -15zM670 839q-6 -31 -31.5 -52t-56.5 -21q-27 0 -43.5 16t-16.5 42q0 36 26.5 62t62.5 26q27 0 43.5 -16.5t16.5 -41.5q0 -10 -1 -15z" />
<glyph unicode="&#xd7;" horiz-adv-x="615" d="M458 92l-141 141l-141 -141l-98 99l141 141l-141 141l98 98l141 -141l141 141l98 -98l-141 -141l141 -141z" />
<glyph unicode="&#xd8;" horiz-adv-x="758" d="M779 700l-86 -88q52 -72 52 -177q0 -186 -122.5 -316.5t-296.5 -130.5q-111 0 -183 55l-80 -83l-48 40l85 88q-52 68 -52 173q0 188 121.5 319.5t297.5 131.5q112 0 182 -56l81 84zM540 350q7 40 7 65q0 16 -4 42l-266 -276q27 -33 80 -33q66 0 115 54t68 148zM254 350 q-7 -35 -7 -68q0 -21 3 -39l265 275q-29 34 -79 34q-66 0 -115 -54t-67 -148z" />
<glyph unicode="&#xd9;" horiz-adv-x="764" d="M329 -12q142 0 241.5 78t127.5 222l81 412h-194l-82 -420q-25 -133 -143 -133q-96 0 -96 91q0 17 5 42l82 420h-194l-81 -412q-8 -42 -8 -74q0 -109 69 -167.5t192 -58.5zM564 818l-71 -72l-151 114l93 88z" />
<glyph unicode="&#xda;" horiz-adv-x="764" d="M461 746l-43 72l179 130l59 -88zM329 -12q-123 0 -192 58.5t-69 167.5q0 32 8 74l81 412h194l-82 -420q-5 -25 -5 -42q0 -91 96 -91q118 0 143 133l82 420h194l-81 -412q-28 -144 -127.5 -222t-241.5 -78z" />
<glyph unicode="&#xdb;" horiz-adv-x="764" d="M472 933h82l105 -133l-79 -54l-87 85l-119 -85l-59 54zM329 -12q-123 0 -192 58.5t-69 167.5q0 32 8 74l81 412h194l-82 -420q-5 -25 -5 -42q0 -91 96 -91q118 0 143 133l82 420h194l-81 -412q-28 -144 -127.5 -222t-241.5 -78z" />
<glyph unicode="&#xdc;" horiz-adv-x="764" d="M463 839q-6 -31 -31.5 -52t-56.5 -21q-27 0 -43.5 16t-16.5 42q0 36 26.5 62t62.5 26q27 0 43.5 -16.5t16.5 -41.5q0 -10 -1 -15zM673 839q-6 -31 -31.5 -52t-56.5 -21q-27 0 -43.5 16t-16.5 42q0 36 26.5 62t62.5 26q27 0 43.5 -16.5t16.5 -41.5q0 -10 -1 -15zM329 -12 q142 0 241.5 78t127.5 222l81 412h-194l-82 -420q-25 -133 -143 -133q-96 0 -96 91q0 17 5 42l82 420h-194l-81 -412q-8 -42 -8 -74q0 -109 69 -167.5t192 -58.5z" />
<glyph unicode="&#xdd;" horiz-adv-x="688" d="M390 0h-192l53 274l-152 426h209l70 -266l174 266h209l-318 -426zM421 746l-43 72l179 130l59 -88z" />
<glyph unicode="&#xde;" horiz-adv-x="655" d="M642 354q-23 -117 -112.5 -177t-224.5 -60h-68l-22 -117h-194l136 700h194l-22 -109h68q118 0 184 -46.5t66 -136.5q0 -30 -5 -54zM446 354q3 13 3 25q0 62 -87 62h-62l-34 -174h62q101 0 118 87z" />
<glyph unicode="&#xdf;" horiz-adv-x="649" d="M314 289l27 143q37 0 61 23t24 60q0 21 -13 33.5t-37 12.5q-65 0 -81 -81l-93 -480h-186l91 470q22 117 100.5 179.5t198.5 62.5q99 0 156 -45t57 -116q0 -65 -39 -115.5t-102 -74.5q132 -33 132 -147q0 -102 -69 -164t-173 -62q-93 0 -148 38l75 126q20 -15 48 -15 q33 0 54.5 21.5t21.5 58.5q0 33 -27.5 52.5t-77.5 19.5z" />
<glyph unicode="&#xe0;" horiz-adv-x="655" d="M458 518l-9 -47q-53 59 -136 59q-113 0 -197.5 -95.5t-84.5 -256.5q0 -92 47 -141t129 -49q83 0 160 59l-9 -47h186l100 518h-186zM426 353l-36 -188q-41 -35 -91 -35q-76 0 -76 83q0 82 36.5 128.5t89.5 46.5q50 0 77 -35zM512 644l-71 -72l-151 114l93 88z" />
<glyph unicode="&#xe1;" horiz-adv-x="655" d="M449 471l9 47h186l-100 -518h-186l9 47q-77 -59 -160 -59q-82 0 -129 49t-47 141q0 161 84.5 256.5t197.5 95.5q83 0 136 -59zM390 165l36 188q-27 35 -77 35q-53 0 -89.5 -46.5t-36.5 -128.5q0 -83 76 -83q50 0 91 35zM349 572l-43 72l179 130l59 -88z" />
<glyph unicode="&#xe2;" horiz-adv-x="655" d="M449 471l9 47h186l-100 -518h-186l9 47q-77 -59 -160 -59q-82 0 -129 49t-47 141q0 161 84.5 256.5t197.5 95.5q83 0 136 -59zM390 165l36 188q-27 35 -77 35q-53 0 -89.5 -46.5t-36.5 -128.5q0 -83 76 -83q50 0 91 35zM393 759h82l105 -133l-79 -54l-87 85l-119 -85 l-59 54z" />
<glyph unicode="&#xe3;" horiz-adv-x="655" d="M458 518l-9 -47q-53 59 -136 59q-113 0 -197.5 -95.5t-84.5 -256.5q0 -92 47 -141t129 -49q83 0 160 59l-9 -47h186l100 518h-186zM426 353l-36 -188q-41 -35 -91 -35q-76 0 -76 83q0 82 36.5 128.5t89.5 46.5q50 0 77 -35zM508 741l97 -12q-18 -65 -53 -99t-81 -34 q-30 0 -65 20.5t-46 20.5q-24 0 -34 -39l-98 12q18 65 53 99t81 34q30 0 65 -20.5t46 -20.5q23 0 35 39z" />
<glyph unicode="&#xe4;" horiz-adv-x="655" d="M458 518l-9 -47q-53 59 -136 59q-113 0 -197.5 -95.5t-84.5 -256.5q0 -92 47 -141t129 -49q83 0 160 59l-9 -47h186l100 518h-186zM426 353l-36 -188q-41 -35 -91 -35q-76 0 -76 83q0 82 36.5 128.5t89.5 46.5q50 0 77 -35zM384 665q-6 -31 -31 -52t-56 -21 q-28 0 -44.5 16t-16.5 42q0 36 26.5 62t62.5 26q27 0 43.5 -16.5t16.5 -41.5q0 -10 -1 -15zM594 665q-6 -31 -31 -52t-56 -21q-28 0 -44.5 16t-16.5 42q0 36 26.5 62t62.5 26q27 0 43.5 -16.5t16.5 -41.5q0 -10 -1 -15z" />
<glyph unicode="&#xe5;" horiz-adv-x="655" d="M458 518l-9 -47q-53 59 -136 59q-113 0 -197.5 -95.5t-84.5 -256.5q0 -92 47 -141t129 -49q83 0 160 59l-9 -47h186l100 518h-186zM426 353l-36 -188q-41 -35 -91 -35q-76 0 -76 83q0 82 36.5 128.5t89.5 46.5q50 0 77 -35zM536 670q-10 -48 -50.5 -81t-90.5 -33 q-44 0 -71.5 25.5t-27.5 65.5q0 56 43 96.5t100 40.5q44 0 71.5 -26t27.5 -67q0 -7 -2 -21zM382 670q-1 -3 -1 -9q0 -27 29 -27q17 0 30 12.5t13 31.5q0 13 -8 20.5t-21 7.5q-15 0 -27 -10t-15 -26z" />
<glyph unicode="&#xe6;" horiz-adv-x="927" d="M243 103q62 0 114 41q-3 12 -3 29v8q-34 29 -91 29q-33 0 -56 -17t-23 -47q0 -20 16 -31.5t43 -11.5zM586 -12q-129 0 -186 75q-53 -42 -106.5 -58.5t-124.5 -16.5q-70 0 -115.5 36t-45.5 97q0 91 69.5 147.5t159.5 56.5q84 0 132 -40l6 30q1 5 1 15q0 31 -21.5 50.5 t-61.5 19.5q-64 0 -120 -41l-76 88q111 83 247 83q110 0 153 -61q82 61 203 61q97 0 151.5 -40t54.5 -105q0 -81 -69 -137t-178 -56q-81 0 -126 28q-1 -4 -1 -12q0 -44 24.5 -66.5t67.5 -22.5q65 0 109 50l107 -78q-103 -103 -254 -103zM678 403q-77 0 -117 -78 q37 -12 89 -12q39 0 61.5 14t22.5 41q0 35 -56 35z" />
<glyph unicode="&#xe7;" horiz-adv-x="570" d="M195 -154q18 0 29.5 8t11.5 21q0 30 -69 33l-7 13l48 71q-86 11 -133 65t-47 138q0 143 96 239t236 96q81 0 137 -35.5t81 -98.5l-155 -66q-23 58 -79 58q-54 0 -90 -48t-36 -126q0 -84 76 -84q56 0 101 58l130 -66q-78 -100 -196 -126l-35 -48q59 -16 59 -70 q0 -48 -42 -82t-113 -34q-75 0 -115 37l66 64q17 -17 46 -17z" />
<glyph unicode="&#xe8;" horiz-adv-x="603" d="M470 644l-71 -72l-151 114l93 88zM300 119q65 0 109 50l107 -78q-103 -103 -254 -103q-110 0 -171.5 56.5t-61.5 154.5q0 141 98 236t249 95q97 0 151.5 -40t54.5 -105q0 -81 -69 -137t-178 -56q-81 0 -126 28q-1 -4 -1 -11q0 -43 23.5 -66.5t68.5 -23.5zM354 403 q-77 0 -117 -78q38 -12 89 -12q39 0 61.5 14t22.5 41q0 35 -56 35z" />
<glyph unicode="&#xe9;" horiz-adv-x="603" d="M334 572l-43 72l179 130l59 -88zM300 119q65 0 109 50l107 -78q-103 -103 -254 -103q-110 0 -171.5 56.5t-61.5 154.5q0 141 98 236t249 95q97 0 151.5 -40t54.5 -105q0 -81 -69 -137t-178 -56q-81 0 -126 28q-1 -4 -1 -11q0 -43 23.5 -66.5t68.5 -23.5zM354 403 q-77 0 -117 -78q38 -12 89 -12q39 0 61.5 14t22.5 41q0 35 -56 35z" />
<glyph unicode="&#xea;" horiz-adv-x="603" d="M360 759h82l105 -133l-79 -54l-87 85l-119 -85l-59 54zM300 119q65 0 109 50l107 -78q-103 -103 -254 -103q-110 0 -171.5 56.5t-61.5 154.5q0 141 98 236t249 95q97 0 151.5 -40t54.5 -105q0 -81 -69 -137t-178 -56q-81 0 -126 28q-1 -4 -1 -11q0 -43 23.5 -66.5 t68.5 -23.5zM354 403q-77 0 -117 -78q38 -12 89 -12q39 0 61.5 14t22.5 41q0 35 -56 35z" />
<glyph unicode="&#xeb;" horiz-adv-x="603" d="M351 665q-6 -31 -31 -52t-56 -21q-28 0 -44.5 16t-16.5 42q0 36 26.5 62t62.5 26q27 0 43.5 -16.5t16.5 -41.5q0 -10 -1 -15zM561 665q-6 -31 -31 -52t-56 -21q-28 0 -44.5 16t-16.5 42q0 36 26.5 62t62.5 26q27 0 43.5 -16.5t16.5 -41.5q0 -10 -1 -15zM300 119 q65 0 109 50l107 -78q-103 -103 -254 -103q-110 0 -171.5 56.5t-61.5 154.5q0 141 98 236t249 95q97 0 151.5 -40t54.5 -105q0 -81 -69 -137t-178 -56q-81 0 -126 28q-1 -4 -1 -11q0 -43 23.5 -66.5t68.5 -23.5zM354 403q-77 0 -117 -78q38 -12 89 -12q39 0 61.5 14t22.5 41 q0 35 -56 35z" />
<glyph unicode="&#xec;" horiz-adv-x="318" d="M16 0l100 518h186l-100 -518h-186zM309 644l-71 -72l-151 114l93 88z" />
<glyph unicode="&#xed;" horiz-adv-x="318" d="M16 0l100 518h186l-100 -518h-186zM202 572l-43 72l179 130l59 -88z" />
<glyph unicode="&#xee;" horiz-adv-x="318" d="M16 0l100 518h186l-100 -518h-186zM215 759h82l105 -133l-79 -54l-87 85l-119 -85l-59 54z" />
<glyph unicode="&#xef;" horiz-adv-x="318" d="M16 0l100 518h186l-100 -518h-186zM206 665q-6 -31 -31 -52t-56 -21q-28 0 -44.5 16t-16.5 42q0 36 26.5 62t62.5 26q27 0 43.5 -16.5t16.5 -41.5q0 -10 -1 -15zM416 665q-6 -31 -31 -52t-56 -21q-28 0 -44.5 16t-16.5 42q0 36 26.5 62t62.5 26q27 0 43.5 -16.5 t16.5 -41.5q0 -10 -1 -15z" />
<glyph unicode="&#xf0;" horiz-adv-x="607" d="M605 642l-72 -29q56 -73 56 -187q0 -194 -98 -316t-248 -122q-101 0 -157.5 51t-56.5 141q0 142 81 224t186 82q73 0 121 -48q2 16 2 25q0 50 -36 89l-124 -49l-15 64l72 29q-35 15 -85 20l18 114q149 -11 230 -68l111 44zM319 344q-44 0 -76 -36.5t-32 -100.5 q0 -37 17.5 -57.5t48.5 -20.5q88 0 124 178q-32 37 -82 37z" />
<glyph unicode="&#xf1;" horiz-adv-x="650" d="M367 388q-54 0 -104 -44l-66 -344h-186l100 518h186l-11 -57q84 69 179 69q69 0 107.5 -36.5t38.5 -106.5q0 -27 -6 -59l-63 -328h-186l61 314q2 16 2 23q0 51 -52 51zM496 741l97 -12q-18 -65 -53 -99t-81 -34q-30 0 -65 20.5t-46 20.5q-24 0 -34 -39l-98 12 q18 65 53 99t81 34q30 0 65 -20.5t46 -20.5q23 0 35 39z" />
<glyph unicode="&#xf2;" d="M581 259q-23 -121 -113.5 -196t-212.5 -75q-105 0 -165.5 56.5t-60.5 152.5q0 143 97.5 238t234.5 95q105 0 165.5 -57t60.5 -152q0 -31 -6 -62zM218 259q-5 -23 -5 -48q0 -81 70 -81q49 0 84.5 47t35.5 129t-70 82q-43 0 -73 -33t-42 -96zM470 644l-71 -72l-151 114 l93 88z" />
<glyph unicode="&#xf3;" d="M581 259q-23 -121 -113.5 -196t-212.5 -75q-105 0 -165.5 56.5t-60.5 152.5q0 143 97.5 238t234.5 95q105 0 165.5 -57t60.5 -152q0 -31 -6 -62zM218 259q-5 -23 -5 -48q0 -81 70 -81q49 0 84.5 47t35.5 129t-70 82q-43 0 -73 -33t-42 -96zM339 572l-43 72l179 130 l59 -88z" />
<glyph unicode="&#xf4;" d="M581 259q-23 -121 -113.5 -196t-212.5 -75q-105 0 -165.5 56.5t-60.5 152.5q0 143 97.5 238t234.5 95q105 0 165.5 -57t60.5 -152q0 -31 -6 -62zM218 259q-5 -23 -5 -48q0 -81 70 -81q49 0 84.5 47t35.5 129t-70 82q-43 0 -73 -33t-42 -96zM364 759h82l105 -133l-79 -54 l-87 85l-119 -85l-59 54z" />
<glyph unicode="&#xf5;" d="M581 259q-23 -121 -113.5 -196t-212.5 -75q-105 0 -165.5 56.5t-60.5 152.5q0 143 97.5 238t234.5 95q105 0 165.5 -57t60.5 -152q0 -31 -6 -62zM218 259q-5 -23 -5 -48q0 -81 70 -81q49 0 84.5 47t35.5 129t-70 82q-43 0 -73 -33t-42 -96zM479 741l97 -12 q-18 -65 -53 -99t-81 -34q-30 0 -65 20.5t-46 20.5q-24 0 -34 -39l-98 12q18 65 53 99t81 34q30 0 65 -20.5t46 -20.5q23 0 35 39z" />
<glyph unicode="&#xf6;" d="M581 259q-23 -121 -113.5 -196t-212.5 -75q-105 0 -165.5 56.5t-60.5 152.5q0 143 97.5 238t234.5 95q105 0 165.5 -57t60.5 -152q0 -31 -6 -62zM218 259q-5 -23 -5 -48q0 -81 70 -81q49 0 84.5 47t35.5 129t-70 82q-43 0 -73 -33t-42 -96zM355 665q-6 -31 -31 -52 t-56 -21q-28 0 -44.5 16t-16.5 42q0 36 26.5 62t62.5 26q27 0 43.5 -16.5t16.5 -41.5q0 -10 -1 -15zM565 665q-6 -31 -31 -52t-56 -21q-28 0 -44.5 16t-16.5 42q0 36 26.5 62t62.5 26q27 0 43.5 -16.5t16.5 -41.5q0 -10 -1 -15z" />
<glyph unicode="&#xf7;" d="M573 270h-510v122h510v-122zM399 536q0 -34 -24 -58t-58 -24t-58 24t-24 58t24 58t58 24t58 -24t24 -58zM399 126q0 34 -24 58t-58 24t-58 -24t-24 -58t24 -58t58 -24t58 24t24 58z" />
<glyph unicode="&#xf8;" d="M8 -2l64 65q-44 53 -44 133q0 143 98 238.5t235 95.5q78 0 135 -35l63 65l49 -40l-64 -66q43 -54 43 -134q0 -142 -97.5 -237t-234.5 -95q-79 0 -136 34l-63 -64zM218 259q-5 -25 -5 -53l164 168q-17 14 -44 14q-43 0 -73 -33t-42 -96zM398 259q5 24 5 52l-165 -168 q17 -13 45 -13q89 0 115 129z" />
<glyph unicode="&#xf9;" horiz-adv-x="644" d="M269 -12q-107 0 -165.5 47t-58.5 135q0 23 7 62l55 286h186l-59 -303q-3 -12 -3 -23q0 -30 18 -46.5t48 -16.5q36 0 61.5 22.5t33.5 63.5l59 303h186l-55 -286q-23 -117 -105.5 -180.5t-207.5 -63.5zM483 644l-71 -72l-151 114l93 88z" />
<glyph unicode="&#xfa;" horiz-adv-x="644" d="M269 -12q-107 0 -165.5 47t-58.5 135q0 23 7 62l55 286h186l-59 -303q-3 -12 -3 -23q0 -30 18 -46.5t48 -16.5q36 0 61.5 22.5t33.5 63.5l59 303h186l-55 -286q-23 -117 -105.5 -180.5t-207.5 -63.5zM354 572l-43 72l179 130l59 -88z" />
<glyph unicode="&#xfb;" horiz-adv-x="644" d="M269 -12q-107 0 -165.5 47t-58.5 135q0 23 7 62l55 286h186l-59 -303q-3 -12 -3 -23q0 -30 18 -46.5t48 -16.5q36 0 61.5 22.5t33.5 63.5l59 303h186l-55 -286q-23 -117 -105.5 -180.5t-207.5 -63.5zM378 759h82l105 -133l-79 -54l-87 85l-119 -85l-59 54z" />
<glyph unicode="&#xfc;" horiz-adv-x="644" d="M269 -12q-107 0 -165.5 47t-58.5 135q0 23 7 62l55 286h186l-59 -303q-3 -12 -3 -23q0 -30 18 -46.5t48 -16.5q36 0 61.5 22.5t33.5 63.5l59 303h186l-55 -286q-23 -117 -105.5 -180.5t-207.5 -63.5zM369 665q-6 -31 -31 -52t-56 -21q-28 0 -44.5 16t-16.5 42 q0 36 26.5 62t62.5 26q27 0 43.5 -16.5t16.5 -41.5q0 -10 -1 -15zM579 665q-6 -31 -31 -52t-56 -21q-28 0 -44.5 16t-16.5 42q0 36 26.5 62t62.5 26q27 0 43.5 -16.5t16.5 -41.5q0 -10 -1 -15z" />
<glyph unicode="&#xfd;" horiz-adv-x="603" d="M230 -212h-186l125 224l-106 506h188l46 -287l155 287h188zM334 572l-43 72l179 130l59 -88z" />
<glyph unicode="&#xfe;" horiz-adv-x="655" d="M338 730l-50 -259q75 59 160 59q82 0 128.5 -49t46.5 -141q0 -161 -84.5 -256.5t-196.5 -95.5q-85 0 -136 59l-51 -259h-186l183 942h186zM265 353l-36 -188q12 -16 33.5 -25.5t43.5 -9.5q53 0 89.5 46t36.5 128q0 84 -76 84q-51 0 -91 -35z" />
<glyph unicode="&#xff;" horiz-adv-x="603" d="M230 -212h-186l125 224l-106 506h188l46 -287l155 287h188zM350 665q-6 -31 -31 -52t-56 -21q-28 0 -44.5 16t-16.5 42q0 36 26.5 62t62.5 26q27 0 43.5 -16.5t16.5 -41.5q0 -10 -1 -15zM560 665q-6 -31 -31 -52t-56 -21q-28 0 -44.5 16t-16.5 42q0 36 26.5 62t62.5 26 q27 0 43.5 -16.5t16.5 -41.5q0 -10 -1 -15z" />
<glyph unicode="&#x152;" horiz-adv-x="913" d="M459 700h489l-30 -152h-240l-22 -113h205l-29 -152h-205l-26 -132h249l-29 -151h-498q-132 0 -203.5 69.5t-71.5 190.5q0 192 117 316t294 124zM253 350q-7 -34 -7 -65q0 -63 30.5 -94.5t85.5 -31.5h46l75 382h-46q-68 0 -117 -49t-67 -142z" />
<glyph unicode="&#x153;" horiz-adv-x="966" d="M739 530q97 0 151.5 -40t54.5 -105q0 -81 -69 -137t-178 -56q-81 0 -126 28q-1 -4 -1 -12q0 -44 24.5 -66.5t67.5 -22.5q65 0 109 50l107 -78q-103 -103 -254 -103q-122 0 -175 72q-82 -72 -200 -72q-102 0 -161.5 56.5t-59.5 152.5q0 143 97 238t230 95q118 0 171 -73 q86 73 212 73zM218 259q-5 -23 -5 -48q0 -81 70 -81q49 0 84.5 47t35.5 129t-70 82q-43 0 -73 -33t-42 -96zM717 403q-77 0 -117 -78q38 -12 89 -12q39 0 61.5 14t22.5 41q0 35 -56 35z" />
<glyph unicode="&#x178;" horiz-adv-x="688" d="M390 0h-192l53 274l-152 426h209l70 -266l174 266h209l-318 -426zM425 839q-6 -31 -31.5 -52t-56.5 -21q-27 0 -43.5 16t-16.5 42q0 36 26.5 62t62.5 26q27 0 43.5 -16.5t16.5 -41.5q0 -10 -1 -15zM635 839q-6 -31 -31.5 -52t-56.5 -21q-27 0 -43.5 16t-16.5 42 q0 36 26.5 62t62.5 26q27 0 43.5 -16.5t16.5 -41.5q0 -10 -1 -15z" />
<glyph unicode="&#x2c6;" horiz-adv-x="384" d="M244 739h82l105 -133l-79 -54l-87 85l-119 -85l-59 54z" />
<glyph unicode="&#x2dc;" horiz-adv-x="384" d="M359 722l98 -12q-18 -65 -53 -99t-81 -34q-30 0 -65 20.5t-46 20.5q-25 0 -35 -39l-98 12q18 65 53 99t81 34q30 0 65 -20.5t46 -20.5q25 0 35 39z" />
<glyph unicode="&#x2000;" horiz-adv-x="479" />
<glyph unicode="&#x2001;" horiz-adv-x="958" />
<glyph unicode="&#x2002;" horiz-adv-x="479" />
<glyph unicode="&#x2003;" horiz-adv-x="958" />
<glyph unicode="&#x2004;" horiz-adv-x="319" />
<glyph unicode="&#x2005;" horiz-adv-x="239" />
<glyph unicode="&#x2006;" horiz-adv-x="159" />
<glyph unicode="&#x2007;" horiz-adv-x="159" />
<glyph unicode="&#x2008;" horiz-adv-x="119" />
<glyph unicode="&#x2009;" horiz-adv-x="191" />
<glyph unicode="&#x200a;" horiz-adv-x="53" />
<glyph unicode="&#x2010;" horiz-adv-x="404" d="M352 265h-298l26 132h298z" />
<glyph unicode="&#x2011;" horiz-adv-x="404" d="M352 265h-298l26 132h298z" />
<glyph unicode="&#x2012;" horiz-adv-x="404" d="M352 265h-298l26 132h298z" />
<glyph unicode="&#x2013;" horiz-adv-x="500" d="M502 270h-500l24 122h500z" />
<glyph unicode="&#x2014;" horiz-adv-x="1000" d="M1002 270h-1000l24 122h1000z" />
<glyph unicode="&#x2018;" horiz-adv-x="322" d="M389 753l-146 -305l-132 47l174 292z" />
<glyph unicode="&#x2019;" horiz-adv-x="322" d="M76 482l146 305l132 -47l-174 -292z" />
<glyph unicode="&#x201a;" horiz-adv-x="322" d="M-42 -125l146 305l132 -47l-174 -292z" />
<glyph unicode="&#x201c;" horiz-adv-x="544" d="M611 753l-146 -305l-132 47l174 292zM389 753l-146 -305l-132 47l174 292z" />
<glyph unicode="&#x201d;" horiz-adv-x="544" d="M76 482l146 305l132 -47l-174 -292zM298 482l146 305l132 -47l-174 -292z" />
<glyph unicode="&#x201e;" horiz-adv-x="544" d="M-42 -125l146 305l132 -47l-174 -292zM180 -125l146 305l132 -47l-174 -292z" />
<glyph unicode="&#x2022;" horiz-adv-x="450" d="M93 331q0 67 38 106.5t104 39.5t104 -39.5t38 -106.5t-38 -106t-104 -39t-104 39t-38 106z" />
<glyph unicode="&#x2026;" horiz-adv-x="966" d="M216 79q-7 -38 -38.5 -64.5t-69.5 -26.5q-33 0 -53.5 20.5t-20.5 52.5q0 44 33.5 76.5t76.5 32.5q33 0 53.5 -20.5t20.5 -52.5q0 -6 -2 -18zM538 79q-7 -38 -38.5 -64.5t-69.5 -26.5q-33 0 -53.5 20.5t-20.5 52.5q0 44 33.5 76.5t76.5 32.5q33 0 53.5 -20.5t20.5 -52.5 q0 -6 -2 -18zM860 79q-7 -38 -38.5 -64.5t-69.5 -26.5q-33 0 -53.5 20.5t-20.5 52.5q0 44 33.5 76.5t76.5 32.5q33 0 53.5 -20.5t20.5 -52.5q0 -6 -2 -18z" />
<glyph unicode="&#x202f;" horiz-adv-x="191" />
<glyph unicode="&#x2039;" horiz-adv-x="365" d="M48 278l13 68l242 156l48 -86l-168 -104l128 -105l-82 -86z" />
<glyph unicode="&#x203a;" horiz-adv-x="365" d="M338 346l-13 -68l-243 -157l-48 86l168 105l-128 104l82 86z" />
<glyph unicode="&#x205f;" horiz-adv-x="239" />
<glyph unicode="&#x20ac;" horiz-adv-x="753" d="M281 320h178l-33 -66h-144q8 -52 41 -79t83 -27q92 0 156 86l148 -75q-61 -81 -153.5 -126t-192.5 -45q-132 0 -207.5 70t-76.5 196h-64l13 66h56q4 37 11 58h-56l13 66h64q49 126 152 197t236 71q100 0 175 -45t105 -126l-178 -75q-29 86 -122 86q-49 0 -93.5 -28 t-73.5 -80h201l-33 -66h-194q-11 -33 -11 -58z" />
<glyph unicode="&#x2122;" horiz-adv-x="727" d="M102 372v252h-84v76h270v-76h-84v-252h-102zM539 425h-72l-52 110v-163h-102v328h111l79 -166l79 166h111v-328h-102v163z" />
<glyph unicode="&#x25fc;" horiz-adv-x="520" d="M0 520h520v-520h-520v520z" />
</font>
</defs>
</svg>
